<?xml version="1.0" standalone="no"?>
<!DOCTYPE svg PUBLIC "-//W3C//DTD SVG 1.1//EN" "http://www.w3.org/Graphics/SVG/1.1/DTD/svg11.dtd" >
<svg xmlns="http://www.w3.org/2000/svg" xmlns:xlink="http://www.w3.org/1999/xlink" version="1.1">
<metadata>
Created by FontForge 20161013 at Fri Jan 18 11:57:30 2002
 By ,,,
Copyright (c) 2000, 2002 Adobe Systems Incorporated. All Rights Reserved. U.S. Patent Des. pending.
</metadata>
<defs>
<font id="MyriadPro-LightSemiCn" horiz-adv-x="300" >
  <font-face 
    font-family="Myriad Pro Light SemiCond"
    font-weight="300"
    font-stretch="semi-condensed"
    units-per-em="1000"
    panose-1="2 11 4 3 3 4 3 2 2 4"
    ascent="750"
    descent="-250"
    x-height="480"
    cap-height="674"
    bbox="-125 -250 996 874"
    underline-thickness="50"
    underline-position="-200"
    unicode-range="U+0020-FB04"
  />
<missing-glyph horiz-adv-x="500" 
d="M0 0v700h500v-700h-500zM250 395l170 255h-340zM280 350l170 -255v510zM80 50h340l-170 255zM50 605v-510l170 255z" />
    <glyph glyph-name="f_f_j" unicode="ffj" horiz-adv-x="707" 
d="M614 684l-20 -36q-37 27 -90 27q-120 0 -120 -167v-28h251v-448q0 -70 -10 -113t-37 -74q-22 -24 -55.5 -37t-58.5 -14l-8 38q64 7 91 41q18 24 25 62.5t7 124.5v382h-205v-442h-46v442h-212v-442h-46v442h-66v38h66v23q0 103 50 157q41 44 107 44q39 0 78 -22l-18 -37
q-30 19 -65 19q-46 0 -71 -31q-35 -42 -35 -132v-21h212v32q0 92 43.5 147.5t130.5 55.5q65 0 102 -31z" />
    <glyph glyph-name="f_j" unicode="fj" horiz-adv-x="449" 
d="M126 0h-46v442h-66v38h66v32q0 92 43.5 147.5t130.5 55.5q64 0 101 -31l-20 -36q-37 27 -89 27q-120 0 -120 -167v-28h250v-448q0 -70 -10 -113t-37 -74q-22 -24 -55.5 -37t-58.5 -14l-7 38q62 7 90 41q18 24 25 62.5t7 124.5v382h-204v-442z" />
    <glyph glyph-name="ff" unicode="ff" horiz-adv-x="500" 
d="M384 0h-46v442h-212v-442h-46v442h-66v38h66v23q0 112 50 163q35 38 98 38q36 0 64 -17l-15 -37q-21 14 -54 14q-53 0 -75 -41t-22 -117v-26h212v29q0 113 48 165q40 41 100 41q41 0 65 -15l-14 -37q-24 12 -55 12q-56 0 -77 -44.5t-21 -120.5v-30h117v-38h-117v-442z
" />
    <glyph glyph-name="fi" unicode="fi" horiz-adv-x="451" 
d="M126 0h-46v442h-66v38h66v32q0 92 43.5 147.5t130.5 55.5q64 0 101 -31l-20 -36q-37 27 -89 27q-120 0 -120 -167v-28h250v-480h-46v442h-204v-442z" />
    <glyph glyph-name="fl" unicode="fl" horiz-adv-x="451" 
d="M126 0h-46v442h-66v38h66v24q0 111 60 168q48 43 127 43q63 0 110 -26v-689h-46v661q-30 14 -75 14q-130 0 -130 -165v-30h117v-38h-117v-442z" />
    <glyph glyph-name="ffi" unicode="ffi" horiz-adv-x="709" 
d="M614 684l-20 -36q-37 27 -90 27q-120 0 -120 -167v-28h251v-480h-46v442h-205v-442h-46v442h-212v-442h-46v442h-66v38h66v23q0 103 50 157q41 44 107 44q39 0 78 -22l-18 -37q-30 19 -65 19q-46 0 -71 -31q-35 -42 -35 -132v-21h212v32q0 92 43.5 147.5t130.5 55.5
q65 0 102 -31z" />
    <glyph glyph-name="ffl" unicode="ffl" horiz-adv-x="709" 
d="M314 684l-17 -37q-31 17 -64 17q-46 0 -72 -31q-35 -40 -35 -131v-22h212v24q0 111 60 168q48 43 127 43q63 0 110 -26v-689h-46v661q-30 14 -75 14q-130 0 -130 -165v-30h117v-38h-117v-442h-46v442h-212v-442h-46v442h-66v38h66v17q0 110 49 163q41 44 108 44
q45 0 77 -20z" />
    <glyph glyph-name=".notdef" horiz-adv-x="500" 
d="M0 0v700h500v-700h-500zM250 395l170 255h-340zM280 350l170 -255v510zM80 50h340l-170 255zM50 605v-510l170 255z" />
    <glyph glyph-name=".null" horiz-adv-x="0" 
 />
    <glyph glyph-name="nonmarkingreturn" horiz-adv-x="333" 
 />
    <glyph glyph-name="space" unicode=" " horiz-adv-x="200" 
 />
    <glyph glyph-name="exclam" unicode="!" horiz-adv-x="200" 
d="M119 174h-39l-8 500h55zM100 -10h-1q-16 0 -26.5 12t-10.5 30q0 19 10.5 31t27.5 12q18 0 28 -12t10 -31q0 -18 -10.5 -30t-27.5 -12z" />
    <glyph glyph-name="quotedbl" unicode="&#x22;" horiz-adv-x="299" 
d="M60 689h56l-12 -220h-32zM184 689h56l-12 -220h-32z" />
    <glyph glyph-name="numbersign" unicode="#" horiz-adv-x="433" 
d="M156 244h102l21 168h-103zM125 0h-41l26 205h-76v39h81l22 168h-81v38h86l26 200h39l-26 -200h103l26 200h40l-26 -200h76v-38h-81l-21 -168h82v-38h-87l-26 -206h-40l26 206h-102z" />
    <glyph glyph-name="dollar" unicode="$" horiz-adv-x="449" 
d="M238 -84h-40v102q-80 0 -133 43l20 36q52 -41 120 -41q56 0 90 34.5t34 86.5q0 48 -27 81t-82 60q-72 33 -109.5 70.5t-37.5 95.5q0 59 37 100.5t93 49.5v101h40v-99q65 -1 112 -34l-20 -36q-48 32 -107 32q-53 0 -81.5 -32t-28.5 -73q0 -47 26.5 -74t92.5 -59
q69 -33 103 -75t34 -103q0 -62 -36.5 -107t-99.5 -55v-104z" />
    <glyph glyph-name="percent" unicode="%" horiz-adv-x="707" 
d="M168 660h1q57 0 93 -49.5t36 -145.5q0 -98 -38 -149t-96 -51q-54 0 -91.5 49.5t-38.5 144.5q0 98 39.5 149.5t94.5 51.5zM166 626h-1q-42 0 -65.5 -49t-23.5 -115q-2 -66 22 -114.5t68 -48.5q46 0 68 47.5t22 116.5q0 68 -21.5 115.5t-68.5 47.5zM185 -14h-39l374 677h39
zM543 389h1q57 0 93 -49.5t36 -144.5q0 -98 -38 -149.5t-96 -51.5q-54 0 -91.5 49.5t-38.5 145.5q0 97 39.5 148.5t94.5 51.5zM541 355h-1q-42 0 -65.5 -48.5t-23.5 -114.5q-2 -66 22.5 -115t67.5 -49q46 0 68 48t22 117q0 68 -21.5 115t-68.5 47z" />
    <glyph glyph-name="ampersand" unicode="&#x26;" horiz-adv-x="532" 
d="M525 0h-58q-10 12 -32 36t-36 40q-80 -86 -187 -86q-80 0 -129.5 54.5t-49.5 132.5q0 119 123 199v3q-56 81 -56 149q0 63 38.5 109.5t104.5 46.5q51 0 85.5 -35.5t34.5 -97.5q0 -54 -34 -97t-111 -85v-3q28 -35 91 -113t91 -112q43 74 62 217h45q-24 -166 -82 -246
q43 -44 100 -112zM221 29h1q92 0 152 77q-25 31 -93 113t-104 127q-98 -67 -98 -164q0 -65 39.5 -109t102.5 -44zM235 646h-1q-42 0 -65.5 -32.5t-23.5 -80.5q0 -64 51 -137q61 36 92 71t31 81q0 40 -21 69t-63 29z" />
    <glyph glyph-name="quotesingle" unicode="'" horiz-adv-x="175" 
d="M60 689h56l-12 -220h-32z" />
    <glyph glyph-name="parenleft" unicode="(" horiz-adv-x="260" 
d="M201 695h43q-129 -169 -129 -411q0 -229 129 -406h-43q-131 170 -131 407q0 238 131 410z" />
    <glyph glyph-name="parenright" unicode=")" horiz-adv-x="260" 
d="M60 -122h-43q129 173 129 409q0 234 -129 408h43q131 -168 131 -408q0 -237 -131 -409z" />
    <glyph glyph-name="asterisk" unicode="*" horiz-adv-x="383" 
d="M254 684l42 -23l-85 -122v-2l142 12v-46l-141 12v-3l85 -117l-43 -25l-63 129h-2l-67 -131l-38 25l84 120v3l-138 -13v46l137 -11v2l-82 119l40 23l65 -127h2z" />
    <glyph glyph-name="plus" unicode="+" horiz-adv-x="596" 
d="M277 532h42v-245h237v-39h-237v-248h-42v248h-237v39h237v245z" />
    <glyph glyph-name="comma" unicode="," horiz-adv-x="173" 
d="M61 -121l-37 -5q12 32 28.5 99t23.5 113l62 10q-13 -53 -38.5 -123.5t-38.5 -93.5z" />
    <glyph glyph-name="hyphen" unicode="-" horiz-adv-x="296" 
d="M30 289h236v-41h-236v41z" />
    <glyph glyph-name="period" unicode="." horiz-adv-x="173" 
d="M92 -10h-1q-16 0 -27 12.5t-11 30.5q0 19 11 31.5t28 12.5q18 0 28.5 -12.5t10.5 -31.5q0 -18 -10.5 -30.5t-28.5 -12.5z" />
    <glyph glyph-name="slash" unicode="/" horiz-adv-x="330" 
d="M45 -40h-45l284 724h46z" />
    <glyph glyph-name="zero" unicode="0" horiz-adv-x="449" 
d="M218 -10h-1q-76 0 -128.5 83.5t-53.5 249.5q0 168 56 252.5t141 84.5q81 0 131.5 -82.5t50.5 -246.5q0 -171 -52.5 -256t-143.5 -85zM223 29h1q71 0 106.5 81.5t35.5 217.5q0 133 -35 213t-107 80q-65 0 -103 -82t-38 -211q-2 -133 36 -216t104 -83z" />
    <glyph glyph-name="one" unicode="1" horiz-adv-x="449" 
d="M223 0v601h-2l-106 -63l-12 36l125 76h40v-650h-45z" />
    <glyph glyph-name="two" unicode="2" horiz-adv-x="449" 
d="M399 0h-356v29l56 64q125 131 180.5 215t55.5 168q0 64 -30.5 103.5t-97.5 39.5q-65 0 -124 -51l-19 33q65 59 152 59q83 0 124.5 -52.5t41.5 -124.5q0 -87 -55 -173.5t-173 -213.5l-46 -54v-2h291v-40z" />
    <glyph glyph-name="three" unicode="3" horiz-adv-x="449" 
d="M40 30l18 37q54 -37 126 -37q79 0 115.5 45t35.5 106q-1 74 -50.5 113.5t-123.5 39.5h-35v38h35q55 0 103 35t48 97q0 52 -29 84t-86 32q-61 0 -113 -42l-18 35q57 47 137 47q77 0 117 -43t40 -106q0 -51 -29.5 -92t-85.5 -63v-2q59 -12 98.5 -56.5t39.5 -115.5
q0 -81 -53.5 -136.5t-150.5 -55.5q-85 0 -139 40z" />
    <glyph glyph-name="four" unicode="4" horiz-adv-x="449" 
d="M339 0h-45v192h-281v31l285 427h41v-419h92v-39h-92v-192zM68 231h226v249q0 58 4 105h-4q-19 -38 -53 -98l-173 -254v-2z" />
    <glyph glyph-name="five" unicode="5" horiz-adv-x="449" 
d="M378 650v-41h-223l-33 -209q26 4 50 4q69 0 122 -34q38 -23 62 -65t24 -98q0 -96 -59.5 -156.5t-146.5 -60.5q-84 0 -137 38l18 37q54 -35 121 -35t113 47t45 123q0 76 -45 120t-132 44q-43 0 -81 -6l43 292h259z" />
    <glyph glyph-name="six" unicode="6" horiz-adv-x="449" 
d="M362 660l1 -43q-33 0 -62 -6q-96 -21 -151.5 -99t-66.5 -177h2q53 84 153 84q80 0 128.5 -57t48.5 -149q0 -93 -49.5 -158t-135.5 -65q-87 0 -141 73t-54 197q0 181 96 292q66 79 174 101q27 5 57 7zM232 30h1q58 0 96 46.5t38 131.5q0 84 -38.5 127.5t-102.5 43.5
q-41 0 -78 -24.5t-58 -66.5q-9 -22 -9 -35q0 -105 40 -164t111 -59z" />
    <glyph glyph-name="seven" unicode="7" horiz-adv-x="449" 
d="M55 650h351v-31l-268 -619h-46l266 608v2h-303v40z" />
    <glyph glyph-name="eight" unicode="8" horiz-adv-x="449" 
d="M231 660h1q74 0 116 -45.5t42 -107.5q0 -102 -107 -158v-3q128 -61 128 -175q0 -77 -54 -129t-133 -52q-83 0 -134.5 50t-51.5 119q0 121 129 186v3q-51 25 -77.5 64.5t-26.5 84.5q0 72 48.5 117.5t119.5 45.5zM223 29h1q63 0 101.5 36t38.5 99q0 64 -37 101t-112 64
q-61 -22 -95 -65t-34 -95q-2 -60 35.5 -100t101.5 -40zM228 622h-1q-54 0 -86 -33.5t-32 -84.5q-1 -55 32.5 -88t94.5 -53q107 48 107 139q0 51 -29 85.5t-86 34.5z" />
    <glyph glyph-name="nine" unicode="9" horiz-adv-x="449" 
d="M89 -10v42q25 -2 63 6q77 14 129 71q71 79 87 209l-2 -1q-61 -77 -153 -77q-79 0 -124.5 56t-45.5 139q0 93 53 159t137 66q83 0 132.5 -72t49.5 -195q0 -189 -100 -303q-63 -74 -150 -92q-41 -8 -76 -8zM226 620h-1q-58 0 -97 -49t-39 -133q0 -75 37 -116.5t97 -41.5
q45 0 81.5 22t56.5 59q8 16 8 27q0 110 -37 171t-106 61z" />
    <glyph glyph-name="colon" unicode=":" horiz-adv-x="173" 
d="M92 367h-1q-16 0 -27 12.5t-11 30.5q0 19 11 31.5t28 12.5q18 0 28.5 -12.5t10.5 -31.5q0 -18 -10.5 -30.5t-28.5 -12.5zM92 -10h-1q-16 0 -27 12.5t-11 30.5q0 19 11 31.5t28 12.5q18 0 28.5 -12.5t10.5 -31.5q0 -18 -10.5 -30.5t-28.5 -12.5z" />
    <glyph glyph-name="semicolon" unicode=";" horiz-adv-x="173" 
d="M61 -121l-37 -5q12 32 28.5 99t23.5 113l62 10q-13 -53 -38.5 -123.5t-38.5 -93.5zM102 367h-1q-16 0 -27 12.5t-11 30.5q0 19 11 31.5t28 12.5q18 0 28.5 -12.5t10.5 -31.5q0 -18 -10.5 -30.5t-28.5 -12.5z" />
    <glyph glyph-name="less" unicode="&#x3c;" horiz-adv-x="596" 
d="M71 248v36l454 248v-46l-408 -219v-2l408 -219v-46z" />
    <glyph glyph-name="equal" unicode="=" horiz-adv-x="596" 
d="M556 346h-516v39h516v-39zM556 156h-516v39h516v-39z" />
    <glyph glyph-name="greater" unicode="&#x3e;" horiz-adv-x="596" 
d="M525 284v-36l-454 -248v46l408 219v2l-408 219v46z" />
    <glyph glyph-name="question" unicode="?" horiz-adv-x="355" 
d="M178 172h-43l-3 22q-15 95 55 189q40 53 57.5 88t17.5 74q0 48 -27 73.5t-75 25.5q-58 0 -92 -28l-16 35q19 15 52.5 25t64.5 10q69 0 106 -40t37 -98q0 -45 -20.5 -85t-63.5 -95q-33 -46 -45 -84.5t-7 -85.5zM154 -10h-1q-16 0 -27 12.5t-11 30.5q0 19 11 31.5t28 12.5
q18 0 28.5 -12.5t10.5 -31.5q0 -18 -10.5 -30.5t-28.5 -12.5z" />
    <glyph glyph-name="at" unicode="@" horiz-adv-x="673" 
d="M420 250l28 134q-22 8 -52 8q-73 0 -125 -64.5t-52 -146.5q0 -37 17.5 -58.5t48.5 -21.5q45 0 84.5 48t50.5 101zM466 -31l14 -32q-69 -41 -165 -41q-120 0 -199 81t-79 221q0 165 97.5 280.5t248.5 115.5q116 0 186 -75.5t70 -196.5q0 -119 -48.5 -188t-115.5 -69
q-29 0 -48 22.5t-15 66.5h-3q-53 -89 -137 -89q-40 0 -68.5 31.5t-28.5 85.5q0 94 66 170t166 76q47 0 88 -16l-39 -189q-25 -121 28 -121q43 -1 77.5 59t34.5 148q0 115 -57.5 181.5t-162.5 66.5q-124 0 -209.5 -100t-85.5 -258q0 -121 66.5 -193t174.5 -72q82 0 144 35z
" />
    <glyph glyph-name="A" unicode="A" horiz-adv-x="536" 
d="M388 235h-237l-74 -235h-47l218 674h45l218 -674h-48zM164 274h211l-71 215q-18 58 -33 129h-3q-10 -47 -33 -128z" />
    <glyph glyph-name="B" unicode="B" horiz-adv-x="465" 
d="M76 1v664q59 14 122 14q111 0 164 -53q41 -41 41 -111q0 -52 -31.5 -92.5t-82.5 -58.5v-2q55 -13 96.5 -57t41.5 -117q0 -79 -49 -131q-58 -62 -194 -62q-39 0 -108 6zM122 633v-254h81q67 0 109.5 38t42.5 95q0 128 -160 128q-49 0 -73 -7zM122 341v-302q21 -5 71 -5
q82 0 134 37.5t52 115.5q0 76 -52.5 115t-133.5 39h-71z" />
    <glyph glyph-name="C" unicode="C" horiz-adv-x="507" 
d="M464 59l14 -38q-56 -30 -156 -30q-56 0 -106 19.5t-90.5 59t-64.5 107t-24 155.5q0 163 84.5 257t219.5 94q88 0 133 -25l-15 -40q-52 25 -119 25q-115 0 -185 -80t-70 -229q0 -146 67 -224t183 -78q80 0 129 27z" />
    <glyph glyph-name="D" unicode="D" horiz-adv-x="578" 
d="M76 1v664q68 14 146 14q156 0 232 -78q87 -85 87 -246q0 -169 -84 -264q-84 -96 -255 -96q-78 0 -126 6zM122 631v-592q23 -4 86 -4q138 0 211.5 79.5t73.5 237.5q1 136 -67 212t-206 76q-55 0 -98 -9z" />
    <glyph glyph-name="E" unicode="E" horiz-adv-x="425" 
d="M364 375v-40h-242v-295h272v-40h-318v674h303v-40h-257v-259h242z" />
    <glyph glyph-name="F" unicode="F" horiz-adv-x="418" 
d="M76 0v674h303v-40h-257v-269h237v-40h-237v-325h-46z" />
    <glyph glyph-name="G" unicode="G" horiz-adv-x="561" 
d="M506 334v-309q-79 -32 -170 -32q-130 0 -211 81q-88 90 -88 257q0 160 86.5 255t230.5 95q84 0 136 -26l-15 -39q-52 25 -124 25q-120 0 -193 -79.5t-73 -223.5q0 -149 70 -227t188 -78q79 0 117 19v244h-141v38h187z" />
    <glyph glyph-name="H" unicode="H" horiz-adv-x="570" 
d="M76 674h46v-298h326v298h46v-674h-46v336h-326v-336h-46v674z" />
    <glyph glyph-name="I" unicode="I" horiz-adv-x="198" 
d="M76 674h46v-674h-46v674z" />
    <glyph glyph-name="J" unicode="J" horiz-adv-x="315" 
d="M200 206v468h46v-476q0 -208 -168 -208q-38 0 -70 12l9 39q28 -10 59 -10q64 0 94 37.5t30 137.5z" />
    <glyph glyph-name="K" unicode="K" horiz-adv-x="460" 
d="M76 0v674h46v-338h3q11 15 29.5 39.5t24.5 32.5l212 266h56l-232 -286l250 -388h-54l-228 355l-61 -75v-280h-46z" />
    <glyph glyph-name="L" unicode="L" horiz-adv-x="410" 
d="M76 0v674h46v-635h270v-39h-316z" />
    <glyph glyph-name="M" unicode="M" horiz-adv-x="717" 
d="M613 0l-19 321q-13 221 -11 296h-4q-43 -144 -81 -252l-129 -365h-29l-121 354q-57 167 -80 263h-3q-2 -121 -13 -305l-18 -312h-46l45 674h53l130 -376q53 -161 69 -222h3q18 77 69 221l132 377h56l43 -674h-46z" />
    <glyph glyph-name="N" unicode="N" horiz-adv-x="577" 
d="M120 0h-45v674h45l225 -383q78 -139 117 -226l2 1q-8 117 -8 284v324h45v-674h-44l-224 384q-82 144 -117 226l-3 -1q7 -104 7 -285v-324z" />
    <glyph glyph-name="O" unicode="O" horiz-adv-x="597" 
d="M295 -10h-1q-111 0 -184 90.5t-73 251.5q0 166 75.5 259t191.5 93q113 0 184.5 -90.5t71.5 -251.5q0 -172 -76.5 -262t-188.5 -90zM297 30h1q69 0 119 46t72.5 114.5t22.5 149.5q0 54 -12.5 106t-37 97.5t-67 73t-96.5 27.5q-72 0 -122 -47.5t-71 -115.5t-21 -148
q0 -76 22.5 -143t72 -113.5t117.5 -46.5z" />
    <glyph glyph-name="P" unicode="P" horiz-adv-x="460" 
d="M76 0v666q65 13 129 13q109 0 163 -54q50 -50 50 -133q0 -81 -42 -132q-60 -77 -185 -77q-45 0 -69 6v-289h-46zM122 633v-303q25 -8 71 -8q83 0 130.5 42.5t47.5 123.5q0 72 -44.5 112t-123.5 40q-44 0 -81 -7z" />
    <glyph glyph-name="Q" unicode="Q" horiz-adv-x="597" 
d="M566 -43l-15 -43q-90 24 -220 67q-23 9 -33 9q-114 2 -187.5 91t-73.5 250q0 168 75.5 260.5t192.5 92.5q112 0 183.5 -90.5t71.5 -252.5q0 -137 -49.5 -220.5t-136.5 -113.5v-3q119 -33 192 -47zM298 30h1q101 0 157 91.5t56 218.5q0 74 -20.5 140.5t-70 115
t-119.5 48.5q-73 0 -124 -48t-72 -116.5t-21 -147.5q0 -76 22.5 -143t72.5 -113t118 -46z" />
    <glyph glyph-name="R" unicode="R" horiz-adv-x="464" 
d="M76 0v665q58 14 129 14q112 0 167 -53q46 -46 46 -123q0 -129 -125 -176v-2q76 -23 101 -149q28 -141 46 -176h-48q-14 27 -41 166q-14 74 -47.5 107.5t-96.5 35.5h-85v-309h-46zM122 633v-287h86q74 0 118.5 41t44.5 108q0 73 -44 109.5t-123 36.5q-50 0 -82 -8z" />
    <glyph glyph-name="S" unicode="S" horiz-adv-x="427" 
d="M39 32l17 38q58 -39 130 -39q69 0 110 38t41 101q0 55 -29.5 91.5t-93.5 66.5q-159 66 -159 186q0 74 52 121.5t132 47.5q77 0 120 -30l-18 -39q-41 29 -106 29q-67 0 -100.5 -36.5t-33.5 -83.5q0 -55 30 -88t99 -65q79 -39 116 -83.5t37 -112.5q0 -79 -53.5 -131
t-146.5 -52q-39 0 -80 12t-64 29z" />
    <glyph glyph-name="T" unicode="T" horiz-adv-x="424" 
d="M190 0v635h-192v39h430v-39h-192v-635h-46z" />
    <glyph glyph-name="U" unicode="U" horiz-adv-x="567" 
d="M76 674h46v-423q0 -114 43.5 -167.5t114.5 -53.5q78 0 122 54.5t44 166.5v423h46v-418q0 -139 -59.5 -202.5t-154.5 -63.5q-89 0 -145.5 60.5t-56.5 195.5v428z" />
    <glyph glyph-name="V" unicode="V" horiz-adv-x="477" 
d="M254 0h-44l-203 674h48l107 -352q48 -158 72 -263h3q19 91 76 263l115 352h48z" />
    <glyph glyph-name="W" unicode="W" horiz-adv-x="766" 
d="M227 0h-43l-166 674h47l91 -374q37 -154 51 -236h3q10 70 55 237l99 373h44l92 -368q42 -172 51 -242h3q11 63 55 238l99 372h47l-183 -674h-43l-96 390q-37 156 -47 226h-2q-12 -78 -53 -227z" />
    <glyph glyph-name="X" unicode="X" horiz-adv-x="496" 
d="M468 0h-52l-94 171q-48 80 -75 134h-3q-28 -58 -73 -135l-89 -170h-53l193 342l-186 332h52l98 -179q31 -52 62 -112h2q18 38 62 113l100 178h53l-191 -327z" />
    <glyph glyph-name="Y" unicode="Y" horiz-adv-x="469" 
d="M259 0h-46v295l-195 379h52l98 -193q59 -122 70 -149h2q15 37 73 150l101 192h51l-206 -379v-295z" />
    <glyph glyph-name="Z" unicode="Z" horiz-adv-x="479" 
d="M31 0v30l357 603v2h-328v39h385v-30l-357 -602v-3h360v-39h-417z" />
    <glyph glyph-name="bracketleft" unicode="[" horiz-adv-x="260" 
d="M247 -112h-157v798h157v-36h-115v-726h115v-36z" />
    <glyph glyph-name="backslash" unicode="\" horiz-adv-x="328" 
d="M328 -40h-46l-282 724h46z" />
    <glyph glyph-name="bracketright" unicode="]" horiz-adv-x="260" 
d="M15 686h157v-798h-157v36h114v726h-114v36z" />
    <glyph glyph-name="asciicircum" unicode="^" horiz-adv-x="596" 
d="M523 196h-45l-179 407h-2l-179 -407h-45l204 454h42z" />
    <glyph glyph-name="underscore" unicode="_" horiz-adv-x="500" 
d="M0 -75h500v-50h-500v50z" />
    <glyph glyph-name="grave" unicode="`" 
d="M37 685h66l87 -136h-35z" />
    <glyph glyph-name="a" unicode="a" horiz-adv-x="416" 
d="M346 311v-199q0 -70 6 -112h-42l-6 64h-3q-19 -31 -53.5 -52.5t-80.5 -21.5q-61 0 -95.5 38.5t-34.5 93.5q0 84 68 129.5t195 44.5v14q0 27 -3.5 47.5t-14 44t-34 36t-59.5 12.5q-61 0 -105 -32l-13 34q53 38 125 38q150 0 150 -179zM300 153v104q-215 5 -215 -129
q0 -49 25 -74t62 -25q48 0 80.5 27t43.5 68q4 13 4 29z" />
    <glyph glyph-name="b" unicode="b" horiz-adv-x="497" 
d="M74 107v598h46v-306h2q46 91 154 91q80 0 131 -66.5t51 -179.5q0 -122 -57.5 -188t-133.5 -66q-101 0 -150 91h-3l-3 -81h-41q4 58 4 107zM120 288v-108q0 -20 4 -33q14 -58 52 -88t85 -30q72 0 111 60t39 154q0 87 -39 147.5t-109 60.5q-47 0 -86 -35t-52 -88
q-5 -20 -5 -40z" />
    <glyph glyph-name="c" unicode="c" horiz-adv-x="399" 
d="M358 55l12 -36q-51 -28 -122 -28q-94 0 -151.5 67t-57.5 178t62 182.5t162 71.5q71 0 108 -26l-16 -39q-41 24 -97 24q-82 0 -127 -61.5t-45 -150.5q0 -94 47 -150t123 -56q50 0 102 24z" />
    <glyph glyph-name="d" unicode="d" horiz-adv-x="491" 
d="M371 705h46v-597q0 -50 4 -108h-41l-3 83h-3q-18 -40 -56.5 -66.5t-93.5 -26.5q-80 0 -132.5 66t-52.5 177q0 119 55.5 188t137.5 69q48 0 84 -21.5t53 -56.5h2v293zM371 187v106q0 24 -4 41q-9 49 -45.5 83t-86.5 34q-69 0 -109 -61t-40 -153q0 -88 37.5 -148t108.5 -60
q45 0 82.5 30t52.5 90q4 16 4 38z" />
    <glyph glyph-name="e" unicode="e" horiz-adv-x="438" 
d="M399 249h-314q0 -116 46 -167t118 -51q70 0 116 25l11 -36q-48 -29 -133 -29q-95 0 -149.5 66.5t-54.5 175.5q0 117 54 187t140 70q49 0 84 -22t52 -57t24 -68t7 -65q0 -20 -1 -29zM87 286h265q2 68 -29.5 116.5t-95.5 48.5q-63 0 -98 -49.5t-42 -115.5z" />
    <glyph glyph-name="f" unicode="f" horiz-adv-x="241" 
d="M126 0h-46v442h-66v38h66v29q0 113 48 165q40 41 100 41q41 0 65 -15l-14 -37q-24 12 -55 12q-56 0 -77 -44.5t-21 -120.5v-30h117v-38h-117v-442z" />
    <glyph glyph-name="g" unicode="g" horiz-adv-x="491" 
d="M417 349v-280q0 -162 -58 -220q-54 -55 -147 -55q-86 0 -136 36l16 38q54 -35 127 -35q152 0 152 186v65h-2q-18 -37 -55.5 -60.5t-89.5 -23.5q-80 0 -132.5 66.5t-52.5 170.5q0 122 58.5 187.5t136.5 65.5q97 0 140 -84h2l2 74h43q-4 -66 -4 -131zM371 192v111
q0 27 -5 43q-14 45 -47 75t-84 30q-67 0 -108 -57.5t-41 -151.5q0 -91 39.5 -147t109.5 -56q42 0 77.5 26t51.5 77q7 24 7 50z" />
    <glyph glyph-name="h" unicode="h" horiz-adv-x="487" 
d="M74 0v705h46v-300h2q22 40 58 61q38 24 87 24q21 0 43 -7t47.5 -25t41.5 -58t16 -96v-304h-46v295q0 68 -27.5 111.5t-87.5 43.5q-45 0 -80 -29t-49 -76q-5 -16 -5 -44v-301h-46z" />
    <glyph glyph-name="i" unicode="i" horiz-adv-x="195" 
d="M120 0h-46v480h46v-480zM97 573h-1q-15 0 -25 11.5t-10 28.5t10.5 28.5t26.5 11.5t26 -11.5t10 -28.5t-10 -28.5t-27 -11.5z" />
    <glyph glyph-name="j" unicode="j" horiz-adv-x="200" 
d="M-34 -206l-7 38q62 7 90 41q17 24 24.5 63t7.5 124v420h46v-448q0 -70 -10 -113t-37 -74q-22 -24 -55.5 -37t-58.5 -14zM104 573h-1q-15 0 -25 11.5t-10 28.5t11 28.5t27 11.5q15 0 25 -11.5t10 -28.5t-10 -28.5t-27 -11.5z" />
    <glyph glyph-name="k" unicode="k" horiz-adv-x="391" 
d="M120 705v-456h2q32 41 41 51l153 180h55l-176 -200l199 -280h-55l-175 250l-44 -50v-200h-46v705h46z" />
    <glyph glyph-name="l" unicode="l" horiz-adv-x="199" 
d="M74 0v705h46v-705h-46z" />
    <glyph glyph-name="m" unicode="m" horiz-adv-x="748" 
d="M74 0v366q0 40 -4 114h43l3 -78h2q45 88 140 88q44 0 77.5 -26t47.5 -71h2q20 40 48 63q43 34 101 34q22 0 43.5 -7.5t45 -26.5t38.5 -60.5t15 -99.5v-296h-46v288q0 162 -112 162q-39 0 -70 -26.5t-43 -66.5q-7 -26 -7 -48v-309h-46v307q0 64 -27 103.5t-80 39.5
q-42 0 -74.5 -30.5t-44.5 -75.5q-6 -20 -6 -45v-299h-46z" />
    <glyph glyph-name="n" unicode="n" horiz-adv-x="487" 
d="M74 0v366q0 40 -4 114h43l3 -79h2q18 39 57 64t90 25q17 0 34.5 -4t39 -16.5t38 -32t27.5 -55t11 -81.5v-301h-46v293q0 69 -27 113t-90 44q-44 0 -79.5 -30t-47.5 -77q-5 -20 -5 -43v-300h-46z" />
    <glyph glyph-name="o" unicode="o" horiz-adv-x="478" 
d="M236 -10h-1q-84 0 -140 66t-56 181q0 120 59 186.5t144 66.5q87 0 142 -66.5t55 -180.5q0 -124 -61 -188.5t-142 -64.5zM237 29h1q68 0 111 63.5t43 149.5q0 47 -13.5 92t-50 81t-89.5 36q-52 0 -88 -34t-50.5 -80t-14.5 -98q0 -84 42 -147t109 -63z" />
    <glyph glyph-name="p" unicode="p" horiz-adv-x="497" 
d="M74 -196v524q0 72 -4 152h44l3 -83h2q49 93 155 93q81 0 132.5 -66t51.5 -178q0 -124 -56.5 -190t-139.5 -66q-96 0 -140 80h-2v-266h-46zM120 287v-102q0 -22 4 -38q14 -57 51.5 -87.5t84.5 -30.5q73 0 112 60t39 155q0 86 -39 146.5t-109 60.5q-47 0 -86.5 -35
t-51.5 -89q-5 -32 -5 -40z" />
    <glyph glyph-name="q" unicode="q" horiz-adv-x="490" 
d="M371 -196v270h-3q-17 -36 -54.5 -60t-89.5 -24q-79 0 -132 66t-53 177q0 126 59.5 191.5t138.5 65.5q98 0 137 -85h2l2 75h43q-4 -66 -4 -131v-545h-46zM371 186v107q0 24 -4 41q-10 49 -46 83t-85 34q-70 0 -110 -60t-40 -154q0 -88 37 -148t110 -60q43 0 78.5 27
t52.5 82q7 25 7 48z" />
    <glyph glyph-name="r" unicode="r" horiz-adv-x="272" 
d="M74 0v346q0 50 -4 134h43l2 -91h2q15 43 49 72t78 29q3 0 8.5 -0.5t7.5 -0.5v-46q-5 1 -18 1q-47 0 -79 -37t-40 -93q-3 -21 -3 -44v-270h-46z" />
    <glyph glyph-name="s" unicode="s" horiz-adv-x="341" 
d="M37 23l18 39q45 -31 97 -31q49 0 76 25t27 65q0 37 -20.5 61.5t-69.5 47.5q-115 53 -115 133q0 54 38.5 90.5t100.5 36.5q55 0 98 -29l-19 -38q-38 27 -85 27q-41 0 -64 -23.5t-23 -56.5t19.5 -53.5t68.5 -44.5q57 -26 87 -59t30 -84q0 -64 -42 -101t-110 -37
q-63 0 -112 32z" />
    <glyph glyph-name="t" unicode="t" horiz-adv-x="282" 
d="M91 566l46 19v-105h123v-38h-123v-316q0 -95 65 -95q31 0 46 6l6 -36q-23 -10 -59 -10q-52 0 -77 32q-27 32 -27 114v305h-75v38h75v86z" />
    <glyph glyph-name="u" unicode="u" horiz-adv-x="481" 
d="M407 480v-362q0 -48 4 -118h-43l-3 74h-2q-18 -33 -55.5 -58.5t-89.5 -25.5q-60 0 -103.5 46t-43.5 155v289h46v-280q0 -170 112 -170q46 0 79 28.5t46 64.5q7 26 7 51v306h46z" />
    <glyph glyph-name="v" unicode="v" horiz-adv-x="411" 
d="M16 480h48l102 -300q22 -60 39 -122h3q10 38 40 122l102 300h48l-174 -480h-40z" />
    <glyph glyph-name="w" unicode="w" horiz-adv-x="666" 
d="M21 480h47l75 -267q25 -91 38 -152h3q11 53 43 152l86 267h42l82 -263q26 -82 44 -156h3q10 51 40 153l77 266h47l-148 -480h-39l-84 269q-26 82 -43 157h-2q-15 -65 -45 -159l-87 -267h-40z" />
    <glyph glyph-name="x" unicode="x" horiz-adv-x="392" 
d="M21 480h51l74 -115q20 -31 50 -84h2q7 14 15.5 28t19 30.5t15.5 25.5l73 115h52l-153 -234l156 -246h-52l-76 121q-18 27 -54 90h-2q-13 -26 -53 -90l-75 -121h-52l159 245z" />
    <glyph glyph-name="y" unicode="y" horiz-adv-x="403" 
d="M13 480h49l110 -307q17 -50 32 -106h2q18 58 33 108l103 305h49l-121 -332q-45 -129 -76.5 -198t-74.5 -112q-41 -40 -80 -56l-18 39q46 21 80 59q45 51 70 113q5 15 5 23t-4 20z" />
    <glyph glyph-name="z" unicode="z" horiz-adv-x="369" 
d="M15 0v28l233 344q20 29 49 68v2h-261v38h316v-30l-233 -343q-24 -36 -46 -67v-2h279v-38h-337z" />
    <glyph glyph-name="braceleft" unicode="{" horiz-adv-x="260" 
d="M30 271v34q80 -1 80 79q0 20 -7 88q-9 52 -9 88q0 64 36.5 95t94.5 31h11v-36h-17q-44 -2 -63 -24t-19 -67q0 -28 8 -82t8 -81q1 -89 -64 -106v-2q65 -19 64 -109q0 -28 -8 -80q-8 -56 -8 -83q0 -88 82 -92h17v-36h-11q-58 0 -94.5 32t-36.5 100q0 29 8 87q8 56 8 85
q0 80 -80 79z" />
    <glyph glyph-name="bar" unicode="|" horiz-adv-x="205" 
d="M81 750h43v-1000h-43v1000z" />
    <glyph glyph-name="braceright" unicode="}" horiz-adv-x="260" 
d="M230 305v-34q-80 1 -80 -79q0 -35 9 -85q8 -58 8 -87q0 -68 -36.5 -100t-94.5 -32h-11v36h17q82 4 82 92q0 33 -9 83q-8 52 -8 80q-1 90 64 109v2q-65 17 -64 106q0 32 9 81q8 54 8 82q0 45 -19 67t-63 24h-17v36h11q58 0 94.5 -31t36.5 -95q0 -36 -9 -88q-8 -58 -8 -88
q0 -80 80 -79z" />
    <glyph glyph-name="asciitilde" unicode="~" horiz-adv-x="596" 
d="M99 226h-37q-4 54 25.5 88.5t77.5 34.5q43 0 137 -42q99 -42 138 -42q29 0 44 23t14 59h37q4 -61 -25.5 -92t-74.5 -31q-49 0 -141 41q-5 2 -23 10t-24 10.5t-21 8.5t-23.5 8t-20 4t-21.5 2q-30 0 -46.5 -21.5t-15.5 -60.5z" />
    <glyph glyph-name="uni00A0" unicode="&#xa0;" horiz-adv-x="200" 
 />
    <glyph glyph-name="exclamdown" unicode="&#xa1;" horiz-adv-x="200" 
d="M128 -194h-55l8 497h39zM100 489h1q17 0 27 -12t10 -31q0 -18 -10.5 -30t-27.5 -12t-27.5 12t-10.5 30q0 19 10.5 31t27.5 12z" />
    <glyph glyph-name="cent" unicode="&#xa2;" horiz-adv-x="449" 
d="M279 -12h-40v101q-73 8 -120 58q-56 61 -56 180q0 96 48.5 162t127.5 78v99h40v-97q60 0 102 -26l-17 -38q-39 26 -99 26q-72 0 -114 -61.5t-42 -143.5q0 -91 42.5 -145t110.5 -54q59 0 107 26l12 -34q-36 -26 -102 -30v-101z" />
    <glyph glyph-name="sterling" unicode="&#xa3;" horiz-adv-x="449" 
d="M415 0h-366v30q48 26 79 79t31 113q0 42 -6 92h-100v38h95q-14 87 -14 124q0 85 46.5 134.5t113.5 49.5q58 0 96 -24l-16 -36q-33 20 -84 20q-55 0 -82.5 -38t-27.5 -99q0 -60 13 -131h135v-38h-129q10 -90 -2 -141q-17 -76 -78 -130v-2h296v-41z" />
    <glyph glyph-name="currency" unicode="&#xa4;" horiz-adv-x="449" 
d="M224 524h1q67 0 107 -43l66 69l31 -31l-72 -67q33 -47 33 -119q0 -75 -32 -124l68 -68l-30 -31l-64 69q-43 -43 -109 -43q-30 0 -59.5 11t-47.5 30l-62 -67l-30 31l67 66q-35 48 -35 120q0 74 37 125l-69 67l31 31l62 -69q43 43 107 43zM224 486h-1q-57 0 -90 -44.5
t-33 -113.5q0 -73 37.5 -113.5t84.5 -40.5q51 -1 87.5 39.5t36.5 118.5q0 64 -32.5 109t-89.5 45z" />
    <glyph glyph-name="yen" unicode="&#xa5;" horiz-adv-x="449" 
d="M240 0h-45v190h-144v35h144v79h-144v35h128l-156 311h50l109 -224q27 -56 39 -85h3q11 35 38 88l115 221h48l-168 -311h129v-35h-146v-79h146v-35h-146v-190z" />
    <glyph glyph-name="brokenbar" unicode="&#xa6;" horiz-adv-x="205" 
d="M81 174h43v-350h-43v350zM81 674h43v-350h-43v350z" />
    <glyph glyph-name="section" unicode="&#xa7;" horiz-adv-x="460" 
d="M98 357v-1q0 -61 107 -103q78 -30 112 -55q44 32 44 93q0 69 -93 105q-84 32 -118 54q-52 -38 -52 -93zM365 650l-19 -35q-43 31 -103 31q-44 0 -77 -24t-33 -66q0 -23 9 -40t31 -30.5t38.5 -21t50.5 -19.5q69 -27 105.5 -59.5t36.5 -89.5q0 -69 -60 -120q35 -35 35 -86
q0 -68 -47.5 -105t-118.5 -37q-87 0 -133 39l19 35q47 -38 117 -38q51 0 85.5 26t34.5 73q0 41 -27 67.5t-100 54.5q-80 32 -116.5 64t-36.5 86q0 63 69 115q-34 26 -36 79q0 59 46.5 96t111.5 37q71 0 118 -32z" />
    <glyph glyph-name="dieresis" unicode="&#xa8;" 
d="M69 576h-1q-15 0 -25 11t-10 26t10.5 26t26.5 11q15 0 25 -11t10 -26t-10 -26t-26 -11zM230 576h-1q-15 0 -25 11t-10 26t10.5 26t26.5 11q15 0 25 -11t10 -26t-10 -26t-26 -11z" />
    <glyph glyph-name="copyright" unicode="&#xa9;" horiz-adv-x="677" 
d="M340 648h1q126 0 212.5 -90t86.5 -218q0 -130 -86.5 -220t-213.5 -90t-215 90.5t-88 219.5q0 128 88 218t215 90zM340 616h-1q-111 0 -186.5 -80t-75.5 -200q0 -116 75.5 -195t187.5 -79q110 -1 185 79t75 199q0 117 -75 196.5t-185 79.5zM474 494l-10 -31q-42 24 -99 24
q-74 0 -111.5 -42t-37.5 -108q0 -65 39 -108t112 -43q63 0 103 27l10 -29q-45 -31 -123 -31q-84 0 -133 51.5t-49 129.5q0 83 55.5 134.5t133.5 51.5q77 0 110 -26z" />
    <glyph glyph-name="ordfeminine" unicode="&#xaa;" horiz-adv-x="305" 
d="M266 265h-38l-4 44h-2q-33 -49 -95 -49q-44 0 -70 26t-26 67q0 54 50.5 85t139.5 28v13q0 28 -17.5 52t-59.5 24q-45 0 -77 -25l-13 28q41 32 97 32q110 0 110 -131v-118q0 -45 5 -76zM221 362v71q-148 5 -148 -78q0 -29 18.5 -44.5t44.5 -15.5q46 0 73 39q12 17 12 28z
" />
    <glyph glyph-name="guillemotleft" unicode="&#xab;" horiz-adv-x="375" 
d="M208 429l-130 -176l130 -177h-48l-130 177l131 176h47zM349 429l-130 -176l131 -177h-48l-130 177l130 176h47z" />
    <glyph glyph-name="logicalnot" unicode="&#xac;" horiz-adv-x="596" 
d="M40 385h516v-255h-42v216h-474v39z" />
    <glyph glyph-name="uni00AD" unicode="&#xad;" horiz-adv-x="296" 
d="M30 289h236v-41h-236v41z" />
    <glyph glyph-name="registered" unicode="&#xae;" horiz-adv-x="387" 
d="M165 507v-70h-30v166q28 5 57 5q34 0 52 -13q17 -12 17 -35q0 -28 -33 -39v-2q20 -8 28 -40q7 -34 12 -42h-31q-7 8 -13 44q-6 26 -39 26h-20zM165 582v-51h21q43 0 43 26q0 27 -40 27q-14 0 -24 -2zM194 682h1q67 0 113 -45.5t46 -111.5q0 -67 -46 -113.5t-114 -46.5
q-67 0 -113.5 46.5t-46.5 113.5q0 66 46.5 111.5t113.5 45.5zM194 654h-1q-53 0 -89 -37.5t-36 -91.5q0 -55 36.5 -93t90.5 -38q53 -1 88.5 37t35.5 93t-35.5 92.5t-89.5 37.5z" />
    <glyph glyph-name="macron" unicode="&#xaf;" 
d="M49 625h203v-38h-203v38z" />
    <glyph glyph-name="degree" unicode="&#xb0;" horiz-adv-x="289" 
d="M152 686h1q54 0 87 -36.5t33 -87.5q0 -55 -36.5 -91t-86.5 -36q-52 0 -86 36t-34 87q0 54 35.5 91t86.5 37zM151 653h-1q-38 0 -60 -28.5t-22 -66.5t24 -64t59 -26q36 0 60 26.5t24 66.5q0 36 -21.5 64t-62.5 28z" />
    <glyph glyph-name="plusminus" unicode="&#xb1;" horiz-adv-x="596" 
d="M277 567h42v-207h237v-39h-237v-216h-42v216h-237v39h237v207zM40 39h516v-39h-516v39z" />
    <glyph glyph-name="twosuperior" unicode="&#xb2;" horiz-adv-x="268" 
d="M7 435v22l56 56q129 127 129 203q0 35 -20.5 57t-59.5 22q-41 0 -78 -32l-15 28q41 39 103 39q57 0 85 -32t28 -74q0 -52 -33.5 -102t-97.5 -112l-36 -37v-2h174v-36h-235z" />
    <glyph glyph-name="threesuperior" unicode="&#xb3;" horiz-adv-x="261" 
d="M39 769l-14 31q44 30 95 30t77 -26t26 -65q0 -28 -18.5 -52.5t-51.5 -37.5v-2q37 -7 61.5 -34t24.5 -66q0 -48 -36.5 -82.5t-101.5 -34.5q-59 0 -96 26l14 33q33 -25 85 -25q46 0 69.5 24t22.5 57q0 42 -31.5 63t-79.5 21h-20v32h21q33 0 64 19.5t31 56.5q0 25 -17 42
t-49 17q-42 0 -76 -27z" />
    <glyph glyph-name="acute" unicode="&#xb4;" 
d="M203 685h66l-118 -136h-35z" />
    <glyph glyph-name="mu" unicode="&#xb5;" horiz-adv-x="483" 
d="M368 71h-3q-18 -31 -52.5 -55.5t-79.5 -24.5q-82 0 -114 61v-76q0 -129 11 -172h-42q-14 42 -14 161v515h46v-303q0 -63 27 -104.5t87 -41.5q46 0 78 28t45 64q7 26 7 51v306h46v-374q0 -41 9 -59t34 -19l-6 -37q-9 -1 -16 -1q-25 0 -43 19t-20 62z" />
    <glyph glyph-name="paragraph" unicode="&#xb6;" horiz-adv-x="460" 
d="M269 -50h-40v319h-7q-70 0 -127 49.5t-60 137.5q-1 42 11.5 79.5t40 69.5t78 50.5t118.5 18.5q58 0 94 -6v-718h-40v686h-68v-686z" />
    <glyph glyph-name="periodcentered" unicode="&#xb7;" horiz-adv-x="173" 
d="M86 219h-1q-16 0 -27 12.5t-11 29.5q0 19 11 31t28 12q18 0 28.5 -12t10.5 -31q0 -18 -10.5 -30t-28.5 -12z" />
    <glyph glyph-name="cedilla" unicode="&#xb8;" 
d="M147 2h36l-34 -56q28 -4 47.5 -22.5t19.5 -45.5q0 -38 -25.5 -57t-64.5 -19q-33 0 -60 17l12 34q22 -14 52 -14q20 0 33 8t12 26q0 39 -75 46z" />
    <glyph glyph-name="onesuperior" unicode="&#xb9;" horiz-adv-x="205" 
d="M140 436h-40v349h-2l-70 -37l-8 34l85 43h35v-389z" />
    <glyph glyph-name="ordmasculine" unicode="&#xba;" horiz-adv-x="324" 
d="M164 590h1q64 0 101.5 -44t37.5 -120q-1 -81 -43 -123.5t-99 -42.5q-61 0 -101 44t-40 119q0 76 42.5 121.5t100.5 45.5zM162 556h-1q-47 0 -72.5 -40.5t-25.5 -91.5q0 -53 29 -91.5t70 -38.5q45 0 72.5 38t27.5 93q0 50 -24.5 90.5t-75.5 40.5z" />
    <glyph glyph-name="guillemotright" unicode="&#xbb;" horiz-adv-x="375" 
d="M156 253l-131 176h47l131 -176l-130 -177h-47zM297 253l-130 176h47l131 -176l-130 -177h-48z" />
    <glyph glyph-name="onequarter" unicode="&#xbc;" horiz-adv-x="674" 
d="M165 265h-40v350h-2l-70 -37l-8 34l85 43h35v-390zM151 -10h-39l371 670h39zM581 0h-40v112h-186v23l189 260h37v-250h60v-33h-60v-112zM541 145v138q0 39 3 62h-2q-17 -30 -34 -57l-102 -141v-2h135z" />
    <glyph glyph-name="onehalf" unicode="&#xbd;" horiz-adv-x="674" 
d="M149 265h-40v350h-2l-70 -37l-8 34l85 43h35v-390zM133 -10h-39l370 670h39zM390 0v22l56 56q64 63 96.5 111t32.5 91q0 36 -20.5 58t-59.5 22q-41 0 -78 -32l-15 28q41 39 103 39q57 0 85 -32t28 -75q0 -51 -33 -99.5t-98 -113.5l-36 -37v-2h174v-36h-235z" />
    <glyph glyph-name="threequarters" unicode="&#xbe;" horiz-adv-x="674" 
d="M65 599l-14 30q42 31 94 31t78 -26t26 -65q0 -28 -18.5 -52.5t-51.5 -37.5v-2q37 -6 61.5 -33.5t24.5 -66.5q0 -48 -36.5 -82.5t-101.5 -34.5q-59 0 -96 26l14 33q36 -25 85 -25q46 0 69.5 24t22.5 57q0 42 -31.5 63t-79.5 21h-20v32h21q33 0 64 19.5t31 56.5
q0 25 -16.5 42t-49.5 17q-42 0 -76 -27zM185 -10h-39l370 670h40zM590 0h-40v112h-187v23l190 260h37v-250h60v-33h-60v-112zM550 145v138q0 39 3 62h-2q-22 -40 -34 -58l-104 -140v-2h137z" />
    <glyph glyph-name="questiondown" unicode="&#xbf;" horiz-adv-x="355" 
d="M211 489h1q17 0 27.5 -12.5t10.5 -31.5q0 -18 -11 -30.5t-28 -12.5t-28 12.5t-11 30.5q0 20 10.5 32t28.5 12zM187 305h43l3 -22q15 -94 -55 -189q-39 -52 -56.5 -87.5t-17.5 -74.5q0 -48 26.5 -73.5t74.5 -25.5q54 0 92 28l16 -35q-20 -15 -53 -25t-64 -10
q-68 0 -105 40t-37 98q0 45 20 84.5t63 96.5q33 45 45 83.5t7 85.5z" />
    <glyph glyph-name="Agrave" unicode="&#xc0;" horiz-adv-x="536" 
d="M388 235h-237l-74 -235h-47l218 674h45l218 -674h-48zM164 274h211l-71 215q-18 58 -33 129h-3q-10 -47 -33 -128zM143 820h70l99 -110h-40z" />
    <glyph glyph-name="Aacute" unicode="&#xc1;" horiz-adv-x="536" 
d="M388 235h-237l-74 -235h-47l218 674h45l218 -674h-48zM164 274h211l-71 215q-18 58 -33 129h-3q-10 -47 -33 -128zM328 820h71l-129 -110h-41z" />
    <glyph glyph-name="Acircumflex" unicode="&#xc2;" horiz-adv-x="536" 
d="M388 235h-237l-74 -235h-47l218 674h45l218 -674h-48zM164 274h211l-71 215q-18 58 -33 129h-3q-10 -47 -33 -128zM252 813h40l102 -103h-52l-69 68h-2l-68 -68h-50z" />
    <glyph glyph-name="Atilde" unicode="&#xc3;" horiz-adv-x="536" 
d="M388 235h-237l-74 -235h-47l218 674h45l219 -674h-48zM165 274h210l-70 215q-16 50 -34 129h-3q-13 -64 -33 -128zM193 717h-32q0 36 16 60t44 24q20 0 53 -20q34 -17 48 -17q25 0 27 37h32q0 -79 -60 -79q-19 0 -55 19q-34 19 -46 19q-22 0 -27 -43z" />
    <glyph glyph-name="Adieresis" unicode="&#xc4;" horiz-adv-x="536" 
d="M389 235h-238l-74 -235h-47l219 674h44l219 -674h-48zM165 274h210l-70 215q-16 50 -34 129h-3q-13 -64 -33 -128zM189 723h-1q-16 0 -25.5 11t-9.5 28q0 15 10.5 26.5t25.5 11.5q16 0 26 -11t10 -27q0 -17 -9.5 -28t-26.5 -11zM354 723h-1q-16 0 -25.5 11t-9.5 28
q0 15 10.5 26.5t25.5 11.5q16 0 26 -11t10 -27q0 -17 -9.5 -28t-26.5 -11z" />
    <glyph glyph-name="Aring" unicode="&#xc5;" horiz-adv-x="536" 
d="M388 235h-237l-74 -235h-47l219 674h44l219 -674h-48zM164 274h211l-70 215q-16 50 -34 129h-3q-13 -64 -33 -128zM273 866h1q38 0 63 -25t25 -61q0 -35 -26 -59t-63 -24q-39 0 -64.5 24t-25.5 59q0 36 25.5 61t64.5 25zM272 838h-1q-22 0 -35.5 -17t-13.5 -41
q0 -21 14.5 -37.5t35.5 -16.5q22 0 36.5 16t14.5 40t-14.5 40t-36.5 16z" />
    <glyph glyph-name="AE" unicode="&#xc6;" horiz-adv-x="676" 
d="M50 0h-47l286 674h334v-40h-261l25 -260h227v-40h-222l30 -294h225v-40h-266l-28 263h-190zM179 301h171l-20 218q0 4 -4.5 52t-5.5 69h-5q-7 -19 -23.5 -60t-22.5 -57z" />
    <glyph glyph-name="Ccedilla" unicode="&#xc7;" horiz-adv-x="523" 
d="M465 58l13 -38q-53 -28 -153 -29l-27 -44q28 -4 47.5 -23.5t19.5 -46.5q0 -37 -26 -55.5t-63 -18.5q-32 0 -62 17l13 34q23 -14 52 -14q44 0 44 34q0 38 -75 46l41 73q-109 11 -180.5 95.5t-71.5 243.5q0 163 84.5 257t220.5 94q86 0 133 -25l-15 -40q-52 25 -120 25
q-115 0 -185 -80t-70 -229q0 -146 67.5 -224.5t183.5 -78.5q78 0 129 27z" />
    <glyph glyph-name="Egrave" unicode="&#xc8;" horiz-adv-x="425" 
d="M364 375v-40h-242v-295h272v-40h-318v674h303v-40h-257v-259h242zM104 820h70l99 -110h-40z" />
    <glyph glyph-name="Eacute" unicode="&#xc9;" horiz-adv-x="425" 
d="M364 375v-40h-242v-295h272v-40h-318v674h303v-40h-257v-259h242zM294 820h71l-129 -110h-40z" />
    <glyph glyph-name="Ecircumflex" unicode="&#xca;" horiz-adv-x="425" 
d="M364 375v-40h-242v-295h272v-40h-318v674h303v-40h-257v-259h242zM204 813h40l101 -103h-52l-68 68h-2l-69 -68h-49z" />
    <glyph glyph-name="Edieresis" unicode="&#xcb;" horiz-adv-x="425" 
d="M364 375v-40h-242v-295h272v-40h-318v674h303v-40h-257v-259h242zM144 728h-1q-16 0 -25.5 10.5t-9.5 27.5q0 16 10.5 27.5t25.5 11.5q16 0 26 -11t10 -28t-9.5 -27.5t-26.5 -10.5zM308 728h-1q-16 0 -25.5 10.5t-9.5 27.5q0 16 10.5 27.5t25.5 11.5q16 0 26 -11t10 -28
t-9.5 -27.5t-26.5 -10.5z" />
    <glyph glyph-name="Igrave" unicode="&#xcc;" horiz-adv-x="198" 
d="M76 674h46v-674h-46v674zM-31 820h71l99 -110h-41z" />
    <glyph glyph-name="Iacute" unicode="&#xcd;" horiz-adv-x="198" 
d="M76 674h46v-674h-46v674zM156 820h71l-129 -110h-41z" />
    <glyph glyph-name="Icircumflex" unicode="&#xce;" horiz-adv-x="198" 
d="M76 674h46v-674h-46v674zM79 813h40l101 -103h-52l-68 68h-2l-68 -68h-50z" />
    <glyph glyph-name="Idieresis" unicode="&#xcf;" horiz-adv-x="198" 
d="M76 674h46v-674h-46v674zM18 727h-1q-16 0 -25.5 11t-9.5 28q0 15 10.5 26.5t25.5 11.5q16 0 26 -11t10 -27q0 -17 -9.5 -28t-26.5 -11zM182 727h-1q-16 0 -25.5 11t-9.5 28q0 15 10.5 26.5t25.5 11.5q16 0 26 -11t10 -27q0 -17 -9.5 -28t-26.5 -11z" />
    <glyph glyph-name="Eth" unicode="&#xd0;" horiz-adv-x="584" 
d="M-3 326v38h84v302q68 14 146 14q157 0 233 -78q87 -84 87 -249q0 -168 -84 -263q-84 -96 -256 -96q-78 0 -126 6v326h-84zM309 364v-38h-182v-288q23 -4 86 -4q139 0 212.5 79.5t73.5 239.5q1 136 -67 212t-207 76q-55 0 -98 -9v-268h182z" />
    <glyph glyph-name="Ntilde" unicode="&#xd1;" horiz-adv-x="577" 
d="M120 0h-45v674h45l225 -383q78 -139 117 -226l2 1q-8 117 -8 284v324h45v-674h-44l-223 384q-86 151 -118 226l-3 -1q7 -104 7 -285v-324zM216 717h-32q0 36 16 60t44 24q20 0 53 -20q34 -17 48 -17q25 0 27 37h32q0 -79 -60 -79q-19 0 -55 19q-34 19 -46 19
q-22 0 -27 -43z" />
    <glyph glyph-name="Ograve" unicode="&#xd2;" horiz-adv-x="597" 
d="M295 -10h-1q-111 0 -184 90.5t-73 251.5q0 166 75.5 259t191.5 93q113 0 184.5 -90.5t71.5 -251.5q0 -172 -76.5 -262t-188.5 -90zM297 30h1q69 0 119 46t72.5 114.5t22.5 149.5q0 54 -12.5 106t-37 97.5t-67 73t-96.5 27.5q-72 0 -122 -47.5t-71 -115.5t-21 -148
q0 -76 22.5 -143t72 -113.5t117.5 -46.5zM170 823h71l99 -110h-41z" />
    <glyph glyph-name="Oacute" unicode="&#xd3;" horiz-adv-x="597" 
d="M295 -10h-1q-111 0 -184 90.5t-73 251.5q0 166 75.5 259t191.5 93q113 0 184.5 -90.5t71.5 -251.5q0 -172 -76.5 -262t-188.5 -90zM297 30h1q69 0 119 46t72.5 114.5t22.5 149.5q0 54 -12.5 106t-37 97.5t-67 73t-96.5 27.5q-72 0 -122 -47.5t-71 -115.5t-21 -148
q0 -76 22.5 -143t72 -113.5t117.5 -46.5zM355 823h71l-129 -110h-41z" />
    <glyph glyph-name="Ocircumflex" unicode="&#xd4;" horiz-adv-x="597" 
d="M295 -10h-1q-111 0 -184 90.5t-73 251.5q0 166 75.5 259t191.5 93q113 0 184.5 -90.5t71.5 -251.5q0 -172 -76.5 -262t-188.5 -90zM297 30h1q69 0 119 46t72.5 114.5t22.5 149.5q0 54 -12.5 106t-37 97.5t-67 73t-96.5 27.5q-72 0 -122 -47.5t-71 -115.5t-21 -148
q0 -76 22.5 -143t72 -113.5t117.5 -46.5zM279 816h40l101 -103h-52l-68 68h-2l-69 -68h-50z" />
    <glyph glyph-name="Otilde" unicode="&#xd5;" horiz-adv-x="597" 
d="M295 -10h-1q-111 0 -184 90.5t-73 251.5q0 166 75.5 259t190.5 93q113 0 185 -90.5t72 -251.5q0 -171 -77 -261.5t-188 -90.5zM297 30h1q69 0 119 46t72.5 114.5t22.5 149.5q0 74 -21 140.5t-71 115t-121 48.5t-121 -47.5t-71.5 -116t-21.5 -147.5q0 -76 22.5 -143
t72 -113.5t117.5 -46.5zM221 719h-32q0 36 16 60t44 24q20 0 53 -20q32 -17 47 -17q25 0 27 37h32q0 -79 -60 -79q-19 0 -54 19q-34 19 -46 19q-22 0 -27 -43z" />
    <glyph glyph-name="Odieresis" unicode="&#xd6;" horiz-adv-x="597" 
d="M295 -10h-1q-111 0 -184 90.5t-73 251.5q0 166 75.5 259t190.5 93q113 0 185 -90.5t72 -251.5q0 -171 -77 -261.5t-188 -90.5zM297 30h1q69 0 119 46t72.5 114.5t22.5 149.5q0 74 -21 140.5t-71 115t-121 48.5q-72 0 -122 -47.5t-71 -115.5t-21 -148q0 -120 56 -211.5
t156 -91.5zM216 727h-1q-16 0 -25.5 11t-9.5 28q0 15 10.5 26.5t25.5 11.5q16 0 26 -11t10 -27q0 -17 -9.5 -28t-26.5 -11zM381 727h-1q-16 0 -25.5 11t-9.5 28q0 15 10.5 26.5t25.5 11.5q16 0 26 -11t10 -27q0 -17 -9.5 -28t-26.5 -11z" />
    <glyph glyph-name="multiply" unicode="&#xd7;" horiz-adv-x="596" 
d="M40 496l29 30l229 -234l229 234l29 -30l-229 -233l228 -233l-29 -30l-228 233l-229 -233l-29 30l229 233z" />
    <glyph glyph-name="Oslash" unicode="&#xd8;" horiz-adv-x="597" 
d="M82 -28l-28 21l58 90q-75 93 -75 250q0 166 76 258.5t188 92.5q89 0 158 -60l52 78l31 -20l-57 -87q75 -94 75 -252q0 -89 -22 -158.5t-59.5 -111t-83 -62.5t-95.5 -21q-96 0 -163 63zM139 127l295 458q-57 59 -134 59q-54 0 -97 -28t-67.5 -73t-37.5 -98t-13 -108
q0 -115 52 -211zM458 551l-297 -459q54 -62 137 -62q69 0 119 47t72.5 115.5t22.5 147.5q0 120 -52 210z" />
    <glyph glyph-name="Ugrave" unicode="&#xd9;" horiz-adv-x="567" 
d="M76 674h46v-423q0 -114 43.5 -167.5t114.5 -53.5q78 0 122 54.5t44 166.5v423h46v-418q0 -139 -59.5 -202.5t-154.5 -63.5q-89 0 -145.5 60.5t-56.5 195.5v428zM156 820h71l99 -110h-40z" />
    <glyph glyph-name="Uacute" unicode="&#xda;" horiz-adv-x="567" 
d="M76 674h46v-423q0 -114 43.5 -167.5t114.5 -53.5q78 0 122 54.5t44 166.5v423h46v-418q0 -139 -59.5 -202.5t-154.5 -63.5q-89 0 -145.5 60.5t-56.5 195.5v428zM351 820h71l-129 -110h-41z" />
    <glyph glyph-name="Ucircumflex" unicode="&#xdb;" horiz-adv-x="567" 
d="M76 674h46v-423q0 -114 43.5 -167.5t114.5 -53.5q78 0 122 54.5t44 166.5v423h46v-418q0 -139 -59.5 -202.5t-154.5 -63.5q-89 0 -145.5 60.5t-56.5 195.5v428zM266 813h40l102 -103h-52l-69 68h-2l-68 -68h-50z" />
    <glyph glyph-name="Udieresis" unicode="&#xdc;" horiz-adv-x="567" 
d="M76 674h46v-423q0 -114 43.5 -167.5t114.5 -53.5q78 0 122 54.5t44 166.5v423h46v-418q0 -139 -60 -202.5t-154 -63.5q-89 0 -145.5 60.5t-56.5 195.5v428zM202 727h-1q-16 0 -25.5 11t-9.5 28q0 15 10.5 26.5t25.5 11.5q16 0 26 -11t10 -27q0 -17 -9.5 -28t-26.5 -11z
M367 727h-1q-16 0 -25.5 11t-9.5 28q0 15 10.5 26.5t25.5 11.5q16 0 26 -11t10 -27q0 -17 -9.5 -28t-26.5 -11z" />
    <glyph glyph-name="Yacute" unicode="&#xdd;" horiz-adv-x="469" 
d="M259 0h-46v295l-195 379h52l98 -193q59 -122 70 -149h2q15 37 73 150l101 192h51l-206 -379v-295zM305 815h71l-130 -110h-40z" />
    <glyph glyph-name="Thorn" unicode="&#xde;" horiz-adv-x="459" 
d="M75 0v674h46v-140q43 8 90 8q106 0 160 -54q47 -47 47 -121q0 -93 -63 -146t-166 -53q-33 0 -68 5v-173h-46zM121 495v-282q26 -6 70 -6q85 0 132.5 40.5t47.5 113.5q0 70 -43.5 106t-121.5 36q-51 0 -85 -8z" />
    <glyph glyph-name="germandbls" unicode="&#xdf;" horiz-adv-x="479" 
d="M120 0h-46v464q0 149 66 209q45 42 116 42q59 0 103 -39.5t44 -116.5q0 -46 -23 -83q-79 -30 -79 -88q0 -19 9.5 -38t17.5 -28t31 -34q39 -39 58.5 -72t19.5 -78q0 -67 -44.5 -107.5t-114.5 -40.5q-57 0 -97 21l13 39q44 -21 86 -21q52 0 82 29t30 73q0 65 -64 124
q-37 36 -54.5 63.5t-17.5 62.5q0 81 93 122q9 23 9 49q0 63 -31.5 93t-80.5 30q-62 0 -94 -51t-32 -166v-458z" />
    <glyph glyph-name="agrave" unicode="&#xe0;" horiz-adv-x="416" 
d="M346 311v-199q0 -70 6 -112h-42l-6 64h-3q-19 -31 -53.5 -52.5t-80.5 -21.5q-61 0 -95.5 38.5t-34.5 93.5q0 84 68 129.5t195 44.5v14q0 27 -3.5 47.5t-14 44t-34 36t-59.5 12.5q-61 0 -105 -32l-13 34q53 38 125 38q150 0 150 -179zM300 153v104q-215 5 -215 -129
q0 -49 25 -74t62 -25q48 0 80.5 27t43.5 68q4 13 4 29zM78 685h65l87 -136h-35z" />
    <glyph glyph-name="aacute" unicode="&#xe1;" horiz-adv-x="416" 
d="M346 311v-199q0 -70 6 -112h-42l-6 64h-3q-19 -31 -53.5 -52.5t-80.5 -21.5q-61 0 -95.5 38.5t-34.5 93.5q0 84 68 129.5t195 44.5v14q0 27 -3.5 47.5t-14 44t-34 36t-59.5 12.5q-61 0 -105 -32l-13 34q53 38 125 38q150 0 150 -179zM300 153v104q-215 5 -215 -129
q0 -49 25 -74t62 -25q48 0 80.5 27t43.5 68q4 13 4 29zM254 685h65l-117 -136h-35z" />
    <glyph glyph-name="acircumflex" unicode="&#xe2;" horiz-adv-x="416" 
d="M346 311v-199q0 -70 6 -112h-42l-6 64h-3q-19 -31 -53.5 -52.5t-80.5 -21.5q-61 0 -95.5 38.5t-34.5 93.5q0 84 68 129.5t195 44.5v14q0 27 -3.5 47.5t-14 44t-34 36t-59.5 12.5q-61 0 -105 -32l-13 34q53 38 125 38q150 0 150 -179zM300 153v104q-215 5 -215 -129
q0 -49 25 -74t62 -25q48 0 80.5 27t43.5 68q4 13 4 29zM186 685h33l88 -136h-45l-58 97h-2l-59 -97h-43z" />
    <glyph glyph-name="atilde" unicode="&#xe3;" horiz-adv-x="416" 
d="M346 311v-199q0 -70 6 -112h-42l-6 64h-3q-19 -31 -53.5 -52.5t-80.5 -21.5q-61 0 -95.5 38.5t-34.5 93.5q0 84 68 129.5t195 44.5v14q0 27 -3.5 47.5t-14 44t-34 36t-59.5 12.5q-61 0 -105 -32l-13 34q53 38 124 38q151 0 151 -179zM300 153v104q-215 5 -215 -129
q0 -49 25 -74t62 -25q48 0 80.5 27t43.5 68q4 13 4 29zM133 570h-33q-1 38 15 61.5t44 23.5q13 0 55 -21q32 -16 42 -16q25 0 28 40h32q0 -82 -59 -82q-20 0 -54 19q-31 18 -43 18q-24 0 -27 -43z" />
    <glyph glyph-name="adieresis" unicode="&#xe4;" horiz-adv-x="416" 
d="M346 311v-199q0 -70 6 -112h-42l-6 64h-3q-19 -31 -53.5 -52.5t-80.5 -21.5q-61 0 -95.5 38.5t-34.5 93.5q0 84 68 129.5t195 44.5v14q0 27 -3.5 47.5t-14 44t-34 36t-59.5 12.5q-61 0 -105 -32l-13 34q53 38 125 38q150 0 150 -179zM300 153v104q-215 5 -215 -129
q0 -49 25 -74t62 -25q48 0 80.5 27t43.5 68q4 13 4 29zM127 576h-1q-15 0 -25 11t-10 26t10.5 26t26.5 11q15 0 25 -11t10 -26t-10 -26t-26 -11zM289 576h-1q-15 0 -25 11t-10 26t10.5 26t26.5 11q15 0 25 -11t10 -26t-10 -26t-26 -11z" />
    <glyph glyph-name="aring" unicode="&#xe5;" horiz-adv-x="416" 
d="M346 311v-199q0 -70 6 -112h-42l-6 64h-3q-19 -31 -53.5 -52.5t-80.5 -21.5q-61 0 -95.5 38.5t-34.5 93.5q0 84 68 129.5t195 44.5v14q0 27 -3.5 47.5t-14 44t-34 36t-59.5 12.5q-61 0 -105 -32l-13 34q53 38 124 38q151 0 151 -179zM300 153v104q-215 5 -215 -129
q0 -49 25 -74t62 -25q48 0 80.5 27t43.5 68q4 13 4 29zM206 710h1q37 0 63 -26t26 -63q0 -36 -27 -61.5t-63 -25.5q-39 0 -65.5 25.5t-26.5 61.5q0 37 26 63t66 26zM205 680h-1q-23 0 -37 -17t-14 -42q0 -22 15 -39.5t37 -17.5q24 0 39 17t15 41q0 25 -15 41.5t-39 16.5z
" />
    <glyph glyph-name="ae" unicode="&#xe6;" horiz-adv-x="683" 
d="M644 253h-299q-3 -113 39.5 -168t114.5 -55q68 0 113 26l12 -36q-51 -30 -132 -30q-57 0 -102.5 30t-61.5 83h-2q-16 -53 -59 -83t-99 -30q-62 0 -96.5 37.5t-34.5 91.5q0 83 68.5 128t196.5 44v26q0 20 -4.5 40t-15 42.5t-34.5 37t-58 14.5q-61 0 -106 -33l-15 34
q57 38 125 38q116 0 138 -109h1q20 51 60 80t92 29q47 0 81 -22.5t50 -58t23 -67t7 -60.5q0 -20 -2 -29zM302 163v90q-218 5 -218 -129q0 -45 25.5 -70t63.5 -25q49 -1 81.5 27t43.5 72q4 16 4 35zM346 291h252q2 62 -29 111t-88 49q-61 0 -96.5 -49.5t-38.5 -110.5z" />
    <glyph glyph-name="ccedilla" unicode="&#xe7;" horiz-adv-x="398" 
d="M359 55l13 -36q-49 -27 -118 -28l-28 -45q29 -4 48.5 -22.5t19.5 -45.5q0 -37 -26 -56.5t-64 -19.5q-34 0 -61 17l13 34q21 -14 52 -14q45 0 45 35q-1 39 -75 46l41 73q-82 11 -131 76t-49 167q0 111 62.5 182.5t162.5 71.5q69 0 108 -26l-16 -39q-44 24 -97 24
q-83 0 -128 -61.5t-45 -150.5q0 -94 47 -150t123 -56q53 0 103 24z" />
    <glyph glyph-name="egrave" unicode="&#xe8;" horiz-adv-x="438" 
d="M399 249h-314q0 -116 46 -167t118 -51q70 0 116 25l11 -36q-48 -29 -133 -29q-95 0 -149.5 66.5t-54.5 175.5q0 117 54 187t140 70q49 0 84 -22t52 -57t24 -68t7 -65q0 -20 -1 -29zM87 286h265q2 68 -29.5 116.5t-95.5 48.5q-63 0 -98 -49.5t-42 -115.5zM120 685h67
l87 -136h-36z" />
    <glyph glyph-name="eacute" unicode="&#xe9;" horiz-adv-x="438" 
d="M399 249h-314q0 -116 46 -167t118 -51q70 0 116 25l11 -36q-48 -29 -133 -29q-95 0 -149.5 66.5t-54.5 175.5q0 117 54 187t140 70q49 0 84 -22t52 -57t24 -68t7 -65q0 -20 -1 -29zM87 286h265q2 68 -29.5 116.5t-95.5 48.5q-63 0 -98 -49.5t-42 -115.5zM283 685h66
l-118 -136h-35z" />
    <glyph glyph-name="ecircumflex" unicode="&#xea;" horiz-adv-x="438" 
d="M399 249h-314q0 -116 46 -167t118 -51q70 0 116 25l11 -36q-48 -29 -133 -29q-95 0 -149.5 66.5t-54.5 175.5q0 117 54 187t140 70q49 0 84 -22t52 -57t24 -68t7 -65q0 -20 -1 -29zM87 286h265q2 68 -29.5 116.5t-95.5 48.5q-63 0 -98 -49.5t-42 -115.5zM214 685h34
l88 -136h-45l-59 97h-2l-59 -97h-43z" />
    <glyph glyph-name="edieresis" unicode="&#xeb;" horiz-adv-x="438" 
d="M399 249h-314q0 -116 46 -167t118 -51q70 0 116 25l11 -36q-48 -29 -133 -29q-95 0 -149.5 67t-54.5 175q0 117 54 187t140 70q49 0 84 -22t52 -57t24 -68t7 -65q0 -20 -1 -29zM87 286h265q2 69 -29.5 117t-96.5 48q-62 0 -97 -49.5t-42 -115.5zM155 576h-1q-15 0 -25 11
t-10 26t10.5 26t26.5 11q15 0 25 -11t10 -26t-10 -26t-26 -11zM317 576h-1q-15 0 -25 11t-10 26t10.5 26t26.5 11q15 0 25 -11t10 -26t-10 -26t-26 -11z" />
    <glyph glyph-name="igrave" unicode="&#xec;" horiz-adv-x="195" 
d="M120 0h-46v480h46v-480zM-28 685h65l87 -136h-35z" />
    <glyph glyph-name="iacute" unicode="&#xed;" horiz-adv-x="195" 
d="M120 0h-46v480h46v-480zM145 685h66l-118 -136h-35z" />
    <glyph glyph-name="icircumflex" unicode="&#xee;" horiz-adv-x="195" 
d="M120 0h-46v480h46v-480zM80 685h33l88 -136h-45l-59 97h-2l-58 -97h-43z" />
    <glyph glyph-name="idieresis" unicode="&#xef;" horiz-adv-x="195" 
d="M120 0h-46v480h46v-480zM17 576h-1q-15 0 -25 11t-10 26t10.5 26t26.5 11q15 0 25 -11t10 -26t-10 -26t-26 -11zM178 576h-1q-15 0 -25 11t-10 26t10.5 26t26.5 11q15 0 25 -11t10 -26t-10 -26t-26 -11z" />
    <glyph glyph-name="eth" unicode="&#xf0;" horiz-adv-x="470" 
d="M231 29h1q69 0 109 62.5t40 149.5q0 104 -34 155q-39 55 -113 55q-51 0 -86.5 -36.5t-48.5 -82t-13 -94.5q0 -84 40.5 -146.5t104.5 -62.5zM107 520l-14 32l112 57q-33 30 -101 73l23 33q69 -43 117 -85l112 59l16 -32l-100 -53q75 -69 115 -152q42 -92 42 -205
q0 -127 -59 -192t-140 -65q-83 0 -137 66t-54 180q0 118 58 186t136 68q67 0 113 -46l2 3q-41 75 -114 137z" />
    <glyph glyph-name="ntilde" unicode="&#xf1;" horiz-adv-x="487" 
d="M74 0v366q0 40 -4 114h43l3 -79h2q19 39 58 64t90 25q17 0 34 -4t38.5 -16.5t38 -32t27.5 -55t11 -81.5v-301h-46v293q0 69 -27 113t-89 44q-44 0 -79.5 -30t-48.5 -77q-5 -20 -5 -43v-300h-46zM169 570h-33q-1 38 15 61.5t44 23.5q13 0 55 -21q32 -16 42 -16q25 0 28 40
h32q0 -82 -59 -82q-20 0 -54 19q-31 18 -43 18q-24 0 -27 -43z" />
    <glyph glyph-name="ograve" unicode="&#xf2;" horiz-adv-x="478" 
d="M236 -10h-1q-84 0 -140 66t-56 181q0 120 59 186.5t144 66.5q87 0 142 -66.5t55 -180.5q0 -124 -61 -188.5t-142 -64.5zM237 29h1q68 0 111 63.5t43 149.5q0 47 -13.5 92t-50 81t-89.5 36q-52 0 -88 -34t-50.5 -80t-14.5 -98q0 -84 42 -147t109 -63zM129 685h66l87 -136
h-36z" />
    <glyph glyph-name="oacute" unicode="&#xf3;" horiz-adv-x="478" 
d="M236 -10h-1q-84 0 -140 66t-56 181q0 120 59 186.5t144 66.5q87 0 142 -66.5t55 -180.5q0 -124 -61 -188.5t-142 -64.5zM237 29h1q68 0 111 63.5t43 149.5q0 47 -13.5 92t-50 81t-89.5 36q-52 0 -88 -34t-50.5 -80t-14.5 -98q0 -84 42 -147t109 -63zM285 685h66
l-118 -136h-35z" />
    <glyph glyph-name="ocircumflex" unicode="&#xf4;" horiz-adv-x="478" 
d="M236 -10h-1q-84 0 -140 66t-56 181q0 120 59 186.5t144 66.5q87 0 142 -66.5t55 -180.5q0 -124 -61 -188.5t-142 -64.5zM237 29h1q68 0 111 63.5t43 149.5q0 47 -13.5 92t-50 81t-89.5 36q-52 0 -88 -34t-50.5 -80t-14.5 -98q0 -84 42 -147t109 -63zM222 685h33l88 -136
h-45l-59 97h-2l-59 -97h-43z" />
    <glyph glyph-name="otilde" unicode="&#xf5;" horiz-adv-x="478" 
d="M236 -10h-1q-84 0 -140 66t-56 181q0 120 59 186.5t144 66.5q87 0 142 -66.5t55 -180.5q0 -124 -61 -188.5t-142 -64.5zM237 29h1q68 0 111 63.5t43 149.5q0 47 -13.5 92t-49.5 81t-89 36q-52 0 -88 -34t-51 -80t-15 -98q0 -84 42.5 -147t108.5 -63zM165 570h-33
q-1 38 15 61.5t43 23.5q14 0 56 -21q30 -16 41 -16q25 0 28 40h32q0 -82 -59 -82q-19 0 -53 19q-31 18 -44 18q-23 0 -26 -43z" />
    <glyph glyph-name="odieresis" unicode="&#xf6;" horiz-adv-x="478" 
d="M236 -10h-1q-84 0 -140 66t-56 181q0 120 59.5 186.5t143.5 66.5q87 0 142 -66.5t55 -180.5q0 -124 -61 -188.5t-142 -64.5zM238 29h1q67 0 110 63.5t43 149.5q0 47 -13.5 92t-49.5 81t-89 36q-52 0 -88 -34t-51 -80t-15 -98q0 -84 42.5 -147t109.5 -63zM159 576h-1
q-15 0 -25 11t-10 26t10.5 26t26.5 11q15 0 25 -11t10 -26t-10 -26t-26 -11zM320 576h-1q-15 0 -25 11t-10 26t10.5 26t26.5 11q15 0 25 -11t10 -26t-10 -26t-26 -11z" />
    <glyph glyph-name="divide" unicode="&#xf7;" horiz-adv-x="596" 
d="M298 402h-1q-16 0 -27 12.5t-11 29.5q0 18 11 30t29 12t28.5 -12t10.5 -30t-11 -30t-29 -12zM556 248h-516v39h516v-39zM298 49h-1q-16 0 -27 12.5t-11 29.5q0 18 11 30t29 12t28.5 -12t10.5 -30t-11 -30t-29 -12z" />
    <glyph glyph-name="oslash" unicode="&#xf8;" horiz-adv-x="478" 
d="M240 490h1q62 0 111 -37l34 53l31 -19l-38 -61q60 -69 60 -182q0 -125 -60 -189.5t-140 -64.5q-65 0 -112 37l-35 -54l-29 22l37 58q-61 69 -61 184q0 120 58.5 186.5t142.5 66.5zM125 93l204 322q-33 36 -90 36q-77 0 -115 -65t-38 -147q0 -84 38 -145zM353 384
l-203 -321q35 -34 86 -34q72 0 114 63t42 150q0 81 -37 142h-2z" />
    <glyph glyph-name="ugrave" unicode="&#xf9;" horiz-adv-x="481" 
d="M407 480v-362q0 -48 4 -118h-43l-3 74h-2q-18 -33 -55.5 -58.5t-89.5 -25.5q-60 0 -103.5 46t-43.5 155v289h46v-280q0 -170 112 -170q46 0 79 28.5t46 64.5q7 26 7 51v306h46zM125 685h66l87 -136h-35z" />
    <glyph glyph-name="uacute" unicode="&#xfa;" horiz-adv-x="481" 
d="M407 480v-362q0 -48 4 -118h-43l-3 74h-2q-18 -33 -55.5 -58.5t-89.5 -25.5q-60 0 -103.5 46t-43.5 155v289h46v-280q0 -170 112 -170q46 0 79 28.5t46 64.5q7 26 7 51v306h46zM299 685h66l-117 -136h-36z" />
    <glyph glyph-name="ucircumflex" unicode="&#xfb;" horiz-adv-x="481" 
d="M407 480v-362q0 -48 4 -118h-43l-3 74h-2q-18 -33 -55.5 -58.5t-89.5 -25.5q-60 0 -103.5 46t-43.5 155v289h46v-280q0 -170 112 -170q46 0 79 28.5t46 64.5q7 26 7 51v306h46zM222 685h34l88 -136h-45l-59 97h-2l-59 -97h-43z" />
    <glyph glyph-name="udieresis" unicode="&#xfc;" horiz-adv-x="481" 
d="M407 480v-362q0 -48 4 -118h-43l-3 74h-2q-18 -33 -55.5 -58.5t-89.5 -25.5q-60 0 -103.5 46t-43.5 155v289h46v-280q0 -170 112 -170q46 0 79 28.5t46 64.5q7 26 7 51v306h46zM162 576h-1q-15 0 -25 11t-10 26t10.5 26t26.5 11q15 0 25 -11t10 -26t-10 -26t-26 -11z
M324 576h-1q-15 0 -25 11t-10 26t10.5 26t26.5 11q15 0 25 -11t10 -26t-10 -26t-26 -11z" />
    <glyph glyph-name="yacute" unicode="&#xfd;" horiz-adv-x="403" 
d="M13 480h49l110 -307q17 -50 32 -106h2q18 58 33 108l103 305h49l-121 -332q-45 -129 -76.5 -198t-74.5 -112q-41 -40 -80 -56l-18 39q46 21 80 59q45 51 70 113q5 15 5 23t-4 20zM259 685h66l-118 -136h-35z" />
    <glyph glyph-name="thorn" unicode="&#xfe;" horiz-adv-x="497" 
d="M74 663h46v-261h2q49 88 154 88q79 0 130.5 -66t51.5 -178q0 -125 -57.5 -190.5t-139.5 -65.5q-94 0 -139 79h-2v-265h-46v859zM120 283v-101q0 -20 5 -40q15 -56 53 -84.5t86 -28.5q68 0 107.5 59.5t39.5 156.5q0 86 -39.5 146t-108.5 60q-46 0 -84.5 -33.5t-51.5 -85.5
q-7 -26 -7 -49z" />
    <glyph glyph-name="ydieresis" unicode="&#xff;" horiz-adv-x="403" 
d="M14 480h48l110 -307q17 -50 32 -106h2q18 58 33 108l103 305h48l-120 -332q-45 -129 -76.5 -198t-74.5 -112q-41 -40 -80 -56l-17 39q45 22 80 59q43 49 69 113q6 18 6 23t-5 20zM130 576h-1q-15 0 -25 11t-10 26t10.5 26t26.5 11q15 0 25 -11t10 -26t-10 -26t-26 -11z
M291 576h-1q-15 0 -25 11t-10 26t10.5 26t26.5 11q15 0 25 -11t10 -26t-10 -26t-26 -11z" />
    <glyph glyph-name="Amacron" unicode="&#x100;" horiz-adv-x="536" 
d="M388 235h-237l-74 -235h-47l218 674h45l218 -674h-48zM164 274h211l-71 215q-18 58 -33 129h-3q-10 -47 -33 -128zM159 772h219v-38h-219v38z" />
    <glyph glyph-name="amacron" unicode="&#x101;" horiz-adv-x="416" 
d="M346 311v-199q0 -70 6 -112h-42l-6 64h-3q-19 -31 -53.5 -52.5t-80.5 -21.5q-61 0 -95.5 38.5t-34.5 93.5q0 84 68 129.5t195 44.5v14q0 27 -3.5 47.5t-14 44t-34 36t-59.5 12.5q-61 0 -105 -32l-13 34q53 38 125 38q150 0 150 -179zM300 153v104q-215 5 -215 -129
q0 -49 25 -74t62 -25q48 0 80.5 27t43.5 68q4 13 4 29zM107 625h203v-38h-203v38z" />
    <glyph glyph-name="Abreve" unicode="&#x102;" horiz-adv-x="536" 
d="M388 235h-237l-74 -235h-47l218 674h45l218 -674h-48zM164 274h210l-70 215q-16 50 -34 129h-2q-16 -69 -34 -128zM159 804h33q12 -48 76 -48q66 0 76 48h33q-1 -40 -29.5 -65.5t-80.5 -25.5q-51 0 -79 25t-29 66z" />
    <glyph glyph-name="abreve" unicode="&#x103;" horiz-adv-x="416" 
d="M346 311v-199q0 -70 6 -112h-42l-6 64h-3q-19 -31 -53.5 -52.5t-80.5 -21.5q-61 0 -95.5 38.5t-34.5 93.5q0 84 68 129.5t195 44.5v14q0 27 -3.5 47.5t-14 44t-34 36t-59.5 12.5q-61 0 -105 -32l-13 34q53 38 125 38q150 0 150 -179zM300 153v104q-215 5 -215 -129
q0 -49 25 -74t62 -25q48 0 80.5 27t43.5 68q4 13 4 29zM98 672h34q4 -31 24.5 -51.5t51.5 -20.5q34 0 54 21t22 51h34q0 -50 -30.5 -80.5t-79.5 -30.5q-56 0 -83 32.5t-27 78.5z" />
    <glyph glyph-name="Aogonek" unicode="&#x104;" horiz-adv-x="536" 
d="M293 674l218 -674l-9 -2q-65 -61 -65 -109q0 -23 13.5 -35.5t33.5 -12.5q24 0 46 11l8 -29q-25 -19 -65 -19q-36 0 -58 19.5t-22 54.5q0 54 69 128l-74 229h-236l-75 -235h-47l219 674h44zM165 274h210l-70 215q-16 50 -34 129h-3q-14 -68 -33 -128z" />
    <glyph glyph-name="aogonek" unicode="&#x105;" horiz-adv-x="416" 
d="M346 311v-199q0 -75 8 -112h-7q-18 -21 -34 -53t-16 -60q0 -24 13 -36.5t34 -12.5q26 0 46 10l8 -30q-26 -18 -66 -18q-35 0 -57 20t-22 55q0 49 56 128l-5 61h-3q-19 -31 -53.5 -52.5t-80.5 -21.5q-61 0 -95.5 38.5t-34.5 93.5q0 84 68 129.5t195 44.5v14
q0 27 -3.5 47.5t-14 44t-34 36t-59.5 12.5q-61 0 -105 -32l-13 34q53 38 125 38q150 0 150 -179zM300 153v104q-215 5 -215 -129q0 -49 25 -74t62 -25q48 0 80.5 27t43.5 68q4 13 4 29z" />
    <glyph glyph-name="Cacute" unicode="&#x106;" horiz-adv-x="507" 
d="M464 59l14 -38q-56 -30 -156 -30q-56 0 -106 19.5t-90.5 59t-64.5 107t-24 155.5q0 163 84.5 257t219.5 94q88 0 133 -25l-15 -40q-52 25 -119 25q-115 0 -185 -80t-70 -229q0 -146 67 -224t183 -78q80 0 129 27zM379 822h70l-129 -110h-40z" />
    <glyph glyph-name="cacute" unicode="&#x107;" horiz-adv-x="399" 
d="M358 55l12 -36q-51 -28 -122 -28q-94 0 -151.5 67t-57.5 178t62 182.5t162 71.5q71 0 108 -26l-16 -39q-41 24 -97 24q-82 0 -127 -61.5t-45 -150.5q0 -94 47 -150t123 -56q50 0 102 24zM287 685h66l-118 -136h-35z" />
    <glyph glyph-name="Ccircumflex" unicode="&#x108;" horiz-adv-x="507" 
d="M464 59l14 -38q-56 -30 -156 -30q-56 0 -106 19.5t-90.5 59t-64.5 107t-24 155.5q0 163 84.5 257t219.5 94q88 0 133 -25l-15 -40q-52 25 -119 25q-115 0 -185 -80t-70 -229q0 -146 67 -224t183 -78q80 0 129 27zM286 816h40l102 -103h-53l-68 68h-2l-68 -68h-50z" />
    <glyph glyph-name="ccircumflex" unicode="&#x109;" horiz-adv-x="399" 
d="M358 55l12 -36q-51 -28 -122 -28q-94 0 -151.5 67t-57.5 178t62 182.5t162 71.5q71 0 108 -26l-16 -39q-41 24 -97 24q-82 0 -127 -61.5t-45 -150.5q0 -94 47 -150t123 -56q50 0 102 24zM218 685h34l88 -136h-45l-59 97h-2l-59 -97h-43z" />
    <glyph glyph-name="Cdotaccent" unicode="&#x10a;" horiz-adv-x="507" 
d="M464 59l14 -38q-56 -30 -155 -30q-57 0 -106.5 19.5t-90.5 59t-65 107t-24 155.5q0 163 84.5 257t219.5 94q88 0 133 -25l-15 -40q-52 25 -119 25q-115 0 -185 -80t-70 -229q0 -146 67 -224t183 -78q80 0 129 27zM309 724h-1q-14 0 -24.5 11.5t-10.5 25.5q0 15 11 26
t26 11t25 -11t10 -26t-10.5 -26t-25.5 -11z" />
    <glyph glyph-name="cdotaccent" unicode="&#x10b;" horiz-adv-x="399" 
d="M357 55l12 -36q-51 -28 -121 -28q-94 0 -151.5 67t-57.5 178t62 182.5t162 71.5q69 0 108 -26l-16 -39q-41 24 -97 24q-82 0 -127 -61.5t-45 -150.5q0 -94 47 -150t122 -56q52 0 102 24zM235 575h-1q-15 0 -25.5 11.5t-10.5 26.5q0 14 11 25.5t26 11.5t25.5 -11t10.5 -26
t-10.5 -26.5t-25.5 -11.5z" />
    <glyph glyph-name="Ccaron" unicode="&#x10c;" horiz-adv-x="507" 
d="M464 59l14 -38q-56 -30 -156 -30q-56 0 -106 19.5t-90.5 59t-64.5 107t-24 155.5q0 163 84.5 257t219.5 94q88 0 133 -25l-15 -40q-52 25 -119 25q-115 0 -185 -80t-70 -229q0 -146 67 -224t183 -78q80 0 129 27zM332 713h-39l-102 103h52l69 -70h2l68 70h50z" />
    <glyph glyph-name="ccaron" unicode="&#x10d;" horiz-adv-x="399" 
d="M358 55l12 -36q-51 -28 -122 -28q-94 0 -151.5 67t-57.5 178t62 182.5t162 71.5q71 0 108 -26l-16 -39q-41 24 -97 24q-82 0 -127 -61.5t-45 -150.5q0 -94 47 -150t123 -56q50 0 102 24zM253 549h-36l-88 136h45l60 -97h2l61 97h42z" />
    <glyph glyph-name="Dcaron" unicode="&#x10e;" horiz-adv-x="578" 
d="M76 1v664q68 14 146 14q156 0 232 -78q87 -85 87 -246q0 -169 -84 -264q-84 -96 -255 -96q-78 0 -126 6zM122 631v-592q23 -4 86 -4q138 0 211.5 79.5t73.5 237.5q1 136 -67 212t-206 76q-55 0 -98 -9zM285 712h-40l-102 103h52l69 -70h2l68 70h50z" />
    <glyph glyph-name="dcaron" unicode="&#x10f;" horiz-adv-x="501" 
d="M371 705h46v-597q0 -50 4 -108h-41l-3 83h-3q-18 -40 -56.5 -66.5t-93.5 -26.5q-80 0 -132.5 66t-52.5 177q0 119 55.5 188t137.5 69q48 0 84 -21.5t53 -56.5h2v293zM371 187v106q0 24 -4 41q-9 49 -45.5 83t-86.5 34q-69 0 -109 -61t-40 -153q0 -88 37.5 -148t108.5 -60
q45 0 82.5 30t52.5 90q4 16 4 38zM485 531l-21 19q37 42 37 85q0 39 -37 64l43 12q14 -9 25 -28.5t11 -42.5q0 -10 -1.5 -19.5t-4.5 -18t-6 -15.5t-8 -14t-8 -11.5t-8.5 -10l-8.5 -8.5t-7.5 -7t-5.5 -5z" />
    <glyph glyph-name="Dcroat" unicode="&#x110;" horiz-adv-x="584" 
d="M-3 326v38h84v302q68 14 146 14q157 0 233 -78q87 -84 87 -249q0 -168 -84 -263q-84 -96 -256 -96q-78 0 -126 6v326h-84zM309 364v-38h-182v-288q23 -4 86 -4q139 0 212.5 79.5t73.5 239.5q1 136 -67 212t-207 76q-55 0 -98 -9v-268h182z" />
    <glyph glyph-name="dcroat" unicode="&#x111;" horiz-adv-x="491" 
d="M487 556h-70v-448q0 -50 4 -108h-41l-3 83h-3q-18 -40 -56.5 -66.5t-93.5 -26.5q-80 0 -132.5 66t-52.5 177q0 119 55.5 188t137.5 69q48 0 84 -21.5t53 -56.5h2v144h-185v38h185v111h46v-111h70v-38zM371 187v106q0 24 -4 41q-9 49 -45.5 83t-86.5 34q-69 0 -109 -61
t-40 -153q0 -88 37.5 -148t108.5 -60q45 0 82.5 30t52.5 90q4 16 4 38z" />
    <glyph glyph-name="Emacron" unicode="&#x112;" horiz-adv-x="425" 
d="M364 375v-40h-242v-295h272v-40h-318v674h303v-40h-257v-259h242zM124 772h219v-38h-219v38z" />
    <glyph glyph-name="emacron" unicode="&#x113;" horiz-adv-x="438" 
d="M399 249h-314q0 -116 46 -167t118 -51q70 0 116 25l11 -36q-48 -29 -133 -29q-95 0 -149.5 66.5t-54.5 175.5q0 117 54 187t140 70q49 0 84 -22t52 -57t24 -68t7 -65q0 -20 -1 -29zM87 286h265q2 68 -29.5 116.5t-95.5 48.5q-63 0 -98 -49.5t-42 -115.5zM122 625h203v-38
h-203v38z" />
    <glyph glyph-name="Ebreve" unicode="&#x114;" horiz-adv-x="425" 
d="M364 375v-40h-242v-295h272v-40h-318v674h303v-40h-257v-259h242zM115 812h33q12 -48 76 -48q66 0 76 48h33q-1 -40 -29.5 -65.5t-80.5 -25.5q-51 0 -79 25t-29 66z" />
    <glyph glyph-name="ebreve" unicode="&#x115;" horiz-adv-x="438" 
d="M399 249h-314q0 -116 46 -167t118 -51q70 0 116 25l11 -36q-48 -29 -133 -29q-95 0 -149.5 66.5t-54.5 175.5q0 117 54 187t140 70q49 0 84 -22t52 -57t24 -68t7 -65q0 -20 -1 -29zM87 286h265q2 68 -29.5 116.5t-95.5 48.5q-63 0 -98 -49.5t-42 -115.5zM113 672h34
q4 -31 24.5 -51.5t50.5 -20.5q35 0 55 21t22 51h34q0 -50 -30.5 -80.5t-79.5 -30.5q-56 0 -83.5 33t-26.5 78z" />
    <glyph glyph-name="Edotaccent" unicode="&#x116;" horiz-adv-x="425" 
d="M364 375v-40h-242v-295h272v-40h-318v674h303v-40h-257v-259h242zM225 729h-1q-14 0 -24.5 11.5t-10.5 25.5q0 15 11 26t26 11t25 -11t10 -26t-10.5 -26t-25.5 -11z" />
    <glyph glyph-name="edotaccent" unicode="&#x117;" horiz-adv-x="438" 
d="M399 249h-314q0 -116 46 -167t118 -51q70 0 116 25l11 -36q-48 -29 -133 -29q-95 0 -149.5 67t-54.5 175q0 117 54 187t140 70q49 0 84 -22t52 -57t24 -68t7 -65q0 -20 -1 -29zM87 286h265q2 68 -29.5 116.5t-95.5 48.5q-63 0 -98 -49.5t-42 -115.5zM224 575h-1
q-15 0 -25.5 11.5t-10.5 26.5q0 14 11 25.5t26 11.5t25.5 -11t10.5 -26t-10.5 -26.5t-25.5 -11.5z" />
    <glyph glyph-name="Eogonek" unicode="&#x118;" horiz-adv-x="425" 
d="M388 -152l8 -30q-26 -16 -63 -16t-59.5 19t-22.5 54q0 36 27 70.5t61 54.5h-263v674h303v-40h-257v-259h242v-40h-242v-296h272v-39q-1 -1 -4.5 -1.5t-4.5 -0.5q-38 -24 -64 -54.5t-26 -58.5q0 -22 13.5 -33.5t34.5 -11.5q24 0 45 8z" />
    <glyph glyph-name="eogonek" unicode="&#x119;" horiz-adv-x="438" 
d="M328 -148l8 -30q-28 -18 -65 -18q-35 0 -57 19.5t-22 53.5q0 33 23.5 64.5t53.5 49.5v1q-4 0 -12.5 -0.5t-13.5 -0.5q-95 0 -149.5 67t-54.5 175q0 117 54 187t140 70q49 0 84 -22t52 -57t24 -68t7 -65q0 -21 -1 -29h-314q0 -116 46 -167t119 -51q69 0 115 25l11 -36
q-16 -10 -39 -16q-36 -15 -68.5 -49.5t-32.5 -67.5q0 -23 12.5 -34.5t31.5 -11.5q26 0 48 11zM87 286h265q2 68 -29.5 116.5t-95.5 48.5q-63 0 -98 -49.5t-42 -115.5z" />
    <glyph glyph-name="Ecaron" unicode="&#x11a;" horiz-adv-x="425" 
d="M364 375v-40h-242v-295h272v-40h-318v674h303v-40h-257v-259h242zM249 710h-39l-102 103h52l69 -70h2l68 70h50z" />
    <glyph glyph-name="ecaron" unicode="&#x11b;" horiz-adv-x="438" 
d="M399 249h-314q0 -116 46 -167t118 -51q70 0 116 25l11 -36q-48 -29 -133 -29q-95 0 -149.5 66.5t-54.5 175.5q0 117 54 187t140 70q49 0 84 -22t52 -57t24 -68t7 -65q0 -20 -1 -29zM87 286h265q2 68 -29.5 116.5t-95.5 48.5q-63 0 -98 -49.5t-42 -115.5zM241 549h-36
l-88 136h45l60 -97h2l61 97h42z" />
    <glyph glyph-name="Gcircumflex" unicode="&#x11c;" horiz-adv-x="561" 
d="M506 334v-309q-79 -32 -170 -32q-130 0 -211 81q-88 90 -88 257q0 160 86.5 255t230.5 95q84 0 136 -26l-15 -39q-52 25 -124 25q-120 0 -193 -79.5t-73 -223.5q0 -149 70 -227t188 -78q79 0 117 19v244h-141v38h187zM300 815h40l102 -103h-52l-69 68h-2l-68 -68h-50z
" />
    <glyph glyph-name="gcircumflex" unicode="&#x11d;" horiz-adv-x="491" 
d="M417 349v-280q0 -162 -58 -220q-54 -55 -147 -55q-86 0 -136 36l16 38q54 -35 127 -35q152 0 152 186v65h-2q-18 -37 -55.5 -60.5t-89.5 -23.5q-80 0 -132.5 66.5t-52.5 170.5q0 122 58.5 187.5t136.5 65.5q97 0 140 -84h2l2 74h43q-4 -66 -4 -131zM371 192v111
q0 27 -5 43q-14 45 -47 75t-84 30q-67 0 -108 -57.5t-41 -151.5q0 -91 39.5 -147t109.5 -56q42 0 77.5 26t51.5 77q7 24 7 50zM225 688h33l88 -136h-44l-59 97h-2l-59 -97h-43z" />
    <glyph glyph-name="Gbreve" unicode="&#x11e;" horiz-adv-x="561" 
d="M506 334v-309q-79 -32 -170 -32q-130 0 -211 81q-88 90 -88 257q0 160 86.5 255t230.5 95q84 0 136 -26l-15 -39q-52 25 -124 25q-120 0 -193 -79.5t-73 -223.5q0 -149 70 -227t188 -78q79 0 117 19v244h-141v38h187zM201 812h33q12 -48 76 -48q67 0 76 48h34
q-1 -40 -29.5 -65.5t-81.5 -25.5q-51 0 -79 25t-29 66z" />
    <glyph glyph-name="gbreve" unicode="&#x11f;" horiz-adv-x="491" 
d="M417 349v-280q0 -162 -58 -220q-52 -55 -146 -55q-87 0 -137 36l16 38q56 -35 127 -35q152 0 152 186v65h-2q-18 -37 -55.5 -60.5t-89.5 -23.5q-80 0 -132.5 66.5t-52.5 170.5q0 122 58.5 187.5t136.5 65.5q99 0 140 -84h2l2 74h43q-4 -66 -4 -131zM371 192v111
q0 27 -5 43q-13 44 -46.5 74.5t-83.5 30.5q-68 0 -109 -57.5t-41 -151.5q0 -91 39.5 -147t109.5 -56q43 0 78 26t51 77q7 24 7 50zM125 672h35q4 -31 24.5 -51.5t50.5 -20.5q35 0 55 21t22 51h34q0 -50 -30.5 -80.5t-79.5 -30.5q-56 0 -83.5 32.5t-27.5 78.5z" />
    <glyph glyph-name="Gdotaccent" unicode="&#x120;" horiz-adv-x="561" 
d="M506 334v-309q-79 -32 -170 -32q-130 0 -211 81q-88 90 -88 257q0 160 86 255t230 95q85 0 137 -26l-15 -39q-52 25 -125 25q-119 0 -192 -79.5t-73 -223.5q0 -149 70 -227t188 -78q79 0 117 19v244h-141v38h187zM321 724h-1q-14 0 -24.5 11.5t-10.5 25.5q0 15 11 26
t26 11t25 -11t10 -26t-10.5 -26t-25.5 -11z" />
    <glyph glyph-name="gdotaccent" unicode="&#x121;" horiz-adv-x="491" 
d="M417 349v-280q0 -162 -58 -220q-54 -55 -146 -55q-87 0 -137 36l16 38q56 -35 127 -35q152 0 152 186v65h-2q-18 -37 -55.5 -60.5t-89.5 -23.5q-80 0 -132.5 66.5t-52.5 170.5q0 122 58.5 187.5t136.5 65.5q97 0 140 -84h2l2 74h43q-4 -66 -4 -131zM371 192v111
q0 27 -5 43q-14 45 -47 75t-83 30q-68 0 -109 -57.5t-41 -151.5q0 -91 39.5 -147t109.5 -56q42 0 77.5 26t51.5 77q7 24 7 50zM246 579h-1q-15 0 -25.5 11.5t-10.5 26.5q0 14 11 25.5t26 11.5t25.5 -11t10.5 -26t-10.5 -26.5t-25.5 -11.5z" />
    <glyph glyph-name="Gcommaaccent" unicode="&#x122;" horiz-adv-x="561" 
d="M506 334v-309q-79 -32 -170 -32q-130 0 -211 81q-88 90 -88 257q0 160 86 255t230 95q85 0 137 -26l-15 -39q-52 25 -125 25q-119 0 -192 -79.5t-73 -223.5q0 -149 70 -227t188 -78q79 0 117 19v244h-141v38h187zM275 -209l-14 26q77 14 77 68q0 36 -37 61l41 12
q38 -24 38 -70q0 -44 -32 -67.5t-73 -29.5z" />
    <glyph glyph-name="gcommaaccent" unicode="&#x123;" horiz-adv-x="491" 
d="M417 349v-280q0 -162 -58 -220q-54 -55 -146 -55q-87 0 -137 36l16 38q56 -35 127 -35q152 0 152 186v65h-2q-18 -37 -55.5 -60.5t-89.5 -23.5q-80 0 -132.5 66.5t-52.5 170.5q0 122 58.5 187.5t136.5 65.5q97 0 140 -84h2l2 74h43q-4 -66 -4 -131zM371 192v111
q0 27 -5 43q-14 45 -47 75t-83 30q-68 0 -109 -57.5t-41 -151.5q0 -91 39.5 -147t109.5 -56q42 0 77.5 26t51.5 77q7 24 7 50zM295 697l14 -26q-77 -13 -77 -69q0 -34 36 -61l-40 -11q-38 24 -38 70q0 43 32 67.5t73 29.5z" />
    <glyph glyph-name="Hcircumflex" unicode="&#x124;" horiz-adv-x="570" 
d="M76 674h46v-298h326v298h46v-674h-46v336h-326v-336h-46v674zM266 813h40l101 -103h-52l-68 68h-2l-68 -68h-50z" />
    <glyph glyph-name="hcircumflex" unicode="&#x125;" horiz-adv-x="487" 
d="M74 0v705h46v-300h2q22 40 58 61q38 24 87 24q21 0 43 -7t47.5 -25t41.5 -58t16 -96v-304h-46v295q0 68 -27.5 111.5t-87.5 43.5q-45 0 -80 -29t-49 -76q-5 -16 -5 -44v-301h-46zM79 826h40l101 -103h-52l-68 68h-2l-68 -68h-50z" />
    <glyph glyph-name="Hbar" unicode="&#x126;" horiz-adv-x="570" 
d="M546 486h-52v-486h-46v330h-326v-330h-46v486h-52v37h52v151h46v-151h326v151h46v-151h52v-37zM448 370v116h-326v-116h326z" />
    <glyph glyph-name="hbar" unicode="&#x127;" horiz-adv-x="487" 
d="M415 0h-46v295q0 68 -27.5 111.5t-87.5 43.5q-45 0 -80 -29t-49 -76q-5 -16 -5 -44v-301h-46v556h-71v38h71v111h46v-111h181v-38h-181v-151h2q22 40 58 61q38 24 87 24q21 0 43 -7t47.5 -25t41.5 -58t16 -96v-304z" />
    <glyph glyph-name="Itilde" unicode="&#x128;" horiz-adv-x="198" 
d="M76 674h46v-674h-46v674zM22 717h-32q0 36 16 60t44 24q20 0 53 -20q34 -17 47 -17q25 0 27 37h32q0 -79 -59 -79q-19 0 -55 19q-34 19 -46 19q-22 0 -27 -43z" />
    <glyph glyph-name="itilde" unicode="&#x129;" horiz-adv-x="195" 
d="M120 0h-46v480h46v-480zM23 570h-33q-1 38 15 61.5t43 23.5q14 0 56 -21q30 -16 42 -16q25 0 28 40h32q0 -82 -60 -82q-19 0 -53 19q-31 18 -44 18q-23 0 -26 -43z" />
    <glyph glyph-name="Imacron" unicode="&#x12a;" horiz-adv-x="198" 
d="M76 674h46v-674h-46v674zM-9 772h219v-38h-219v38z" />
    <glyph glyph-name="imacron" unicode="&#x12b;" horiz-adv-x="195" 
d="M120 0h-46v480h46v-480zM-3 625h202v-38h-202v38z" />
    <glyph glyph-name="Ibreve" unicode="&#x12c;" horiz-adv-x="198" 
d="M76 674h46v-674h-46v674zM-11 808h33q13 -48 77 -48q65 0 75 48h33q-1 -40 -29 -65.5t-80 -25.5t-80 25t-29 66z" />
    <glyph glyph-name="ibreve" unicode="&#x12d;" horiz-adv-x="195" 
d="M120 0h-46v480h46v-480zM-10 672h34q5 -31 25.5 -51.5t50.5 -20.5q34 0 54 21t22 51h34q0 -50 -30.5 -80.5t-79.5 -30.5q-55 0 -82.5 32.5t-27.5 78.5z" />
    <glyph glyph-name="Iogonek" unicode="&#x12e;" horiz-adv-x="198" 
d="M122 674v-674h-6q-52 -70 -52 -117q0 -24 13 -36t34 -12q26 0 46 10l8 -30q-25 -18 -66 -18q-35 0 -57 19.5t-22 54.5q0 50 56 129v674h46z" />
    <glyph glyph-name="iogonek" unicode="&#x12f;" horiz-adv-x="195" 
d="M97 578h-1q-15 0 -25 11.5t-10 28.5t10.5 28.5t26.5 11.5t26 -11.5t10 -28.5t-10 -28.5t-27 -11.5zM120 480v-480h-6q-52 -70 -52 -117q0 -24 13 -36t34 -12q26 0 46 10l8 -30q-25 -18 -66 -18q-35 0 -57 19.5t-22 54.5q0 50 56 129v480h46z" />
    <glyph glyph-name="Idotaccent" unicode="&#x130;" horiz-adv-x="198" 
d="M76 674h46v-674h-46v674zM99 729q-15 0 -25.5 11t-10.5 26t11 26t26 11t25 -11t10 -26t-10.5 -26t-25.5 -11z" />
    <glyph glyph-name="dotlessi" unicode="&#x131;" horiz-adv-x="195" 
d="M120 0h-46v480h46v-480z" />
    <glyph glyph-name="IJ" unicode="&#x132;" horiz-adv-x="513" 
d="M76 674h46v-674h-46v674zM399 206v468h46v-476q0 -208 -168 -208q-40 0 -70 12l8 39q30 -10 60 -10q64 0 94 37.5t30 137.5z" />
    <glyph glyph-name="ij" unicode="&#x133;" horiz-adv-x="394" 
d="M120 0h-46v480h46v-480zM97 573h-1q-15 0 -25 11.5t-10 28.5t10.5 28.5t26.5 11.5t26 -11.5t10 -28.5t-10 -28.5t-27 -11.5zM161 -206l-7 38q63 7 90 41q18 24 25 62.5t7 124.5v420h46v-448q0 -70 -10 -113t-37 -74q-22 -24 -55.5 -37t-58.5 -14zM298 573h-1
q-15 0 -25 11.5t-10 28.5t11 28.5t27 11.5q15 0 25 -11.5t10 -28.5t-10 -28.5t-27 -11.5z" />
    <glyph glyph-name="Jcircumflex" unicode="&#x134;" horiz-adv-x="315" 
d="M200 206v468h46v-476q0 -208 -168 -208q-38 0 -70 12l9 39q28 -10 59 -10q64 0 94 37.5t30 137.5zM198 813h39l102 -103h-52l-69 68h-2l-68 -68h-50z" />
    <glyph glyph-name="jcircumflex" unicode="&#x135;" horiz-adv-x="200" 
d="M-34 -206l-7 38q62 7 90 41q17 24 24.5 63t7.5 124v420h46v-448q0 -70 -10 -113t-37 -74q-22 -24 -55.5 -37t-58.5 -14zM82 674h33l88 -136h-45l-59 96h-2l-58 -96h-43z" />
    <glyph glyph-name="Kcommaaccent" unicode="&#x136;" horiz-adv-x="460" 
d="M76 0v674h46v-338h3q11 15 29.5 39.5t24.5 32.5l212 266h56l-232 -286l250 -388h-54l-228 355l-61 -75v-280h-46zM185 -204l-13 26q77 14 77 68q0 36 -37 61l41 12q38 -24 38 -70q0 -44 -32 -68t-74 -29z" />
    <glyph glyph-name="kcommaaccent" unicode="&#x137;" horiz-adv-x="391" 
d="M120 705v-456h2l16 21l24 30l153 180h55l-175 -200l199 -280h-56l-175 250l-43 -50v-200h-46v705h46zM150 -209l-14 26q77 13 77 68q0 36 -36 61l40 12q38 -24 38 -70q0 -43 -32 -67.5t-73 -29.5z" />
    <glyph glyph-name="kgreenlandic" unicode="&#x138;" horiz-adv-x="391" 
d="M120 480v-231h2q32 41 41 51l153 180h55l-176 -200l199 -280h-55l-175 250l-44 -50v-200h-46v480h46z" />
    <glyph glyph-name="Lacute" unicode="&#x139;" horiz-adv-x="410" 
d="M76 0v674h46v-635h270v-39h-316zM180 820h71l-129 -110h-41z" />
    <glyph glyph-name="lacute" unicode="&#x13a;" horiz-adv-x="199" 
d="M74 0v705h46v-705h-46zM155 843h71l-129 -110h-40z" />
    <glyph glyph-name="Lcommaaccent" unicode="&#x13b;" horiz-adv-x="410" 
d="M76 0v674h46v-635h270v-39h-316zM167 -209l-13 26q77 14 77 68q0 36 -37 61l41 12q38 -24 38 -70q0 -44 -32 -68t-74 -29z" />
    <glyph glyph-name="lcommaaccent" unicode="&#x13c;" horiz-adv-x="199" 
d="M74 0v705h46v-705h-46zM45 -209l-13 26q77 14 77 68q0 36 -37 61l41 12q38 -24 38 -70q0 -44 -32 -68t-74 -29z" />
    <glyph glyph-name="Lcaron" unicode="&#x13d;" horiz-adv-x="410" 
d="M76 0v674h46v-635h270v-39h-316zM221 514l-14 26q77 14 77 68q0 36 -37 61l41 12q38 -24 38 -70q0 -44 -32 -67.5t-73 -29.5z" />
    <glyph glyph-name="lcaron" unicode="&#x13e;" horiz-adv-x="205" 
d="M74 0v705h46v-705h-46zM185 531l-21 19q37 39 37 85q0 39 -37 64l43 12q14 -9 25 -28.5t11 -42.5q0 -10 -1.5 -19.5t-4.5 -18t-6 -15.5t-8 -14t-8 -11.5t-8.5 -10l-8.5 -8.5t-7.5 -7t-5.5 -5z" />
    <glyph glyph-name="Ldot" unicode="&#x13f;" horiz-adv-x="410" 
d="M76 0v674h46v-635h270v-39h-316zM282 327h-1q-14 0 -24.5 11.5t-10.5 25.5q0 15 11 26t26 11t25 -11t10 -26t-10.5 -26t-25.5 -11z" />
    <glyph glyph-name="ldot" unicode="&#x140;" horiz-adv-x="209" 
d="M74 0v705h46v-705h-46zM201 348h-1q-15 0 -24.5 11t-9.5 26t10.5 26t25.5 11q14 0 24 -11t10 -26t-10 -26t-25 -11z" />
    <glyph glyph-name="Lslash" unicode="&#x141;" horiz-adv-x="415" 
d="M396 0h-316v284l-84 -70v44l84 71v345h46v-308l131 109v-46l-131 -108v-282h270v-39z" />
    <glyph glyph-name="lslash" unicode="&#x142;" horiz-adv-x="204" 
d="M125 0h-46v320l-69 -66v45l69 66v340h46v-298l71 69v-46l-71 -68v-362z" />
    <glyph glyph-name="Nacute" unicode="&#x143;" horiz-adv-x="577" 
d="M120 0h-45v674h45l225 -383q78 -139 117 -226l2 1q-8 117 -8 284v324h45v-674h-44l-224 384q-82 144 -117 226l-3 -1q7 -104 7 -285v-324zM354 820h71l-129 -110h-41z" />
    <glyph glyph-name="nacute" unicode="&#x144;" horiz-adv-x="487" 
d="M74 0v366q0 40 -4 114h43l3 -79h2q18 39 57 64t90 25q17 0 34.5 -4t39 -16.5t38 -32t27.5 -55t11 -81.5v-301h-46v293q0 69 -27 113t-90 44q-44 0 -79.5 -30t-47.5 -77q-5 -20 -5 -43v-300h-46zM302 685h66l-118 -136h-35z" />
    <glyph glyph-name="Ncommaaccent" unicode="&#x145;" horiz-adv-x="577" 
d="M120 0h-45v674h45l225 -383q78 -139 117 -226l2 1q-8 117 -8 284v324h45v-674h-44l-223 384q-81 139 -118 226l-3 -1q7 -104 7 -285v-324zM235 -209l-13 26q77 14 77 68q0 36 -37 61l41 12q38 -24 38 -70q0 -44 -32 -68t-74 -29z" />
    <glyph glyph-name="ncommaaccent" unicode="&#x146;" horiz-adv-x="487" 
d="M74 0v366q0 40 -4 114h43l3 -79h2q18 39 57 64t90 25q17 0 34 -4t39 -16.5t38 -32t27.5 -55t11.5 -81.5v-301h-46v293q0 69 -27 113t-90 44q-44 0 -79.5 -30t-47.5 -77q-5 -20 -5 -43v-300h-46zM199 -205l-13 26q77 14 77 68q0 36 -37 61l41 12q38 -24 38 -70
q0 -44 -32 -68t-74 -29z" />
    <glyph glyph-name="Ncaron" unicode="&#x147;" horiz-adv-x="577" 
d="M120 0h-45v674h45l225 -383q78 -139 117 -226l2 1q-8 117 -8 284v324h45v-674h-44l-224 384q-82 144 -117 226l-3 -1q7 -104 7 -285v-324zM308 705h-40l-101 103h52l69 -70h2l68 70h50z" />
    <glyph glyph-name="ncaron" unicode="&#x148;" horiz-adv-x="487" 
d="M74 0v366q0 40 -4 114h43l3 -79h2q18 39 57 64t90 25q17 0 34.5 -4t39 -16.5t38 -32t27.5 -55t11 -81.5v-301h-46v293q0 69 -27 113t-90 44q-44 0 -79.5 -30t-47.5 -77q-5 -20 -5 -43v-300h-46zM263 549h-36l-88 136h44l60 -97h3l60 97h43z" />
    <glyph glyph-name="napostrophe" unicode="&#x149;" horiz-adv-x="487" 
d="M74 0v366q0 40 -4 114h43l3 -79h2q18 39 57 64t90 25q17 0 34.5 -4t39 -16.5t38 -32t27.5 -55t11 -81.5v-301h-46v293q0 69 -27 113t-90 44q-44 0 -79.5 -30t-47.5 -77q-5 -20 -5 -43v-300h-46zM47 540l-21 18q37 37 37 80q0 37 -37 62l43 11q36 -23 36 -68
q0 -27 -14 -52t-20.5 -31t-23.5 -20z" />
    <glyph glyph-name="Eng" unicode="&#x14a;" horiz-adv-x="577" 
d="M120 0h-45v674h45l225 -383q78 -139 117 -226l2 1q-8 117 -8 284v324h45v-647q0 -91 -37 -143.5t-121 -68.5l-9 38q61 13 91.5 48t32.5 99l-225 384q-82 144 -117 226l-3 -1q7 -104 7 -285v-324z" />
    <glyph glyph-name="eng" unicode="&#x14b;" horiz-adv-x="487" 
d="M74 0v366q0 40 -4 114h43l3 -79h2q18 39 57 64t90 25q17 0 34.5 -4t39 -16.5t38 -32t27.5 -55t11 -81.5v-251q0 -96 -43.5 -150t-117.5 -67l-9 40q124 26 124 179v241q0 69 -27 113t-90 44q-44 0 -79.5 -30t-47.5 -77q-5 -20 -5 -43v-300h-46z" />
    <glyph glyph-name="Omacron" unicode="&#x14c;" horiz-adv-x="597" 
d="M295 -10h-1q-111 0 -184 90.5t-73 251.5q0 166 75.5 259t191.5 93q113 0 184.5 -90.5t71.5 -251.5q0 -172 -76.5 -262t-188.5 -90zM297 30h1q69 0 119 46t72.5 114.5t22.5 149.5q0 54 -12.5 106t-37 97.5t-67 73t-96.5 27.5q-72 0 -122 -47.5t-71 -115.5t-21 -148
q0 -76 22.5 -143t72 -113.5t117.5 -46.5zM191 777h219v-38h-219v38z" />
    <glyph glyph-name="omacron" unicode="&#x14d;" horiz-adv-x="478" 
d="M236 -10h-1q-84 0 -140 66t-56 181q0 120 59 186.5t144 66.5q87 0 142 -66.5t55 -180.5q0 -124 -61 -188.5t-142 -64.5zM237 29h1q68 0 111 63.5t43 149.5q0 47 -13.5 92t-50 81t-89.5 36q-52 0 -88 -34t-50.5 -80t-14.5 -98q0 -84 42 -147t109 -63zM138 625h203v-38
h-203v38z" />
    <glyph glyph-name="Obreve" unicode="&#x14e;" horiz-adv-x="597" 
d="M295 -10h-1q-111 0 -184 90.5t-73 251.5q0 166 75.5 259t191.5 93q113 0 184.5 -90.5t71.5 -251.5q0 -172 -76.5 -262t-188.5 -90zM297 30h1q69 0 119 46t72.5 114.5t22.5 149.5q0 54 -12.5 106t-37 97.5t-67 73t-96.5 27.5q-71 0 -121 -47.5t-71.5 -116t-21.5 -147.5
q0 -76 22.5 -143t72 -113.5t117.5 -46.5zM189 814h33q12 -48 76 -48q66 0 76 48h33q-1 -40 -29.5 -65.5t-80.5 -25.5q-51 0 -79 25t-29 66z" />
    <glyph glyph-name="obreve" unicode="&#x14f;" horiz-adv-x="478" 
d="M236 -10h-1q-84 0 -140 66t-56 181q0 120 59 186.5t144 66.5q86 0 141.5 -66.5t55.5 -180.5q0 -124 -61.5 -188.5t-141.5 -64.5zM237 29h1q68 0 111 63.5t43 149.5q0 47 -14 92t-50 81t-89 36q-52 0 -88 -34t-50.5 -80t-14.5 -98q0 -84 42 -147t109 -63zM128 672h34
q4 -31 24.5 -51.5t51.5 -20.5q34 0 54 21t22 51h34q0 -50 -30.5 -80.5t-79.5 -30.5q-55 0 -82.5 32.5t-27.5 78.5z" />
    <glyph glyph-name="Ohungarumlaut" unicode="&#x150;" horiz-adv-x="597" 
d="M295 -10h-1q-111 0 -184 90.5t-73 251.5q0 166 75.5 259t191.5 93q113 0 184.5 -90.5t71.5 -251.5q0 -172 -76.5 -262t-188.5 -90zM297 30h1q69 0 119 46t72.5 114.5t22.5 149.5q0 54 -12.5 106t-37 97.5t-67 73t-96.5 27.5q-72 0 -122 -47.5t-71 -115.5t-21 -148
q0 -76 22.5 -143t72 -113.5t117.5 -46.5zM302 823h67l-114 -104h-40zM425 823h67l-114 -104h-40z" />
    <glyph glyph-name="ohungarumlaut" unicode="&#x151;" horiz-adv-x="478" 
d="M236 -10h-1q-84 0 -140 66t-56 181q0 120 59 186.5t144 66.5q87 0 142 -66.5t55 -180.5q0 -124 -61 -188.5t-142 -64.5zM237 29h1q68 0 111 63.5t43 149.5q0 47 -13.5 92t-50 81t-89.5 36q-52 0 -88 -34t-50.5 -80t-14.5 -98q0 -84 42 -147t109 -63zM237 684h62
l-114 -129h-35zM360 684h62l-114 -129h-35z" />
    <glyph glyph-name="OE" unicode="&#x152;" horiz-adv-x="783" 
d="M752 40v-40h-297q-16 -1 -59 -5q-37 -5 -69 -5q-135 0 -212.5 96t-77.5 246q0 171 84 261.5t214 90.5q36 0 71 -5q46 -4 56 -5h275v-40h-257v-260h242v-40h-242v-294h272zM434 43v587q-46 14 -105 14q-112 0 -178 -82t-66 -226q0 -148 68 -227t183 -79q66 0 98 13z" />
    <glyph glyph-name="oe" unicode="&#x153;" horiz-adv-x="774" 
d="M735 249h-303q-1 -111 42 -165t117 -54q53 0 111 26l13 -36q-49 -30 -132 -30q-61 0 -107.5 32t-67.5 94h-2q-20 -62 -67 -94t-103 -32q-86 0 -141.5 66.5t-55.5 181.5q0 118 57.5 185t142.5 67q60 0 105.5 -33t63.5 -93h2q22 61 64.5 93.5t97.5 32.5q48 0 82.5 -22.5
t51 -57.5t23.5 -67.5t7 -63.5q0 -22 -1 -30zM237 451h-1q-53 0 -88.5 -36t-48.5 -81.5t-13 -94.5q0 -83 42 -146.5t109 -63.5q70 0 110.5 61t40.5 150q0 84 -37.5 147.5t-113.5 63.5zM432 287h256q2 67 -28.5 115.5t-91.5 48.5t-95.5 -49t-40.5 -115z" />
    <glyph glyph-name="Racute" unicode="&#x154;" horiz-adv-x="464" 
d="M76 0v665q58 14 129 14q112 0 167 -53q46 -46 46 -123q0 -129 -125 -176v-2q76 -23 101 -149q28 -141 46 -176h-48q-14 27 -41 166q-14 74 -47.5 107.5t-96.5 35.5h-85v-309h-46zM122 633v-287h86q74 0 118.5 41t44.5 108q0 73 -44 109.5t-123 36.5q-50 0 -82 -8z
M287 823h70l-129 -110h-40z" />
    <glyph glyph-name="racute" unicode="&#x155;" horiz-adv-x="272" 
d="M74 0v346q0 50 -4 134h43l2 -91h2q15 43 49 72t78 29q3 0 8.5 -0.5t7.5 -0.5v-46q-5 1 -18 1q-47 0 -79 -37t-40 -93q-3 -21 -3 -44v-270h-46zM208 685h66l-118 -136h-35z" />
    <glyph glyph-name="Rcommaaccent" unicode="&#x156;" horiz-adv-x="464" 
d="M76 0v665q58 14 129 14q112 0 167 -53q46 -46 46 -123q0 -129 -126 -176v-2q77 -23 102 -149q28 -141 46 -176h-48q-14 27 -41 166q-15 74 -48 107.5t-97 35.5h-84v-309h-46zM122 633v-287h86q73 0 118 41t45 108q0 73 -44 109.5t-124 36.5q-49 0 -81 -8zM187 -198
l-14 26q77 13 77 68q0 34 -36 61l40 11q38 -24 38 -69q0 -44 -32 -67.5t-73 -29.5z" />
    <glyph glyph-name="rcommaaccent" unicode="&#x157;" horiz-adv-x="272" 
d="M74 0v346q0 50 -4 134h43l2 -91h2q15 43 49 72t78 29q3 0 8.5 -0.5t7.5 -0.5v-46q-5 1 -18 1q-47 0 -79 -37t-40 -93q-3 -21 -3 -44v-270h-46zM54 -209l-14 26q77 14 77 68q0 36 -37 61l41 12q38 -24 38 -70q0 -43 -32 -67.5t-73 -29.5z" />
    <glyph glyph-name="Rcaron" unicode="&#x158;" horiz-adv-x="464" 
d="M76 0v665q58 14 129 14q112 0 167 -53q46 -46 46 -123q0 -129 -125 -176v-2q76 -23 101 -149q28 -141 46 -176h-48q-14 27 -41 166q-14 74 -47.5 107.5t-96.5 35.5h-85v-309h-46zM122 633v-287h86q74 0 118.5 41t44.5 108q0 73 -44 109.5t-123 36.5q-50 0 -82 -8z
M246 713h-40l-101 103h52l69 -70h2l67 70h50z" />
    <glyph glyph-name="rcaron" unicode="&#x159;" horiz-adv-x="272" 
d="M74 0v346q0 50 -4 134h43l2 -91h2q15 43 49 72t78 29q3 0 8.5 -0.5t7.5 -0.5v-46q-5 1 -18 1q-47 0 -79 -37t-40 -93q-3 -21 -3 -44v-270h-46zM173 549h-35l-88 136h44l60 -97h2l61 97h42z" />
    <glyph glyph-name="Sacute" unicode="&#x15a;" horiz-adv-x="427" 
d="M39 32l17 38q58 -39 130 -39q69 0 110 38t41 101q0 55 -29.5 91.5t-93.5 66.5q-159 66 -159 186q0 74 52 121.5t132 47.5q77 0 120 -30l-18 -39q-41 29 -106 29q-67 0 -100.5 -36.5t-33.5 -83.5q0 -55 30 -88t99 -65q79 -39 116 -83.5t37 -112.5q0 -79 -53.5 -131
t-146.5 -52q-39 0 -80 12t-64 29zM282 823h71l-129 -110h-41z" />
    <glyph glyph-name="sacute" unicode="&#x15b;" horiz-adv-x="341" 
d="M37 23l18 39q45 -31 97 -31q49 0 76 25t27 65q0 37 -20.5 61.5t-69.5 47.5q-115 53 -115 133q0 54 38.5 90.5t100.5 36.5q55 0 98 -29l-19 -38q-38 27 -85 27q-41 0 -64 -23.5t-23 -56.5t19.5 -53.5t68.5 -44.5q57 -26 87 -59t30 -84q0 -64 -42 -101t-110 -37
q-63 0 -112 32zM229 685h66l-118 -136h-35z" />
    <glyph glyph-name="Scircumflex" unicode="&#x15c;" horiz-adv-x="427" 
d="M39 32l17 38q58 -39 130 -39q69 0 110 38t41 101q0 55 -29.5 91.5t-93.5 66.5q-159 66 -159 186q0 74 52 121.5t132 47.5q77 0 120 -30l-18 -39q-41 29 -106 29q-67 0 -100.5 -36.5t-33.5 -83.5q0 -55 30 -88t99 -65q79 -39 116 -83.5t37 -112.5q0 -79 -53.5 -131
t-146.5 -52q-39 0 -80 12t-64 29zM197 816h40l101 -103h-52l-68 68h-2l-69 -68h-50z" />
    <glyph glyph-name="scircumflex" unicode="&#x15d;" horiz-adv-x="341" 
d="M37 23l18 39q45 -31 97 -31q49 0 76 25t27 65q0 37 -20.5 61.5t-69.5 47.5q-115 53 -115 133q0 54 38.5 90.5t100.5 36.5q55 0 98 -29l-19 -38q-38 27 -85 27q-41 0 -64 -23.5t-23 -56.5t19.5 -53.5t68.5 -44.5q57 -26 87 -59t30 -84q0 -64 -42 -101t-110 -37
q-63 0 -112 32zM154 685h33l89 -136h-45l-59 97h-2l-59 -97h-43z" />
    <glyph glyph-name="Scedilla" unicode="&#x15e;" horiz-adv-x="427" 
d="M39 32l17 38q58 -39 129 -39q70 0 111 38t41 101q0 54 -29.5 91t-93.5 67q-159 66 -159 186q0 74 52 121.5t132 47.5q77 0 120 -30l-18 -39q-41 29 -107 29q-67 0 -100 -36.5t-33 -83.5q0 -55 30 -88t98 -65q79 -39 116.5 -83.5t37.5 -112.5q0 -67 -39.5 -115.5
t-111.5 -62.5l-30 -50q28 -4 47.5 -23t19.5 -47q0 -36 -26 -55t-63 -19q-33 0 -61 17l12 34q23 -14 53 -14q43 0 43 34q0 37 -74 47l40 71h-10q-39 0 -80 12t-64 29z" />
    <glyph glyph-name="scedilla" unicode="&#x15f;" horiz-adv-x="341" 
d="M37 23l18 39q45 -31 97 -31q49 0 76 25t27 65q0 37 -20.5 61.5t-69.5 47.5q-115 53 -115 133q0 54 38.5 90.5t100.5 36.5q55 0 98 -29l-19 -38q-38 27 -85 27q-41 0 -64 -23.5t-23 -56.5t19.5 -53.5t68.5 -44.5q57 -26 87 -59t30 -84q0 -52 -29 -87t-79 -46l-31 -50
q28 -3 48 -22t20 -46q0 -38 -25.5 -57t-64.5 -19q-34 0 -61 17l13 34q21 -14 52 -14q20 0 33 8t12 26q0 39 -75 47l40 71h-5q-63 0 -112 32z" />
    <glyph glyph-name="Scaron" unicode="&#x160;" horiz-adv-x="427" 
d="M39 32l17 38q58 -39 130 -39q69 0 110 38t41 101q0 55 -29.5 91.5t-93.5 66.5q-159 66 -159 186q0 74 52 121.5t132 47.5q77 0 120 -30l-18 -39q-41 29 -106 29q-67 0 -100.5 -36.5t-33.5 -83.5q0 -55 30 -88t99 -65q79 -39 116 -83.5t37 -112.5q0 -79 -53.5 -131
t-146.5 -52q-39 0 -80 12t-64 29zM249 713h-40l-102 103h52l69 -70h2l68 70h50z" />
    <glyph glyph-name="scaron" unicode="&#x161;" horiz-adv-x="341" 
d="M37 23l18 39q45 -31 97 -31q49 0 76 25t27 65q0 37 -20.5 61.5t-69.5 47.5q-115 53 -115 133q0 54 38.5 90.5t100.5 36.5q55 0 98 -29l-19 -38q-38 27 -85 27q-41 0 -64 -23.5t-23 -56.5t19.5 -53.5t68.5 -44.5q57 -26 87 -59t30 -84q0 -64 -42 -101t-110 -37
q-63 0 -112 32zM194 549h-36l-88 136h45l60 -97h2l60 97h43z" />
    <glyph glyph-name="Tcommaaccent" unicode="&#x162;" horiz-adv-x="424" 
d="M190 0v635h-192v39h430v-39h-192v-635h-46zM157 -209l-14 26q77 14 77 68q0 36 -37 61l41 12q38 -24 38 -70q0 -43 -32 -67.5t-73 -29.5z" />
    <glyph glyph-name="tcommaaccent" unicode="&#x163;" horiz-adv-x="282" 
d="M91 566l46 19v-105h123v-38h-123v-316q0 -95 65 -95q30 0 47 6l5 -36q-23 -10 -59 -10q-52 0 -77 32q-27 32 -27 114v305h-75v38h75v86zM107 -214l-13 26q77 14 77 68q0 36 -37 61l41 12q38 -24 38 -70q0 -44 -32 -68t-74 -29z" />
    <glyph glyph-name="Tcaron" unicode="&#x164;" horiz-adv-x="424" 
d="M190 0v635h-192v39h430v-39h-192v-635h-46zM232 710h-39l-102 103h52l69 -70h2l68 70h50z" />
    <glyph glyph-name="tcaron" unicode="&#x165;" horiz-adv-x="292" 
d="M91 566l46 19v-105h123v-38h-123v-316q0 -95 65 -95q30 0 47 6l5 -36q-23 -10 -59 -10q-52 0 -77 32q-27 32 -27 114v305h-75v38h75v86zM240 540l-21 19q37 35 37 79q0 37 -37 62l43 11q36 -23 36 -68q0 -27 -14 -52t-20.5 -31t-23.5 -20z" />
    <glyph glyph-name="Tbar" unicode="&#x166;" horiz-adv-x="424" 
d="M428 635h-192v-259h117v-38h-117v-338h-46v338h-117v38h117v259h-192v39h430v-39z" />
    <glyph glyph-name="tbar" unicode="&#x167;" horiz-adv-x="282" 
d="M260 442h-123v-142h97v-38h-97v-136q0 -95 65 -95q31 0 46 6l6 -36q-23 -10 -59 -10q-52 0 -77 32q-27 32 -27 114v125h-64v38h64v142h-75v38h75v86l46 19v-105h123v-38z" />
    <glyph glyph-name="Utilde" unicode="&#x168;" horiz-adv-x="567" 
d="M76 674h46v-423q0 -114 43.5 -167.5t114.5 -53.5q78 0 122 54.5t44 166.5v423h46v-418q0 -139 -60 -202.5t-155 -63.5q-88 0 -144.5 60.5t-56.5 195.5v428zM206 717h-32q0 36 16 60t44 24q20 0 53 -20q34 -17 48 -17q25 0 27 37h32q0 -79 -60 -79q-19 0 -55 19
q-34 19 -46 19q-22 0 -27 -43z" />
    <glyph glyph-name="utilde" unicode="&#x169;" horiz-adv-x="481" 
d="M407 480v-362q0 -48 4 -118h-43l-3 74h-2q-18 -33 -55.5 -58.5t-89.5 -25.5q-60 0 -103.5 46t-43.5 155v289h46v-280q0 -170 112 -170q46 0 79 28.5t46 64.5q7 26 7 51v306h46zM165 570h-33q-1 38 15 61.5t44 23.5q13 0 55 -21q32 -16 42 -16q25 0 28 40h32
q0 -82 -59 -82q-20 0 -54 19q-31 18 -43 18q-24 0 -27 -43z" />
    <glyph glyph-name="Umacron" unicode="&#x16a;" horiz-adv-x="567" 
d="M76 674h46v-423q0 -114 43.5 -167.5t114.5 -53.5q78 0 122 54.5t44 166.5v423h46v-418q0 -139 -59.5 -202.5t-154.5 -63.5q-89 0 -145.5 60.5t-56.5 195.5v428zM174 772h220v-38h-220v38z" />
    <glyph glyph-name="umacron" unicode="&#x16b;" horiz-adv-x="481" 
d="M407 480v-362q0 -48 4 -118h-43l-3 74h-2q-18 -33 -55.5 -58.5t-89.5 -25.5q-60 0 -103.5 46t-43.5 155v289h46v-280q0 -170 112 -170q46 0 79 28.5t46 64.5q7 26 7 51v306h46zM138 625h203v-38h-203v38z" />
    <glyph glyph-name="Ubreve" unicode="&#x16c;" horiz-adv-x="567" 
d="M76 674h46v-423q0 -114 43.5 -167.5t114.5 -53.5q78 0 122 54.5t44 166.5v423h46v-418q0 -139 -60 -202.5t-155 -63.5q-88 0 -144.5 60.5t-56.5 195.5v428zM175 814h33q12 -48 76 -48q66 0 76 48h33q-1 -40 -29 -65.5t-81 -25.5q-51 0 -79 25t-29 66z" />
    <glyph glyph-name="ubreve" unicode="&#x16d;" horiz-adv-x="481" 
d="M407 480v-362q0 -48 4 -118h-43l-3 74h-2q-18 -33 -55.5 -58.5t-89.5 -25.5q-60 0 -103.5 46t-43.5 155v289h46v-280q0 -170 112 -170q46 0 79 28.5t46 64.5q7 26 7 51v306h46zM130 672h34q4 -31 24.5 -51.5t51.5 -20.5q34 0 54 21t22 51h34q0 -50 -30.5 -80.5
t-79.5 -30.5q-56 0 -83.5 33t-26.5 78z" />
    <glyph glyph-name="Uring" unicode="&#x16e;" horiz-adv-x="567" 
d="M76 674h46v-423q0 -114 43.5 -167.5t114.5 -53.5q78 0 122 54.5t44 166.5v423h46v-418q0 -139 -59.5 -202.5t-154.5 -63.5q-89 0 -145.5 60.5t-56.5 195.5v428zM285 861h1q38 0 63 -25t25 -61q0 -35 -26 -59t-63 -24q-39 0 -64.5 24t-25.5 59q0 36 25.5 61t64.5 25z
M284 833h-1q-22 0 -35.5 -17t-13.5 -41q0 -21 14.5 -37.5t35.5 -16.5q22 0 36.5 16t14.5 40t-14.5 40t-36.5 16z" />
    <glyph glyph-name="uring" unicode="&#x16f;" horiz-adv-x="481" 
d="M407 480v-362q0 -48 4 -118h-43l-3 74h-2q-18 -33 -55.5 -58.5t-89.5 -25.5q-60 0 -103.5 46t-43.5 155v289h46v-280q0 -170 112 -170q46 0 79 28.5t46 64.5q7 26 7 51v306h46zM241 710h1q38 0 63.5 -26t25.5 -63q0 -36 -27 -61.5t-63 -25.5q-38 0 -64.5 25.5t-26.5 61.5
q0 37 26 63t65 26zM241 680h-1q-23 0 -37 -17t-14 -42q0 -22 15 -39.5t37 -17.5q23 0 38 17t15 41q0 25 -15 41.5t-38 16.5z" />
    <glyph glyph-name="Uhungarumlaut" unicode="&#x170;" horiz-adv-x="567" 
d="M76 674h46v-423q0 -114 43.5 -167.5t114.5 -53.5q78 0 122 54.5t44 166.5v423h46v-418q0 -139 -59.5 -202.5t-154.5 -63.5q-89 0 -145.5 60.5t-56.5 195.5v428zM270 820h67l-113 -104h-40zM393 820h67l-114 -104h-39z" />
    <glyph glyph-name="uhungarumlaut" unicode="&#x171;" horiz-adv-x="481" 
d="M407 480v-362q0 -48 4 -118h-43l-3 74h-2q-18 -33 -55.5 -58.5t-89.5 -25.5q-60 0 -103.5 46t-43.5 155v289h46v-280q0 -170 112 -170q46 0 79 28.5t46 64.5q7 26 7 51v306h46zM239 684h62l-115 -129h-34zM362 684h61l-114 -129h-34z" />
    <glyph glyph-name="Uogonek" unicode="&#x172;" horiz-adv-x="567" 
d="M367 -144l8 -29q-25 -19 -65 -19q-36 0 -58 19.5t-22 54.5q0 49 56 109q-2 0 -5 -0.5t-4 -0.5q-90 2 -145.5 62t-55.5 194v428h46v-423q0 -114 43.5 -167.5t114.5 -53.5q78 0 122 54.5t44 166.5v423h46v-418q0 -109 -40.5 -171.5t-107.5 -80.5q-28 -23 -49 -54t-21 -59
q0 -22 13 -34t34 -12q24 0 46 11z" />
    <glyph glyph-name="uogonek" unicode="&#x173;" horiz-adv-x="481" 
d="M407 480v-362q0 -73 7 -118l-4 3q-53 -65 -53 -116q0 -24 13 -36.5t34 -12.5q26 0 46 10l8 -30q-26 -18 -66 -18q-35 0 -57 20t-22 55q0 47 55 128l-3 71h-2q-18 -33 -55.5 -58.5t-89.5 -25.5q-60 0 -103.5 46t-43.5 155v289h46v-280q0 -170 112 -170q46 0 79 28.5
t46 64.5q7 26 7 51v306h46z" />
    <glyph glyph-name="Wcircumflex" unicode="&#x174;" horiz-adv-x="766" 
d="M227 0h-43l-166 674h47l91 -374q37 -154 51 -236h3q10 70 55 237l99 373h44l92 -368q42 -172 51 -242h3q11 63 55 238l99 372h47l-183 -674h-43l-96 390q-37 156 -47 226h-2q-12 -78 -53 -227zM362 813h40l102 -103h-52l-69 68h-2l-68 -68h-50z" />
    <glyph glyph-name="wcircumflex" unicode="&#x175;" horiz-adv-x="666" 
d="M21 480h47l75 -267q25 -91 38 -152h3q11 53 43 152l86 267h42l82 -263q26 -82 44 -156h3q10 51 40 153l77 266h47l-148 -480h-39l-84 269q-26 82 -43 157h-2q-15 -65 -45 -159l-87 -267h-40zM315 685h34l88 -136h-45l-59 97h-2l-59 -97h-43z" />
    <glyph glyph-name="Ycircumflex" unicode="&#x176;" horiz-adv-x="469" 
d="M259 0h-46v295l-195 379h52l98 -193q59 -122 70 -149h2q15 37 73 150l101 192h51l-206 -379v-295zM217 813h40l101 -103h-52l-68 68h-2l-68 -68h-50z" />
    <glyph glyph-name="ycircumflex" unicode="&#x177;" horiz-adv-x="403" 
d="M13 480h49l110 -307q17 -50 32 -106h2q18 58 33 108l103 305h49l-121 -332q-45 -129 -76.5 -198t-74.5 -112q-41 -40 -80 -56l-18 39q46 21 80 59q45 51 70 113q5 15 5 23t-4 20zM184 685h33l88 -136h-45l-59 97h-2l-59 -97h-42z" />
    <glyph glyph-name="Ydieresis" unicode="&#x178;" horiz-adv-x="469" 
d="M259 0h-46v295l-195 379h52l98 -193q59 -122 70 -149h2q15 37 73 150l101 192h51l-206 -379v-295zM162 717h-1q-16 0 -25.5 11t-9.5 28q0 15 10.5 26.5t25.5 11.5q16 0 26 -11t10 -27q0 -17 -9.5 -28t-26.5 -11zM327 717h-1q-16 0 -25.5 11t-9.5 28q0 15 10.5 26.5
t25.5 11.5q16 0 26 -11t10 -27q0 -17 -9.5 -28t-26.5 -11z" />
    <glyph glyph-name="Zacute" unicode="&#x179;" horiz-adv-x="479" 
d="M31 0v30l357 603v2h-328v39h385v-30l-357 -602v-3h360v-39h-417zM312 820h71l-129 -110h-41z" />
    <glyph glyph-name="zacute" unicode="&#x17a;" horiz-adv-x="369" 
d="M15 0v28l233 344q20 29 49 68v2h-261v38h316v-30l-233 -343q-24 -36 -46 -67v-2h279v-38h-337zM246 685h66l-118 -136h-35z" />
    <glyph glyph-name="Zdotaccent" unicode="&#x17b;" horiz-adv-x="479" 
d="M31 0v30l357 603v2h-328v39h385v-30l-357 -602v-3h360v-39h-417zM247 725h-1q-14 0 -24.5 11.5t-10.5 25.5q0 15 11 26t26 11t25 -11t10 -26t-10.5 -26t-25.5 -11z" />
    <glyph glyph-name="zdotaccent" unicode="&#x17c;" horiz-adv-x="369" 
d="M16 0v28l232 344q20 29 49 68v2h-260v38h316l-1 -30l-232 -343q-24 -36 -46 -67v-2h279v-38h-337zM188 575h-1q-15 0 -25.5 11.5t-10.5 26.5q0 14 11 25.5t26 11.5t25.5 -11t10.5 -26t-10.5 -26.5t-25.5 -11.5z" />
    <glyph glyph-name="Zcaron" unicode="&#x17d;" horiz-adv-x="479" 
d="M31 0v30l357 603v2h-328v39h385v-30l-357 -602v-3h360v-39h-417zM272 710h-40l-102 103h52l69 -70h2l68 70h50z" />
    <glyph glyph-name="zcaron" unicode="&#x17e;" horiz-adv-x="369" 
d="M15 0v28l233 344q20 29 49 68v2h-261v38h316v-30l-233 -343q-24 -36 -46 -67v-2h279v-38h-337zM217 549h-36l-88 136h45l60 -97h2l60 97h43z" />
    <glyph glyph-name="florin" unicode="&#x192;" horiz-adv-x="449" 
d="M100 362v37h99l8 56q27 205 163 205q38 -2 58 -14l-11 -35q-28 10 -53 10q-93 0 -111 -161l-8 -61h120v-37h-124l-30 -232q-13 -105 -47 -157.5t-104 -52.5q-41 2 -66 17l13 34q23 -13 58 -13q46 0 69.5 43t33.5 129l27 232h-95z" />
    <glyph glyph-name="AEacute" unicode="&#x1fc;" horiz-adv-x="676" 
d="M50 0h-47l286 674h334v-40h-261l25 -260h227v-40h-222l30 -294h225v-40h-266l-28 263h-190zM179 301h171l-20 218q0 4 -4.5 52t-5.5 69h-5q-7 -19 -23.5 -60t-22.5 -57zM463 820h71l-129 -110h-41z" />
    <glyph glyph-name="aeacute" unicode="&#x1fd;" horiz-adv-x="683" 
d="M644 253h-299q-3 -113 39.5 -168t114.5 -55q68 0 113 26l12 -36q-51 -30 -132 -30q-57 0 -102.5 30t-61.5 83h-2q-16 -53 -59 -83t-99 -30q-62 0 -96.5 37.5t-34.5 91.5q0 83 68.5 128t196.5 44v26q0 20 -4.5 40t-15 42.5t-34.5 37t-58 14.5q-61 0 -106 -33l-15 34
q57 38 125 38q116 0 138 -109h1q20 51 60 80t92 29q47 0 81 -22.5t50 -58t23 -67t7 -60.5q0 -20 -2 -29zM302 163v90q-218 5 -218 -129q0 -45 25.5 -70t63.5 -25q49 -1 81.5 27t43.5 72q4 16 4 35zM346 291h252q2 62 -29 111t-88 49q-61 0 -96.5 -49.5t-38.5 -110.5z
M404 685h66l-118 -136h-35z" />
    <glyph glyph-name="Oslashacute" unicode="&#x1fe;" horiz-adv-x="597" 
d="M82 -28l-28 21l58 90q-75 93 -75 250q0 166 76 258.5t188 92.5q89 0 158 -60l52 78l31 -20l-57 -87q75 -94 75 -252q0 -89 -22 -158.5t-59.5 -111t-83 -62.5t-95.5 -21q-96 0 -163 63zM139 127l295 458q-57 59 -134 59q-54 0 -97 -28t-67.5 -73t-37.5 -98t-13 -108
q0 -115 52 -211zM458 551l-297 -459q54 -62 137 -62q69 0 119 47t72.5 115.5t22.5 147.5q0 120 -52 210zM369 827h71l-129 -110h-41z" />
    <glyph glyph-name="oslashacute" unicode="&#x1ff;" horiz-adv-x="478" 
d="M240 490h1q62 0 111 -37l34 53l31 -19l-38 -61q60 -69 60 -182q0 -125 -60 -189.5t-140 -64.5q-65 0 -112 37l-35 -54l-29 22l37 58q-61 69 -61 184q0 120 58.5 186.5t142.5 66.5zM125 93l204 322q-33 36 -90 36q-77 0 -115 -65t-38 -147q0 -84 38 -145zM353 384
l-203 -321q35 -34 86 -34q72 0 114 63t42 150q0 81 -37 142h-2zM293 685h66l-118 -136h-35z" />
    <glyph glyph-name="Scommaaccent" unicode="&#x218;" horiz-adv-x="427" 
d="M39 32l17 38q58 -39 130 -39q69 0 110 38t41 101q0 54 -29 91t-93 67q-160 66 -160 186q0 74 52 121.5t132 47.5q77 0 120 -30l-18 -39q-41 29 -106 29q-67 0 -100.5 -36.5t-33.5 -83.5q0 -55 30 -88t99 -65q79 -39 116 -83.5t37 -112.5q0 -79 -53.5 -131t-146.5 -52
q-39 0 -80 12t-64 29zM159 -209l-13 26q77 14 77 69q0 35 -37 61l41 11q38 -24 38 -70q0 -44 -32 -68t-74 -29z" />
    <glyph glyph-name="scommaaccent" unicode="&#x219;" horiz-adv-x="341" 
d="M37 23l18 39q45 -31 97 -31q49 0 76 25t27 65q0 37 -21 61.5t-70 47.5q-114 54 -114 133q0 54 38.5 90.5t100.5 36.5q55 0 98 -29l-19 -38q-38 27 -86 27q-40 0 -63 -23.5t-23 -56.5t19.5 -53.5t68.5 -44.5q57 -26 87 -59t30 -84q0 -63 -42.5 -100.5t-109.5 -37.5
q-63 0 -112 32zM119 -209l-14 26q77 14 77 69q0 34 -36 61l40 11q38 -24 38 -70q0 -43 -32 -67.5t-73 -29.5z" />
    <glyph glyph-name="uni021A" unicode="&#x21a;" horiz-adv-x="424" 
d="M190 0v635h-192v39h430v-39h-192v-635h-46zM157 -209l-14 26q77 14 77 68q0 36 -37 61l41 12q38 -24 38 -70q0 -43 -32 -67.5t-73 -29.5z" />
    <glyph glyph-name="uni021B" unicode="&#x21b;" horiz-adv-x="282" 
d="M91 566l46 19v-105h123v-38h-123v-316q0 -95 65 -95q30 0 47 6l5 -36q-23 -10 -59 -10q-52 0 -77 32q-27 32 -27 114v305h-75v38h75v86zM107 -214l-13 26q77 14 77 68q0 36 -37 61l41 12q38 -24 38 -70q0 -44 -32 -68t-74 -29z" />
    <glyph glyph-name="circumflex" unicode="&#x2c6;" 
d="M133 685h33l88 -136h-45l-59 97h-2l-58 -97h-43z" />
    <glyph glyph-name="caron" unicode="&#x2c7;" 
d="M169 549h-36l-88 136h45l60 -97h2l60 97h43z" />
    <glyph glyph-name="uni02C9" unicode="&#x2c9;" 
d="M49 625h203v-38h-203v38z" />
    <glyph glyph-name="breve" unicode="&#x2d8;" 
d="M40 672h34q4 -31 24.5 -51.5t51.5 -20.5q34 0 54 21t22 51h34q0 -50 -30.5 -80.5t-79.5 -30.5q-55 0 -82.5 32.5t-27.5 78.5z" />
    <glyph glyph-name="dotaccent" unicode="&#x2d9;" 
d="M151 575h-1q-15 0 -25.5 11.5t-10.5 26.5q0 14 11 25.5t26 11.5t25.5 -11t10.5 -26t-10.5 -26.5t-25.5 -11.5z" />
    <glyph glyph-name="ring" unicode="&#x2da;" horiz-adv-x="400" 
d="M201 710h1q38 0 63.5 -26t25.5 -63q0 -36 -27 -61.5t-63 -25.5q-38 0 -64.5 25.5t-26.5 61.5q0 37 26 63t65 26zM201 680h-1q-23 0 -37 -17t-14 -42q0 -22 15 -39.5t37 -17.5q23 0 38 17t15 41q0 25 -15 41.5t-38 16.5z" />
    <glyph glyph-name="ogonek" unicode="&#x2db;" 
d="M146 5h40q-65 -76 -65 -116q0 -23 13.5 -35.5t33.5 -12.5q23 0 46 10l8 -28q-23 -19 -65 -19q-36 0 -58 19t-22 54q0 59 69 128z" />
    <glyph glyph-name="tilde" unicode="&#x2dc;" 
d="M75 570h-33q-1 38 15 61.5t44 23.5q13 0 55 -21q32 -16 42 -16q25 0 28 40h32q0 -82 -59 -82q-20 0 -54 19q-31 18 -43 18q-24 0 -27 -43z" />
    <glyph glyph-name="hungarumlaut" unicode="&#x2dd;" 
d="M145 684h61l-114 -129h-34zM267 684h62l-114 -129h-34z" />
    <glyph glyph-name="uni037E" unicode="&#x37e;" horiz-adv-x="177" 
d="M70 -121l-37 -5q11 34 24.5 101t17.5 111l62 5q-10 -49 -32.5 -118.5t-34.5 -93.5zM101 348h-1q-17 0 -28.5 13t-11.5 32q0 20 11.5 33.5t29.5 13.5t29.5 -13t11.5 -34q0 -19 -11.5 -32t-29.5 -13z" />
    <glyph glyph-name="tonos" unicode="&#x384;" 
d="M129 686h56l-75 -136h-32z" />
    <glyph glyph-name="dieresistonos" unicode="&#x385;" horiz-adv-x="293" 
d="M137 693h50l-41 -144h-27zM49 577h-1q-16 0 -26 10.5t-10 25.5t10.5 25.5t26.5 10.5q14 0 24 -10t10 -26q0 -15 -9.5 -25.5t-24.5 -10.5zM244 577h-1q-14 0 -24 10.5t-10 25.5t10.5 25.5t25.5 10.5t25 -10t10 -26q0 -15 -10 -25.5t-26 -10.5z" />
    <glyph glyph-name="Alphatonos" unicode="&#x386;" horiz-adv-x="536" 
d="M388 235h-237l-74 -235h-47l218 674h45l218 -674h-48zM164 274h211l-71 215q-18 58 -33 129h-3q-10 -47 -33 -128zM89 674h50l-31 -141h-28z" />
    <glyph glyph-name="anoteleia" unicode="&#x387;" horiz-adv-x="177" 
d="M88 276h-1q-17 0 -28.5 13t-11.5 32q0 20 11.5 33.5t29.5 13.5t29.5 -13t11.5 -34q0 -19 -11.5 -32t-29.5 -13z" />
    <glyph glyph-name="Epsilontonos" unicode="&#x388;" horiz-adv-x="466" 
d="M406 375v-40h-242v-295h272v-40h-318v674h303v-40h-257v-259h242zM10 674h50l-31 -141h-29z" />
    <glyph glyph-name="Etatonos" unicode="&#x389;" horiz-adv-x="612" 
d="M118 674h46v-298h326v298h46v-674h-46v336h-326v-336h-46v674zM10 674h50l-31 -141h-29z" />
    <glyph glyph-name="Iotatonos" unicode="&#x38a;" horiz-adv-x="239" 
d="M118 674h46v-674h-46v674zM10 674h50l-31 -141h-29z" />
    <glyph glyph-name="Omicrontonos" unicode="&#x38c;" horiz-adv-x="615" 
d="M313 -10h-1q-111 0 -184 90.5t-73 251.5q0 166 75.5 259t191.5 93q113 0 184.5 -90.5t71.5 -251.5q0 -172 -76.5 -262t-188.5 -90zM315 30h1q69 0 119 46t72.5 114.5t22.5 149.5q0 54 -12.5 106t-37 97.5t-67 73t-96.5 27.5q-72 0 -122 -47.5t-71 -115.5t-21 -148
q0 -76 22.5 -143t72 -113.5t117.5 -46.5zM9 674h50l-30 -141h-29z" />
    <glyph glyph-name="Upsilontonos" unicode="&#x38e;" horiz-adv-x="605" 
d="M100 644l10 36q25 -3 60.5 -24.5t60.5 -50.5q96 -105 115 -278h2q25 164 126 272q60 64 118 81l10 -35q-26 -13 -54 -36t-60 -60.5t-60 -96t-45 -129.5q-16 -68 -16 -131v-192h-46v193q0 66 -13 131q-30 141 -88.5 219.5t-119.5 100.5zM10 674h50l-31 -141h-29z" />
    <glyph glyph-name="Omegatonos" unicode="&#x38f;" horiz-adv-x="624" 
d="M454 44v-3h138v-41h-204v34q64 47 105 135t40 185q0 68 -21 131.5t-71 111t-120 47.5q-53 0 -95 -26.5t-67.5 -69.5t-38.5 -92.5t-13 -100.5q0 -94 42 -185.5t102 -135.5v-34h-203v41h137v3q-56 52 -91 133.5t-35 178.5q0 150 76 239t190 89q112 0 184 -88.5t72 -234.5
q0 -102 -35 -184.5t-92 -132.5zM10 674h50l-31 -141h-28z" />
    <glyph glyph-name="iotadieresistonos" unicode="&#x390;" horiz-adv-x="195" 
d="M120 480v-390q0 -35 8.5 -48.5t35.5 -12.5l-4 -37q-14 -2 -22 -2q-64 0 -64 96v394h46zM97 679h50l-41 -144h-27zM9 564h-1q-15 0 -25 10t-10 25q0 14 10.5 24t25.5 10q14 0 23.5 -10t9.5 -24t-9.5 -24.5t-23.5 -10.5zM205 564h-1q-14 0 -23.5 10.5t-9.5 24.5t10.5 24
t24.5 10t24 -10t10 -24q0 -15 -10 -25t-25 -10z" />
    <glyph glyph-name="Alpha" unicode="&#x391;" horiz-adv-x="536" 
d="M388 235h-237l-74 -235h-47l218 674h45l218 -674h-48zM164 274h211l-71 215q-18 58 -33 129h-3q-10 -47 -33 -128z" />
    <glyph glyph-name="Beta" unicode="&#x392;" horiz-adv-x="465" 
d="M76 1v664q59 14 122 14q111 0 164 -53q41 -41 41 -111q0 -52 -31.5 -92.5t-82.5 -58.5v-2q55 -13 96.5 -57t41.5 -117q0 -79 -49 -131q-58 -62 -194 -62q-39 0 -108 6zM122 633v-254h81q67 0 109.5 38t42.5 95q0 128 -160 128q-49 0 -73 -7zM122 341v-302q21 -5 71 -5
q82 0 134 37.5t52 115.5q0 76 -52.5 115t-133.5 39h-71z" />
    <glyph glyph-name="Gamma" unicode="&#x393;" horiz-adv-x="397" 
d="M76 674h303v-39h-257v-635h-46v674z" />
    <glyph glyph-name="uni0394" unicode="&#x394;" horiz-adv-x="547" 
d="M31 0v32l219 642h45l219 -642v-32h-483zM78 40h388l-145 424q-37 111 -48 154h-3q-13 -54 -44 -143z" />
    <glyph glyph-name="Epsilon" unicode="&#x395;" horiz-adv-x="425" 
d="M364 375v-40h-242v-295h272v-40h-318v674h303v-40h-257v-259h242z" />
    <glyph glyph-name="Zeta" unicode="&#x396;" horiz-adv-x="479" 
d="M31 0v30l357 603v2h-328v39h385v-30l-357 -602v-3h360v-39h-417z" />
    <glyph glyph-name="Eta" unicode="&#x397;" horiz-adv-x="570" 
d="M76 674h46v-298h326v298h46v-674h-46v336h-326v-336h-46v674z" />
    <glyph glyph-name="Theta" unicode="&#x398;" horiz-adv-x="597" 
d="M295 -10h-1q-111 0 -184 90.5t-73 251.5q0 166 75.5 259t191.5 93q113 0 184.5 -90t71.5 -252q0 -171 -76.5 -261.5t-188.5 -90.5zM297 30h1q69 0 119 46t72.5 114.5t22.5 149.5q0 54 -12.5 106t-37 97.5t-67 73t-96.5 27.5q-72 0 -122 -47.5t-71 -115.5t-21 -147
q0 -76 22.5 -143.5t72 -114t117.5 -46.5zM164 370h269v-40h-269v40z" />
    <glyph glyph-name="Iota" unicode="&#x399;" horiz-adv-x="198" 
d="M76 674h46v-674h-46v674z" />
    <glyph glyph-name="Kappa" unicode="&#x39a;" horiz-adv-x="460" 
d="M76 0v674h46v-338h3q11 15 29.5 39.5t24.5 32.5l212 266h56l-232 -286l250 -388h-54l-228 355l-61 -75v-280h-46z" />
    <glyph glyph-name="Lambda" unicode="&#x39b;" horiz-adv-x="536" 
d="M511 0h-48l-159 489q-18 58 -33 129h-3q-9 -44 -33 -129l-158 -489h-47l218 674h45z" />
    <glyph glyph-name="Mu" unicode="&#x39c;" horiz-adv-x="717" 
d="M613 0l-19 321q-13 221 -11 296h-4q-43 -144 -81 -252l-129 -365h-29l-121 354q-57 167 -80 263h-3q-2 -121 -13 -305l-18 -312h-46l45 674h53l130 -376q53 -161 69 -222h3q18 77 69 221l132 377h56l43 -674h-46z" />
    <glyph glyph-name="Nu" unicode="&#x39d;" horiz-adv-x="577" 
d="M120 0h-45v674h45l225 -383q78 -139 117 -226l2 1q-8 117 -8 284v324h45v-674h-44l-224 384q-82 144 -117 226l-3 -1q7 -104 7 -285v-324z" />
    <glyph glyph-name="Xi" unicode="&#x39e;" horiz-adv-x="461" 
d="M46 674h376v-40h-376v40zM76 372h316v-40h-316v40zM38 40h392v-40h-392v40z" />
    <glyph glyph-name="Omicron" unicode="&#x39f;" horiz-adv-x="597" 
d="M295 -10h-1q-111 0 -184 90.5t-73 251.5q0 166 75.5 259t191.5 93q113 0 184.5 -90.5t71.5 -251.5q0 -172 -76.5 -262t-188.5 -90zM297 30h1q69 0 119 46t72.5 114.5t22.5 149.5q0 54 -12.5 106t-37 97.5t-67 73t-96.5 27.5q-72 0 -122 -47.5t-71 -115.5t-21 -148
q0 -76 22.5 -143t72 -113.5t117.5 -46.5z" />
    <glyph glyph-name="Pi" unicode="&#x3a0;" horiz-adv-x="554" 
d="M477 674v-674h-46v634h-309v-634h-46v674h401z" />
    <glyph glyph-name="Rho" unicode="&#x3a1;" horiz-adv-x="460" 
d="M76 0v666q65 13 129 13q109 0 163 -54q50 -50 50 -133q0 -81 -42 -132q-60 -77 -185 -77q-45 0 -69 6v-289h-46zM122 633v-303q25 -8 71 -8q83 0 130.5 42.5t47.5 123.5q0 72 -44.5 112t-123.5 40q-44 0 -81 -7z" />
    <glyph glyph-name="Sigma" unicode="&#x3a3;" horiz-adv-x="495" 
d="M82 44v-4h386v-40h-447v32l237 303l-223 306v33h400v-39h-339v-3l214 -295z" />
    <glyph glyph-name="Tau" unicode="&#x3a4;" horiz-adv-x="424" 
d="M190 0v635h-192v39h430v-39h-192v-635h-46z" />
    <glyph glyph-name="Upsilon" unicode="&#x3a5;" horiz-adv-x="516" 
d="M11 644l10 36q25 -3 60.5 -24.5t60.5 -50.5q96 -105 115 -278h2q25 164 126 272q60 64 118 81l10 -35q-26 -13 -54 -36t-60 -60.5t-60 -96t-45 -129.5q-16 -68 -16 -131v-192h-46v193q0 66 -13 131q-30 141 -88.5 219.5t-119.5 100.5z" />
    <glyph glyph-name="Phi" unicode="&#x3a6;" horiz-adv-x="610" 
d="M327 31v-50h-46v50q-45 3 -86.5 22t-77.5 53.5t-58 93.5t-22 134q0 144 75 225t171 86v48h46v-48q100 -6 172 -87.5t72 -220.5q0 -145 -73 -223t-173 -83zM282 66v544q-76 -3 -136.5 -76.5t-60.5 -197.5q0 -116 56.5 -187.5t140.5 -82.5zM328 610v-544q83 7 140 80
t57 192q0 122 -58.5 194t-138.5 78z" />
    <glyph glyph-name="Chi" unicode="&#x3a7;" horiz-adv-x="496" 
d="M468 0h-52l-94 171q-48 80 -75 134h-3q-28 -58 -73 -135l-89 -170h-53l193 342l-186 332h52l98 -179q31 -52 62 -112h2q18 38 62 113l100 178h53l-191 -327z" />
    <glyph glyph-name="Psi" unicode="&#x3a8;" horiz-adv-x="599" 
d="M549 674v-196q0 -116 -59.5 -182t-167.5 -74v-222h-46v222q-100 6 -163 65t-63 176v211h46v-202q0 -200 180 -212v414h46v-414q80 5 130.5 60t50.5 160v194h46z" />
    <glyph glyph-name="uni03A9" unicode="&#x3a9;" horiz-adv-x="607" 
d="M437 44v-3h139v-41h-205v34q65 48 106 136t40 185q0 67 -21 130.5t-71 111t-120 47.5q-69 0 -120 -45.5t-73 -109.5t-22 -133q0 -93 42 -185t103 -137v-34h-204v41h138v3q-55 53 -91 135t-36 178q0 150 76 238.5t190 88.5q113 0 185 -88t72 -234q0 -101 -36 -183.5
t-92 -134.5z" />
    <glyph glyph-name="Iotadieresis" unicode="&#x3aa;" horiz-adv-x="198" 
d="M17 710h-1q-15 0 -25 11t-10 26t10.5 26t26.5 11q15 0 25 -11t10 -26t-10 -26t-26 -11zM180 710h-1q-15 0 -25 11t-10 26t10.5 26t26.5 11q15 0 25 -11t10 -26t-10 -26t-26 -11zM76 674h46v-674h-46v674z" />
    <glyph glyph-name="Upsilondieresis" unicode="&#x3ab;" horiz-adv-x="516" 
d="M181 698h-1q-15 0 -25 11t-10 26t10.5 26t26.5 11q15 0 25 -11t10 -26t-10 -26t-26 -11zM343 698h-1q-15 0 -25 11t-10 26t10.5 26t26.5 11q15 0 25 -11t10 -26t-10 -26t-26 -11zM11 644l10 36q25 -3 60.5 -24.5t60.5 -50.5q96 -105 115 -278h2q25 164 126 272
q60 64 118 81l10 -35q-26 -13 -54 -36t-60 -60.5t-60 -96t-45 -129.5q-16 -68 -16 -131v-192h-46v193q0 66 -13 131q-30 141 -88.5 219.5t-119.5 100.5z" />
    <glyph glyph-name="alphatonos" unicode="&#x3ac;" horiz-adv-x="482" 
d="M259 674h57l-76 -136h-32zM380 480h38q-4 -28 -8 -144t-3 -229q0 -78 43 -79l-6 -37q-5 -1 -15 -1q-26 0 -44 24t-18 78h-3q-21 -44 -59 -73t-91 -29q-78 0 -126.5 65t-48.5 176q0 115 57 187t134 72q102 0 139 -99h4q3 54 7 89zM86 229v-1q0 -80 36.5 -139.5
t100.5 -59.5q46 0 84.5 40.5t50.5 97.5q6 27 6 81q0 43 -3 65q-9 55 -45 96.5t-84 41.5q-64 0 -105 -63t-41 -159z" />
    <glyph glyph-name="epsilontonos" unicode="&#x3ad;" horiz-adv-x="384" 
d="M239 674h56l-75 -136h-32zM160 258v4q-95 21 -95 104q0 50 45 87t120 37q79 0 119 -32l-13 -34q-14 10 -45 19t-63 9q-52 0 -84 -24.5t-32 -61.5q0 -43 39.5 -65t98.5 -22h50v-38h-54q-71 0 -115 -26.5t-44 -78.5q0 -49 39.5 -78t98.5 -29q36 0 73.5 10.5t56.5 22.5
l11 -35q-20 -15 -61 -26t-85 -11q-74 0 -127 35.5t-53 108.5q0 47 33.5 82t86.5 42z" />
    <glyph glyph-name="etatonos" unicode="&#x3ae;" horiz-adv-x="487" 
d="M276 674h56l-75 -136h-32zM116 401h2q18 39 57 64t90 25q17 0 34.5 -4t39 -16.5t38 -32t27.5 -55t11 -81.5v-325q0 -129 10 -172h-44q-12 40 -12 160v329q0 69 -27 113t-90 44q-44 0 -79.5 -30t-47.5 -77q-5 -20 -5 -42v-301h-46v366q0 75 -12 114h41q11 -25 13 -79z" />
    <glyph glyph-name="iotatonos" unicode="&#x3af;" horiz-adv-x="195" 
d="M122 674h56l-75 -136h-31zM120 480v-390q0 -35 8.5 -48.5t35.5 -12.5l-4 -37q-14 -2 -22 -2q-64 0 -64 96v394h46z" />
    <glyph glyph-name="upsilondieresistonos" unicode="&#x3b0;" horiz-adv-x="455" 
d="M328 480h45q13 -27 24 -82t11 -112q0 -58 -8 -106.5t-27.5 -93.5t-57.5 -70.5t-91 -25.5q-69 0 -112 43.5t-43 125.5v155q0 134 -9 166h42q13 -16 13 -90v-218q0 -73 33 -107.5t79 -34.5q66 0 100.5 63.5t34.5 184.5q0 64 -11 120.5t-23 81.5zM218 679h50l-42 -144h-27z
M129 564h-1q-15 0 -25 10t-10 25q0 14 10.5 24t25.5 10q14 0 23.5 -10t9.5 -24t-9.5 -24.5t-23.5 -10.5zM325 564h-1q-14 0 -23.5 10.5t-9.5 24.5t10.5 24t24.5 10t24 -10t10 -24q0 -15 -10 -25t-25 -10z" />
    <glyph glyph-name="alpha" unicode="&#x3b1;" horiz-adv-x="482" 
d="M380 480h38q-4 -28 -8 -144t-3 -229q0 -78 43 -79l-6 -37q-5 -1 -15 -1q-26 0 -44 24t-18 78h-3q-21 -44 -59 -73t-91 -29q-78 0 -126.5 65t-48.5 176q0 115 57 187t134 72q102 0 139 -99h4q3 54 7 89zM86 229v-1q0 -80 36.5 -139.5t100.5 -59.5q46 0 84.5 40.5
t50.5 97.5q6 27 6 81q0 43 -3 65q-9 55 -45 96.5t-84 41.5q-64 0 -105 -63t-41 -159z" />
    <glyph glyph-name="beta" unicode="&#x3b2;" horiz-adv-x="492" 
d="M121 52h-2v-76q0 -129 10 -172h-43q-13 39 -13 154v501q0 143 65 210q45 46 115 46q61 0 104 -47.5t43 -118.5q0 -62 -27.5 -102.5t-64.5 -57.5v-4q61 -12 103 -59.5t42 -134.5q0 -95 -56.5 -148t-131.5 -53q-90 0 -144 62zM119 460v-345q20 -36 58.5 -61t85.5 -25
q62 0 102.5 45.5t40.5 112.5q0 81 -45.5 125.5t-121.5 46.5h-25v39q12 0 18 1q57 4 89 44.5t32 100.5q0 55 -29.5 93.5t-76.5 38.5q-64 0 -96 -57t-32 -159z" />
    <glyph glyph-name="gamma" unicode="&#x3b3;" horiz-adv-x="393" 
d="M216 -196h-47q9 189 -19 301q-25 105 -69.5 210t-82.5 165h53q38 -65 82 -179t65 -218h3q123 233 123 369v28h44q2 -14 2 -30q0 -154 -152 -416q-5 -8 -5 -24q3 -65 3 -206z" />
    <glyph glyph-name="delta" unicode="&#x3b4;" horiz-adv-x="477" 
d="M404 668l-19 -34q-55 42 -123 42q-41 0 -63.5 -16t-22.5 -38q0 -15 10.5 -31.5t20.5 -26.5t40 -37l74 -69q116 -99 116 -226q0 -108 -56 -175t-142 -67q-82 0 -141 63.5t-59 175.5q0 88 49 154t128 108v4l-21 17q-64 59 -64 105q0 38 35.5 68t102.5 30q82 0 135 -47z
M294 425l-48 41q-160 -88 -160 -238q0 -94 47.5 -146.5t108.5 -52.5q64 0 106 53.5t42 145.5q0 115 -96 197z" />
    <glyph glyph-name="epsilon" unicode="&#x3b5;" horiz-adv-x="384" 
d="M160 259v4q-46 10 -70.5 37.5t-24.5 65.5q0 50 45 87t120 37q79 0 119 -31l-13 -35q-14 10 -45 19t-63 9q-52 0 -84 -24.5t-32 -61.5q0 -43 39.5 -65t98.5 -22h50v-38h-54q-71 0 -115 -26.5t-44 -78.5q0 -49 39.5 -78t98.5 -29q36 0 74 10.5t56 23.5l11 -36
q-20 -15 -61 -26t-85 -11q-74 0 -127 35.5t-53 108.5q0 47 33.5 82.5t86.5 42.5z" />
    <glyph glyph-name="zeta" unicode="&#x3b6;" horiz-adv-x="360" 
d="M299 -134l-35 10q14 21 25.5 58t12.5 56q-59 9 -110 26q-152 49 -152 217q0 112 67.5 231.5t181.5 195.5v3h-77q-81 0 -110 9l7 35q18 -3 103 -5h139l9 -36q-117 -67 -195.5 -188t-78.5 -237q0 -85 34.5 -127t99.5 -63q51 -17 124 -26q8 -2 8 -11q0 -34 -17 -79t-36 -69z
" />
    <glyph glyph-name="eta" unicode="&#x3b7;" horiz-adv-x="487" 
d="M116 401h2q18 39 57 64t90 25q17 0 34.5 -4t39 -16.5t38 -32t27.5 -55t11 -81.5v-325q0 -129 10 -172h-44q-12 40 -12 160v329q0 69 -27 113t-90 44q-44 0 -79.5 -30t-47.5 -77q-5 -20 -5 -42v-301h-46v366q0 75 -12 114h41q11 -25 13 -79z" />
    <glyph glyph-name="theta" unicode="&#x3b8;" horiz-adv-x="464" 
d="M233 -10h-1q-89 0 -141 90t-52 278q0 165 53.5 261t143.5 96q92 0 140.5 -91.5t48.5 -265.5q0 -368 -192 -368zM85 384h294q0 127 -38 209.5t-111 82.5q-65 0 -105 -86t-40 -206zM379 346h-294q0 -149 41.5 -233t108.5 -84q71 0 107.5 86t36.5 231z" />
    <glyph glyph-name="iota" unicode="&#x3b9;" horiz-adv-x="195" 
d="M120 480v-390q0 -35 8.5 -48.5t35.5 -12.5l-4 -37q-14 -2 -22 -2q-64 0 -64 96v394h46z" />
    <glyph glyph-name="kappa" unicode="&#x3ba;" horiz-adv-x="422" 
d="M179 259v-2q32 -9 68 -45.5t82 -96.5l85 -115h-54l-81 109q-45 56 -80.5 87t-68.5 31h-9v-227h-46v382q0 74 -10 98h43q13 -18 13 -79v-143h5q39 38 115.5 115t108.5 107h56v-3q-97 -89 -227 -218z" />
    <glyph glyph-name="lambda" unicode="&#x3bb;" horiz-adv-x="402" 
d="M334 0l-101 305q-20 60 -33 112h-3q-6 -26 -33 -109l-108 -308h-47l159 449q5 13 5 23q0 13 -5 26q-30 91 -58.5 135t-70.5 44q-7 0 -13 -1l6 37q12 2 21 2q56 0 88.5 -50t74.5 -169l167 -496h-49z" />
    <glyph glyph-name="uni03BC" unicode="&#x3bc;" horiz-adv-x="483" 
d="M368 71h-3q-18 -31 -52.5 -55.5t-79.5 -24.5q-82 0 -114 61v-76q0 -129 11 -172h-42q-14 42 -14 161v515h46v-303q0 -63 27 -104.5t87 -41.5q46 0 78 28t45 64q7 26 7 51v306h46v-374q0 -41 9 -59t34 -19l-6 -37q-9 -1 -16 -1q-25 0 -43 19t-20 62z" />
    <glyph glyph-name="nu" unicode="&#x3bd;" horiz-adv-x="399" 
d="M8 480h48l96 -300q2 -5 41 -125h2q96 199 121 297q12 50 12 85v43h43q3 -24 3 -32q0 -59 -29 -145.5t-56.5 -144.5t-79.5 -158h-42z" />
    <glyph glyph-name="xi" unicode="&#x3be;" horiz-adv-x="377" 
d="M314 427v-38h-24q-97 -1 -150 -49.5t-53 -120.5q0 -126 153 -170q46 -13 122 -24q8 -2 8 -11q0 -32 -16.5 -78.5t-34.5 -69.5l-35 10q13 21 25 58t13 56q-46 8 -81.5 17t-75.5 26.5t-65.5 40.5t-42.5 59.5t-17 82.5q0 68 42 120t107 72v5q-52 17 -79.5 54t-27.5 87
q0 66 48 113.5t132 47.5q66 0 100 -24l-14 -36q-37 22 -92 22q-62 0 -94.5 -36.5t-32.5 -85.5q0 -57 40 -91.5t100 -36.5h45z" />
    <glyph glyph-name="omicron" unicode="&#x3bf;" horiz-adv-x="478" 
d="M236 -10h-1q-84 0 -140 66t-56 181q0 120 59 186.5t144 66.5q87 0 142 -66.5t55 -180.5q0 -124 -61 -188.5t-142 -64.5zM237 29h1q68 0 111 63.5t43 149.5q0 47 -13.5 92t-50 81t-89.5 36q-52 0 -88 -34t-50.5 -80t-14.5 -98q0 -84 42 -147t109 -63z" />
    <glyph glyph-name="pi" unicode="&#x3c0;" horiz-adv-x="476" 
d="M444 441h-64v-309q0 -93 13 -132h-45q-14 28 -14 126v315h-169q-3 -111 -23 -246.5t-45 -194.5h-43q26 68 45 197t22 244q-62 0 -92 -9l-9 29q34 19 109 19h322z" />
    <glyph glyph-name="rho" unicode="&#x3c1;" horiz-adv-x="492" 
d="M117 64h-2v-88q0 -126 7 -172h-43q-10 38 -10 160v256q0 132 50 198q24 32 62 52t83 20q87 0 138 -65t51 -177q0 -124 -56.5 -191t-139.5 -67q-45 0 -82.5 20t-57.5 54zM115 242v-62q0 -21 4 -38q14 -54 51.5 -83.5t83.5 -29.5q72 0 112 62t40 156q0 84 -38 143.5
t-108 59.5q-58 0 -101.5 -52t-43.5 -156z" />
    <glyph glyph-name="uni03C2" unicode="&#x3c2;" horiz-adv-x="357" 
d="M350 472l-13 -36q-35 15 -76 15q-80 0 -127.5 -62t-47.5 -145q0 -146 138 -194q48 -15 111 -26q9 -3 9 -13q0 -31 -16.5 -75.5t-34.5 -68.5l-35 10q13 20 25 57t14 56q-47 8 -100 24q-72 24 -115 80.5t-43 143.5q0 102 62 177t164 75q55 0 85 -18z" />
    <glyph glyph-name="sigma" unicode="&#x3c3;" horiz-adv-x="475" 
d="M339 454l-1 -3q45 -32 69 -87t24 -119q0 -124 -60.5 -189.5t-137.5 -65.5q-83 0 -138.5 66.5t-55.5 181.5q0 121 59 186.5t150 65.5h75h33h35h43.5h27.5l-2 -38q-53 0 -121 2zM235 29h1q64 0 106 64.5t42 149.5q0 47 -14 92.5t-49.5 81t-85.5 35.5q-73 0 -111 -65
t-38 -148q0 -84 42 -147t107 -63z" />
    <glyph glyph-name="tau" unicode="&#x3c4;" horiz-adv-x="353" 
d="M269 31l-2 -35q-11 -6 -32 -6q-85 0 -85 132v319h-57q-53 0 -87 -10l-7 28q23 21 94 21h255l-9 -39h-143v-325q0 -86 53 -86q14 0 20 1z" />
    <glyph glyph-name="upsilon" unicode="&#x3c5;" horiz-adv-x="455" 
d="M328 480h45q13 -27 24 -82t11 -112q0 -58 -8 -106.5t-27.5 -93.5t-57.5 -70.5t-91 -25.5q-69 0 -112 43.5t-43 125.5v155q0 134 -9 166h42q13 -16 13 -90v-218q0 -73 33 -107.5t79 -34.5q66 0 100.5 63.5t34.5 184.5q0 64 -11 120.5t-23 81.5z" />
    <glyph glyph-name="phi" unicode="&#x3c6;" horiz-adv-x="551" 
d="M181 491l21 -27q-116 -82 -116 -221q0 -83 42.5 -141.5t124.5 -69.5v333q0 61 25.5 91t66.5 30q62 0 114 -64.5t52 -168.5q0 -117 -61 -183.5t-151 -75.5v-190h-46v190q-40 3 -76.5 18t-68 43.5t-50.5 77t-19 110.5q0 89 43 152.5t99 95.5zM299 366v-334q78 9 121.5 69
t43.5 150q0 81 -37 138.5t-82 57.5q-46 0 -46 -81z" />
    <glyph glyph-name="chi" unicode="&#x3c7;" horiz-adv-x="392" 
d="M22 480h50l125 -283h4q16 42 52 115l76 168h48l-156 -322l162 -346l-43 -15l-145 320h-3q-19 -54 -46 -116l-91 -204l-41 15l157 345z" />
    <glyph glyph-name="psi" unicode="&#x3c8;" horiz-adv-x="557" 
d="M264 -196v186q-90 6 -143.5 58t-53.5 177v150q0 77 -8 105h43q11 -20 11 -90v-155q0 -197 151 -208v572h46v-572q69 5 111.5 75t42.5 183q0 68 -11 122.5t-22 72.5h45q14 -23 24 -75t10 -113q0 -126 -49 -211t-151 -91v-186h-46z" />
    <glyph glyph-name="omega" unicode="&#x3c9;" horiz-adv-x="611" 
d="M328 345l-1 -196q0 -47 26 -83t65 -36q43 0 75 56.5t32 158.5q0 76 -23.5 140.5t-57.5 98.5v2h46q35 -29 58.5 -93.5t23.5 -145.5q0 -123 -46.5 -190t-108.5 -67q-81 0 -111 85h-3q-14 -40 -43.5 -62.5t-70.5 -22.5q-60 0 -105 61.5t-45 188.5q0 78 25 146.5t58 99.5h45
v-2q-34 -36 -57 -100t-23 -145q0 -105 33.5 -157t76.5 -52q37 0 62.5 36t25.5 82l-1 197h44z" />
    <glyph glyph-name="iotadieresis" unicode="&#x3ca;" horiz-adv-x="195" 
d="M17 562h-1q-15 0 -25 11t-10 26t10.5 26t26.5 11q15 0 25 -11t10 -26t-10 -26t-26 -11zM180 562h-1q-15 0 -25 11t-10 26t10.5 26t26.5 11q15 0 25 -11t10 -26t-10 -26t-26 -11zM120 480v-390q0 -35 8.5 -48.5t35.5 -12.5l-4 -37q-14 -2 -22 -2q-64 0 -64 96v394h46z" />
    <glyph glyph-name="upsilondieresis" unicode="&#x3cb;" horiz-adv-x="455" 
d="M140 562h-1q-15 0 -25 11t-10 26t10.5 26t26.5 11q15 0 25 -11t10 -26t-10 -26t-26 -11zM303 562h-1q-15 0 -25 11t-10 26t10.5 26t26.5 11q15 0 25 -11t10 -26t-10 -26t-26 -11zM328 480h45q13 -27 24 -82t11 -112q0 -58 -8 -106.5t-27.5 -93.5t-57.5 -70.5t-91 -25.5
q-69 0 -112 43.5t-43 125.5v155q0 134 -9 166h42q13 -16 13 -90v-218q0 -73 33 -107.5t79 -34.5q66 0 100.5 64t34.5 184q0 64 -11 120.5t-23 81.5z" />
    <glyph glyph-name="omicrontonos" unicode="&#x3cc;" horiz-adv-x="478" 
d="M260 674h56l-75 -136h-31zM236 -10h-1q-84 0 -140 66t-56 181q0 120 59 186.5t144 66.5q87 0 142 -66.5t55 -180.5q0 -124 -61 -188.5t-142 -64.5zM237 29h1q68 0 111 63.5t43 149.5q0 47 -13.5 92t-50 81t-89.5 36q-52 0 -88 -34t-50.5 -80t-14.5 -98q0 -84 42 -147
t109 -63z" />
    <glyph glyph-name="upsilontonos" unicode="&#x3cd;" horiz-adv-x="455" 
d="M246 674h56l-75 -136h-31zM328 480h45q13 -27 24 -82t11 -112q0 -58 -8 -106.5t-27.5 -93.5t-57.5 -70.5t-91 -25.5q-69 0 -112 43.5t-43 125.5v155q0 134 -9 166h42q13 -16 13 -90v-218q0 -73 33 -107.5t79 -34.5q66 0 100.5 63.5t34.5 184.5q0 64 -11 120.5t-23 81.5z
" />
    <glyph glyph-name="omegatonos" unicode="&#x3ce;" horiz-adv-x="611" 
d="M330 674h56l-75 -136h-32zM328 345l-1 -196q0 -47 26 -83t65 -36q43 0 75 56.5t32 158.5q0 76 -23.5 140.5t-57.5 98.5v2h46q35 -29 58.5 -93.5t23.5 -145.5q0 -123 -46.5 -190t-108.5 -67q-81 0 -111 85h-3q-14 -40 -43.5 -62.5t-70.5 -22.5q-60 0 -105 61.5t-45 188.5
q0 78 25 146.5t58 99.5h45v-2q-34 -36 -57 -100t-23 -145q0 -105 33.5 -157t76.5 -52q37 0 62.5 36t25.5 82l-1 197h44z" />
    <glyph glyph-name="afii10023" unicode="&#x401;" horiz-adv-x="425" 
d="M364 375v-40h-242v-295h272v-40h-318v674h303v-40h-257v-259h242zM144 728h-1q-16 0 -25.5 10.5t-9.5 27.5q0 16 10.5 27.5t25.5 11.5q16 0 26 -11t10 -28t-9.5 -27.5t-26.5 -10.5zM308 728h-1q-16 0 -25.5 10.5t-9.5 27.5q0 16 10.5 27.5t25.5 11.5q16 0 26 -11t10 -28
t-9.5 -27.5t-26.5 -10.5z" />
    <glyph glyph-name="afii10051" unicode="&#x402;" horiz-adv-x="577" 
d="M-2 674h440v-40h-221v-232h2q62 42 128 42q95 0 148 -85q43 -70 43 -182q0 -137 -61 -219q-50 -67 -133 -87l-11 33q72 23 112 83q46 70 46 187q0 100 -35 159q-42 70 -120 70q-64 0 -119 -42v-361h-46v634h-173v40z" />
    <glyph glyph-name="afii10052" unicode="&#x403;" horiz-adv-x="373" 
d="M76 674h300v-40h-254v-634h-46v674zM270 820h71l-130 -110h-40z" />
    <glyph glyph-name="afii10053" unicode="&#x404;" horiz-adv-x="507" 
d="M471 658l-15 -38q-46 23 -109 23q-116 0 -185.5 -81.5t-76.5 -195.5h324v-38h-324q0 -75 28 -141.5t87.5 -111t138.5 -44.5q71 0 127 25l11 -36q-58 -29 -147 -29q-130 0 -211.5 96.5t-81.5 251.5q0 142 84 243t225 101q72 0 125 -25z" />
    <glyph glyph-name="afii10054" unicode="&#x405;" horiz-adv-x="427" 
d="M39 32l17 38q58 -39 130 -39q69 0 110 38t41 101q0 55 -29.5 91.5t-93.5 66.5q-159 66 -159 186q0 74 52 121.5t132 47.5q77 0 120 -30l-18 -39q-41 29 -106 29q-67 0 -100.5 -36.5t-33.5 -83.5q0 -55 30 -88t99 -65q79 -39 116 -83.5t37 -112.5q0 -79 -53.5 -131
t-146.5 -52q-39 0 -80 12t-64 29z" />
    <glyph glyph-name="afii10055" unicode="&#x406;" horiz-adv-x="198" 
d="M76 674h46v-674h-46v674z" />
    <glyph glyph-name="afii10056" unicode="&#x407;" horiz-adv-x="198" 
d="M76 674h46v-674h-46v674zM18 727h-1q-16 0 -25.5 11t-9.5 28q0 15 10.5 26.5t25.5 11.5q16 0 26 -11t10 -27q0 -17 -9.5 -28t-26.5 -11zM182 727h-1q-16 0 -25.5 11t-9.5 28q0 15 10.5 26.5t25.5 11.5q16 0 26 -11t10 -27q0 -17 -9.5 -28t-26.5 -11z" />
    <glyph glyph-name="afii10057" unicode="&#x408;" horiz-adv-x="315" 
d="M200 206v468h46v-476q0 -208 -168 -208q-38 0 -70 12l9 39q28 -10 59 -10q64 0 94 37.5t30 137.5z" />
    <glyph glyph-name="afii10058" unicode="&#x409;" horiz-adv-x="765" 
d="M111 674h304v-267q38 4 74 4q103 0 170.5 -51.5t67.5 -150.5q0 -87 -49 -141q-65 -72 -200 -72q-51 0 -109 5v633h-214v-240q0 -60 -0.5 -91.5t-5 -84.5t-12.5 -84.5t-24.5 -63.5t-40.5 -50q-37 -26 -70 -26l-9 37q35 7 58 30q37 34 48.5 116t11.5 210v287zM415 367v-329
q27 -4 71 -4q85 0 139 45.5t54 126.5q0 82 -55.5 123.5t-140.5 41.5q-39 0 -68 -4z" />
    <glyph glyph-name="afii10059" unicode="&#x40a;" horiz-adv-x="794" 
d="M76 674h46v-283h275v283h46v-277q38 4 84 4q99 0 163 -49t64 -145q0 -87 -49 -141q-64 -71 -198 -71q-41 0 -110 6v350h-275v-351h-46v674zM443 357v-319q25 -5 71 -5q84 0 138 44t54 128q0 78 -53.5 117t-136.5 39q-46 0 -73 -4z" />
    <glyph glyph-name="afii10060" unicode="&#x40b;" horiz-adv-x="588" 
d="M-2 674h431v-40h-214v-234h2q73 46 141 46q67 0 109 -40q50 -50 50 -144v-262h-46v253q0 78 -33 117q-32 37 -89 37q-68 0 -134 -46v-361h-46v634h-171v40z" />
    <glyph glyph-name="afii10061" unicode="&#x40c;" horiz-adv-x="458" 
d="M76 674h46v-312h29l231 312h52l-238 -316q80 -8 120 -52.5t68 -125.5q8 -22 19.5 -60t22 -67t22.5 -53h-49q-16 33 -59 169q-26 78 -68 117t-127 39h-23v-325h-46v674zM299 815h71l-129 -110h-41z" />
    <glyph glyph-name="afii10062" unicode="&#x40e;" horiz-adv-x="441" 
d="M6 674h52l137 -308q30 -76 45 -116h2q13 37 40 118l109 306h48l-126 -329q-3 -9 -17.5 -48t-22.5 -59.5t-21.5 -54t-27 -59.5t-26.5 -48q-60 -86 -131 -86q-22 0 -31 3l5 38q5 -1 19 -1q88 0 148 152q9 20 -2 44zM109 798h43q3 -12 6.5 -20.5t10.5 -18.5t20.5 -15.5
t31.5 -5.5q35 0 49 16.5t19 43.5h44q-10 -94 -113 -94q-53 0 -80.5 25.5t-30.5 68.5z" />
    <glyph glyph-name="afii10145" unicode="&#x40f;" horiz-adv-x="556" 
d="M76 674h46v-634h314v634h46v-674h-178l-6 -158h-39l-6 158h-177v674z" />
    <glyph glyph-name="afii10017" unicode="&#x410;" horiz-adv-x="536" 
d="M388 235h-237l-74 -235h-47l218 674h45l218 -674h-48zM164 274h211l-71 215q-18 58 -33 129h-3q-10 -47 -33 -128z" />
    <glyph glyph-name="afii10018" unicode="&#x411;" horiz-adv-x="472" 
d="M76 674h309v-40h-263v-227q38 4 73 4q98 0 158 -44q80 -53 80 -159q0 -87 -49 -142q-64 -71 -199 -71q-40 0 -109 6v673zM122 367v-329q25 -5 71 -5q102 0 154 60q38 44 38 113q0 82 -59 126q-52 39 -136 39q-39 0 -68 -4z" />
    <glyph glyph-name="afii10019" unicode="&#x412;" horiz-adv-x="465" 
d="M76 1v664q59 14 122 14q111 0 164 -53q41 -41 41 -111q0 -52 -31.5 -92.5t-82.5 -58.5v-2q55 -13 96.5 -57t41.5 -117q0 -79 -49 -131q-58 -62 -194 -62q-39 0 -108 6zM122 633v-254h81q67 0 109.5 38t42.5 95q0 128 -160 128q-49 0 -73 -7zM122 341v-302q21 -5 71 -5
q82 0 134 37.5t52 115.5q0 76 -52.5 115t-133.5 39h-71z" />
    <glyph glyph-name="afii10020" unicode="&#x413;" horiz-adv-x="373" 
d="M76 674h300v-40h-254v-634h-46v674z" />
    <glyph glyph-name="afii10021" unicode="&#x414;" horiz-adv-x="546" 
d="M152 674h304v-634h50l-4 -191h-39l-4 151h-402l-4 -151h-39l-4 191h46q49 103 65 162q31 117 31 314v158zM195 634v-139q0 -189 -31 -304q-19 -68 -60 -151h306v594h-215z" />
    <glyph glyph-name="afii10022" unicode="&#x415;" horiz-adv-x="425" 
d="M364 375v-40h-242v-295h272v-40h-318v674h303v-40h-257v-259h242z" />
    <glyph glyph-name="afii10024" unicode="&#x416;" horiz-adv-x="685" 
d="M27 674h51l212 -313h30v313h45v-313h31l210 313h52l-221 -316q73 -8 110.5 -51.5t63.5 -125.5q3 -9 23.5 -77.5t35.5 -103.5h-48q-13 25 -32 91.5t-22 75.5q-13 41 -25 66.5t-32 48.5t-49 33.5t-71 10.5h-26v-326h-45v326h-27q-42 0 -71.5 -10.5t-49.5 -33.5t-32 -48.5
t-26 -66.5q-2 -7 -21 -74.5t-31 -92.5h-48q12 26 22 56t20.5 68.5t16.5 56.5q26 81 64.5 125t110.5 52z" />
    <glyph glyph-name="afii10025" unicode="&#x417;" horiz-adv-x="433" 
d="M65 600l-16 35q67 49 150 49q75 0 121.5 -42.5t46.5 -117.5q0 -59 -38.5 -105.5t-97.5 -61.5v-2q74 -8 117.5 -54.5t43.5 -119.5q0 -92 -59.5 -141.5t-153.5 -49.5q-87 0 -151 40l18 37q62 -38 135 -38q77 0 120 42t43 109q0 78 -56.5 116t-138.5 38h-24v38h22
q70 0 121.5 44.5t51.5 103.5t-35.5 91.5t-94.5 32.5q-62 0 -125 -44z" />
    <glyph glyph-name="afii10026" unicode="&#x418;" horiz-adv-x="577" 
d="M75 674h45v-324q0 -167 -8 -284l2 -1q36 82 118 225l225 384h44v-674h-45v324q0 181 7 285l-3 1q-31 -72 -119 -225l-222 -385h-44v674z" />
    <glyph glyph-name="afii10027" unicode="&#x419;" horiz-adv-x="577" 
d="M75 674h45v-324q0 -167 -8 -284l2 -1q36 82 118 225l225 384h44v-674h-45v324q0 181 7 285l-3 1q-31 -72 -119 -225l-222 -385h-44v674zM176 800h43q3 -12 6.5 -20.5t10.5 -18.5t20.5 -15.5t32.5 -5.5q58 0 67 60h44q-9 -94 -113 -94q-53 0 -80.5 25.5t-30.5 68.5z" />
    <glyph glyph-name="afii10028" unicode="&#x41a;" horiz-adv-x="458" 
d="M76 674h46v-312h29l231 312h52l-238 -316q80 -8 120 -52.5t68 -125.5q8 -22 19.5 -60t22 -67t22.5 -53h-49q-16 33 -59 169q-26 78 -68 117t-127 39h-23v-325h-46v674z" />
    <glyph glyph-name="afii10029" unicode="&#x41b;" horiz-adv-x="513" 
d="M109 674h327v-674h-46v634h-236v-240q0 -77 -1.5 -116t-8.5 -100t-25 -99t-48 -59q-34 -26 -73 -26l-6 37q31 6 56 29q38 34 49.5 117t11.5 210v287z" />
    <glyph glyph-name="afii10030" unicode="&#x41c;" horiz-adv-x="717" 
d="M613 0l-19 321q-13 221 -11 296h-4q-43 -144 -81 -252l-129 -365h-29l-121 354q-57 167 -80 263h-3q-2 -121 -13 -305l-18 -312h-46l45 674h53l130 -376q53 -161 69 -222h3q18 77 69 221l132 377h56l43 -674h-46z" />
    <glyph glyph-name="afii10031" unicode="&#x41d;" horiz-adv-x="570" 
d="M76 674h46v-298h326v298h46v-674h-46v336h-326v-336h-46v674z" />
    <glyph glyph-name="afii10032" unicode="&#x41e;" horiz-adv-x="597" 
d="M295 -10h-1q-111 0 -184 90.5t-73 251.5q0 166 75.5 259t191.5 93q113 0 184.5 -90.5t71.5 -251.5q0 -172 -76.5 -262t-188.5 -90zM297 30h1q69 0 119 46t72.5 114.5t22.5 149.5q0 54 -12.5 106t-37 97.5t-67 73t-96.5 27.5q-72 0 -122 -47.5t-71 -115.5t-21 -148
q0 -76 22.5 -143t72 -113.5t117.5 -46.5z" />
    <glyph glyph-name="afii10033" unicode="&#x41f;" horiz-adv-x="558" 
d="M76 674h407v-674h-46v634h-315v-634h-46v674z" />
    <glyph glyph-name="afii10034" unicode="&#x420;" horiz-adv-x="460" 
d="M76 0v666q65 13 129 13q109 0 163 -54q50 -50 50 -133q0 -81 -42 -132q-60 -77 -185 -77q-45 0 -69 6v-289h-46zM122 633v-303q25 -8 71 -8q83 0 130.5 42.5t47.5 123.5q0 72 -44.5 112t-123.5 40q-44 0 -81 -7z" />
    <glyph glyph-name="afii10035" unicode="&#x421;" horiz-adv-x="507" 
d="M464 59l14 -38q-56 -30 -156 -30q-56 0 -106 19.5t-90.5 59t-64.5 107t-24 155.5q0 163 84.5 257t219.5 94q88 0 133 -25l-15 -40q-52 25 -119 25q-115 0 -185 -80t-70 -229q0 -146 67 -224t183 -78q80 0 129 27z" />
    <glyph glyph-name="afii10036" unicode="&#x422;" horiz-adv-x="424" 
d="M190 0v635h-192v39h430v-39h-192v-635h-46z" />
    <glyph glyph-name="afii10037" unicode="&#x423;" horiz-adv-x="441" 
d="M6 674h52l137 -308q30 -76 45 -116h2q13 37 40 118l109 306h48l-126 -329q-3 -9 -17.5 -48t-22.5 -59.5t-21.5 -54t-27 -59.5t-26.5 -48q-60 -86 -131 -86q-22 0 -31 3l5 38q5 -1 19 -1q88 0 148 152q9 20 -2 44z" />
    <glyph glyph-name="afii10038" unicode="&#x424;" horiz-adv-x="617" 
d="M286 698h46v-60q49 -2 92 -20t78.5 -52.5t56 -93.5t20.5 -135q0 -80 -21.5 -139.5t-58.5 -92t-78.5 -49t-90.5 -18.5v-62h-46v62q-49 3 -89.5 18.5t-78 47.5t-58.5 90.5t-21 139.5t22 141t59.5 93.5t79 50.5t88.5 19v60zM285 73v530q-38 -2 -71.5 -16.5t-63.5 -44.5
t-47.5 -83t-17.5 -123q0 -125 56 -189t144 -74zM331 603v-530q88 7 144 72t56 193q0 133 -57.5 197.5t-142.5 67.5z" />
    <glyph glyph-name="afii10039" unicode="&#x425;" horiz-adv-x="496" 
d="M468 0h-52l-94 171q-48 80 -75 134h-3q-28 -58 -73 -135l-89 -170h-53l193 342l-186 332h52l98 -179q31 -52 62 -112h2q18 38 62 113l100 178h53l-191 -327z" />
    <glyph glyph-name="afii10040" unicode="&#x426;" horiz-adv-x="570" 
d="M76 674h46v-634h312v634h46v-634h50l-4 -191h-39l-4 151h-407v674z" />
    <glyph glyph-name="afii10041" unicode="&#x427;" horiz-adv-x="518" 
d="M71 674h46v-227q0 -153 143 -153q73 0 136 40v340h46v-677h-46v297h-2q-67 -40 -149 -40q-31 0 -57.5 7t-55 25.5t-45 57.5t-16.5 95v235z" />
    <glyph glyph-name="afii10042" unicode="&#x428;" horiz-adv-x="738" 
d="M75 674h46v-634h225v634h46v-634h225v634h46v-674h-588v674z" />
    <glyph glyph-name="afii10043" unicode="&#x429;" horiz-adv-x="752" 
d="M75 674h46v-634h225v634h46v-634h225v634h46v-634h49l-4 -191h-39l-4 151h-590v674z" />
    <glyph glyph-name="afii10044" unicode="&#x42a;" horiz-adv-x="553" 
d="M-3 674h211v-267q38 4 71 4q101 0 168 -51.5t67 -151.5q0 -87 -49 -142q-64 -71 -197 -71q-37 0 -106 6v633h-165v40zM208 367v-329q33 -5 68 -5q85 0 137.5 45.5t52.5 127.5q0 81 -54.5 123t-135.5 42q-39 0 -68 -4z" />
    <glyph glyph-name="afii10045" unicode="&#x42b;" horiz-adv-x="635" 
d="M76 674h46v-268q24 5 73 5q106 0 172 -51.5t66 -151.5q0 -86 -48 -140q-67 -73 -201 -73q-39 0 -108 6v673zM122 367v-329q25 -5 70 -5q85 0 139 45.5t54 127.5t-55 123.5t-140 41.5q-50 0 -68 -4zM513 674h46v-674h-46v674z" />
    <glyph glyph-name="afii10046" unicode="&#x42c;" horiz-adv-x="471" 
d="M76 674h46v-268q24 5 73 5q103 0 170.5 -51.5t67.5 -151.5q0 -86 -48 -140q-67 -73 -201 -73q-39 0 -108 6v673zM122 367v-329q25 -5 70 -5q84 0 138.5 45.5t54.5 127.5t-55 123.5t-140 41.5q-41 0 -68 -4z" />
    <glyph glyph-name="afii10047" unicode="&#x42d;" horiz-adv-x="502" 
d="M121 327v40h295q-7 115 -66.5 195.5t-164.5 80.5q-59 0 -126 -30l-15 37q71 33 139 33q93 0 158 -48.5t94.5 -124.5t29.5 -171q0 -150 -79.5 -249t-206.5 -99q-80 0 -150 31l14 39q64 -30 130 -30q77 0 134 44t83 109.5t27 142.5h-296z" />
    <glyph glyph-name="afii10048" unicode="&#x42e;" horiz-adv-x="751" 
d="M76 674h46v-305h103q7 152 74.5 233.5t174.5 81.5q108 0 174 -90t66 -253q0 -172 -71.5 -261.5t-177.5 -89.5q-107 0 -173.5 88t-67.5 251h-102v-329h-46v674zM467 30h1q64 0 110 46t67 114t21 149q0 55 -11.5 107t-34 97.5t-61.5 73t-90 27.5q-66 0 -113 -47.5
t-66.5 -115.5t-19.5 -148q0 -120 52 -211.5t145 -91.5z" />
    <glyph glyph-name="afii10049" unicode="&#x42f;" horiz-adv-x="466" 
d="M66 0h-49q15 30 23 57q6 17 21.5 75t31.5 95.5t40 63.5q25 26 56 34v2q-62 12 -101.5 56.5t-39.5 110.5q0 90 60 139q56 46 157 46q72 0 125 -13v-666h-46v309h-68q-72 0 -105 -37q-21 -22 -35.5 -59t-29.5 -92.5t-20 -71.5q-13 -36 -20 -49zM344 347v286q-32 8 -81 8
q-76 0 -122 -36t-46 -109q0 -69 50 -109.5t129 -40.5q53 0 70 1z" />
    <glyph glyph-name="afii10065" unicode="&#x430;" horiz-adv-x="416" 
d="M346 311v-199q0 -70 6 -112h-42l-6 64h-3q-19 -31 -53.5 -52.5t-80.5 -21.5q-61 0 -95.5 38.5t-34.5 93.5q0 84 68 129.5t195 44.5v14q0 27 -3.5 47.5t-14 44t-34 36t-59.5 12.5q-61 0 -105 -32l-13 34q53 38 125 38q150 0 150 -179zM300 153v104q-215 5 -215 -129
q0 -49 25 -74t62 -25q48 0 80.5 27t43.5 68q4 13 4 29z" />
    <glyph glyph-name="afii10066" unicode="&#x431;" horiz-adv-x="452" 
d="M374 715l-1 -43q-22 -9 -93 -25q-107 -22 -152 -100q-37 -65 -47 -174h2q19 51 61 79t91 28q79 0 128.5 -59t49.5 -177q0 -124 -47 -189t-137 -65q-44 0 -78.5 20t-54.5 50.5t-33 73.5t-17.5 84t-4.5 86q0 166 52 260q28 52 71 80t108 42q83 21 102 29zM366 237v1
q0 34 -6.5 67t-21 65t-43 51.5t-66.5 19.5q-80 0 -116 -75q-21 -46 -21 -108q0 -33 7.5 -70t23 -74.5t44 -61.5t64.5 -24q48 0 80 33.5t43.5 78.5t11.5 97z" />
    <glyph glyph-name="afii10067" unicode="&#x432;" horiz-adv-x="436" 
d="M71 -1v477q53 10 116 10q47 0 85 -8t70 -36t32 -74q0 -42 -27.5 -72.5t-72.5 -40.5v-2q55 -8 88.5 -39t33.5 -83q0 -40 -20.5 -69t-55 -42.5t-69 -19.5t-73.5 -6q-54 0 -107 5zM116 442v-172h69q54 0 98 23.5t44 68.5q0 84 -143 84q-28 0 -68 -4zM115 232v-195
q36 -3 70 -3q29 0 54 4t51.5 13.5t42 30.5t15.5 50q0 100 -169 100h-64z" />
    <glyph glyph-name="afii10068" unicode="&#x433;" horiz-adv-x="337" 
d="M72 480h248v-40h-202v-440h-46v480z" />
    <glyph glyph-name="afii10069" unicode="&#x434;" horiz-adv-x="459" 
d="M120 480h257v-440h45l-4 -183h-38l-4 143h-323l-4 -143h-38l-4 183h35q30 46 49 99q29 93 29 207v134zM162 441v-92q0 -126 -28 -214q-13 -42 -42 -95h239v401h-169z" />
    <glyph glyph-name="afii10070" unicode="&#x435;" horiz-adv-x="438" 
d="M399 249h-314q0 -116 46 -167t118 -51q70 0 116 25l11 -36q-48 -29 -133 -29q-95 0 -149.5 66.5t-54.5 175.5q0 117 54 187t140 70q49 0 84 -22t52 -57t24 -68t7 -65q0 -20 -1 -29zM87 286h265q2 68 -29.5 116.5t-95.5 48.5q-63 0 -98 -49.5t-42 -115.5z" />
    <glyph glyph-name="afii10072" unicode="&#x436;" horiz-adv-x="586" 
d="M20 480h57l177 -219h17v219h44v-219h17l177 219h56l-189 -223q59 -6 95 -38t58 -94q35 -106 46 -125h-47q-12 22 -42 107q-23 69 -60 94t-97 25h-14v-226h-44v226h-14q-65 0 -99.5 -25.5t-59.5 -96.5q-32 -85 -42 -104h-46q9 16 16.5 35t17 48t13.5 39q24 64 59.5 96.5
t94.5 38.5z" />
    <glyph glyph-name="afii10073" unicode="&#x437;" horiz-adv-x="372" 
d="M107 232v38h21q55 0 94.5 27.5t39.5 70.5q0 39 -27.5 61.5t-68.5 22.5q-52 0 -103 -32l-16 32q59 38 126 38q55 0 96 -31t41 -91q0 -42 -31 -72.5t-75 -40.5v-1q57 -5 93 -39t36 -86q0 -68 -51.5 -103.5t-128.5 -35.5q-67 0 -126 32l17 37q55 -31 110 -31q56 0 92.5 29
t36.5 72q0 55 -44 79t-108 24h-24z" />
    <glyph glyph-name="afii10074" unicode="&#x438;" horiz-adv-x="483" 
d="M72 480h45v-226q0 -127 -5 -205h2q63 125 89 172l156 259h52v-480h-45v225q0 122 5 207h-2q-46 -95 -88 -169q-26 -40 -85.5 -141t-72.5 -122h-51v480z" />
    <glyph glyph-name="afii10075" unicode="&#x439;" horiz-adv-x="483" 
d="M72 480h45v-226q0 -127 -5 -205h2q63 125 89 172l156 259h52v-480h-45v225q0 122 5 207h-2q-46 -95 -88 -169q-26 -40 -85.5 -141t-72.5 -122h-51v480zM126 670h42q3 -34 21.5 -55.5t51.5 -21.5q65 0 76 77h41q-9 -110 -118 -110q-104 0 -114 110z" />
    <glyph glyph-name="afii10076" unicode="&#x43a;" horiz-adv-x="415" 
d="M74 480h46v-219h19l198 219h61l-211 -223q63 -6 103.5 -42.5t68.5 -106.5q33 -85 45 -108h-49q-19 35 -43 98q-27 67 -67 97t-110 30h-15v-225h-46v480z" />
    <glyph glyph-name="afii10077" unicode="&#x43b;" horiz-adv-x="443" 
d="M99 480h272v-480h-46v441h-180v-155q0 -120 -15.5 -184t-62.5 -89q-29 -17 -60 -17l-5 38q23 3 42 15q34 23 44.5 76.5t10.5 154.5v200z" />
    <glyph glyph-name="afii10078" unicode="&#x43c;" horiz-adv-x="564" 
d="M41 0l36 480h53l100 -270q41 -113 51 -145h1q13 41 63 178l88 237h54l36 -480h-46l-13 246q-6 102 -10 182h-3q-17 -58 -56 -161l-101 -267h-32l-96 260q-40 117 -54 168h-4q-1 -72 -8 -185l-13 -243h-46z" />
    <glyph glyph-name="afii10079" unicode="&#x43d;" horiz-adv-x="480" 
d="M72 480h46v-209h244v209h46v-480h-46v231h-244v-231h-46v480z" />
    <glyph glyph-name="afii10080" unicode="&#x43e;" horiz-adv-x="478" 
d="M236 -10h-1q-84 0 -140 66t-56 181q0 120 59 186.5t144 66.5q87 0 142 -66.5t55 -180.5q0 -124 -61 -188.5t-142 -64.5zM237 29h1q68 0 111 63.5t43 149.5q0 47 -13.5 92t-50 81t-89.5 36q-52 0 -88 -34t-50.5 -80t-14.5 -98q0 -84 42 -147t109 -63z" />
    <glyph glyph-name="afii10081" unicode="&#x43f;" horiz-adv-x="474" 
d="M72 480h330v-480h-46v440h-238v-440h-46v480z" />
    <glyph glyph-name="afii10082" unicode="&#x440;" horiz-adv-x="497" 
d="M74 -196v524q0 72 -4 152h44l3 -83h2q49 93 155 93q81 0 132.5 -66t51.5 -178q0 -124 -56.5 -190t-139.5 -66q-96 0 -140 80h-2v-266h-46zM120 287v-102q0 -22 4 -38q14 -57 51.5 -87.5t84.5 -30.5q73 0 112 60t39 155q0 86 -39 146.5t-109 60.5q-47 0 -86.5 -35
t-51.5 -89q-5 -32 -5 -40z" />
    <glyph glyph-name="afii10083" unicode="&#x441;" horiz-adv-x="399" 
d="M358 55l12 -36q-51 -28 -122 -28q-94 0 -151.5 67t-57.5 178t62 182.5t162 71.5q71 0 108 -26l-16 -39q-41 24 -97 24q-82 0 -127 -61.5t-45 -150.5q0 -94 47 -150t123 -56q50 0 102 24z" />
    <glyph glyph-name="afii10084" unicode="&#x442;" horiz-adv-x="351" 
d="M11 480h330v-40h-142v-440h-46v440h-142v40z" />
    <glyph glyph-name="afii10085" unicode="&#x443;" horiz-adv-x="403" 
d="M13 480h49l110 -307q17 -50 32 -106h2q18 58 33 108l103 305h49l-121 -332q-45 -129 -76.5 -198t-74.5 -112q-41 -40 -80 -56l-18 39q46 21 80 59q45 51 70 113q5 15 5 23t-4 20z" />
    <glyph glyph-name="afii10086" unicode="&#x444;" horiz-adv-x="544" 
d="M251 705h43v-215q96 -6 153.5 -70.5t57.5 -176.5q0 -117 -57.5 -181t-153.5 -71v-187h-43v187q-97 6 -154.5 70.5t-57.5 176.5q0 116 58 180t154 71v216zM251 28v425q-76 -8 -120.5 -69t-44.5 -145q0 -81 45 -142t120 -69zM294 453v-425q76 9 120 70.5t44 143.5
q0 83 -44 142.5t-120 68.5z" />
    <glyph glyph-name="afii10087" unicode="&#x445;" horiz-adv-x="392" 
d="M21 480h51l74 -115q20 -31 50 -84h2q7 14 15.5 28t19 30.5t15.5 25.5l73 115h52l-153 -234l156 -246h-52l-76 121q-18 27 -54 90h-2q-13 -26 -53 -90l-75 -121h-52l159 245z" />
    <glyph glyph-name="afii10088" unicode="&#x446;" horiz-adv-x="481" 
d="M72 480h46v-440h235v440h46v-440h45l-4 -183h-38l-4 143h-326v480z" />
    <glyph glyph-name="afii10089" unicode="&#x447;" horiz-adv-x="449" 
d="M65 480h46v-175q0 -110 106 -110q63 0 115 37v248h46v-484h-46v197h-1q-57 -36 -124 -36q-63 0 -102.5 33.5t-39.5 104.5v185z" />
    <glyph glyph-name="afii10090" unicode="&#x448;" horiz-adv-x="648" 
d="M72 480h46v-440h183v440h46v-440h183v440h46v-480h-504v480z" />
    <glyph glyph-name="afii10091" unicode="&#x449;" horiz-adv-x="658" 
d="M72 480h46v-440h183v440h46v-440h183v440h46v-440h45l-4 -183h-38l-4 143h-503v480z" />
    <glyph glyph-name="afii10092" unicode="&#x44a;" horiz-adv-x="502" 
d="M12 480h184v-176q46 4 73 4q37 0 70.5 -8t62.5 -25.5t46.5 -48.5t17.5 -73q0 -65 -43 -105q-56 -53 -172 -53q-23 0 -59 2.5t-42 2.5v441h-138v39zM196 265v-228q36 -4 64 -4q68 0 113 28.5t45 89.5q0 63 -46 91t-115 28q-28 0 -61 -5z" />
    <glyph glyph-name="afii10093" unicode="&#x44b;" horiz-adv-x="557" 
d="M72 480h46v-177q32 5 68 5q81 0 136.5 -39t55.5 -116q0 -64 -43 -104q-57 -54 -162 -54q-23 0 -59 2.5t-42 2.5v480zM118 265v-228q24 -4 61 -4q63 0 107 30t44 88q0 61 -43 90t-107 29q-32 0 -62 -5zM441 480h44v-481h-44v481z" />
    <glyph glyph-name="afii10094" unicode="&#x44c;" horiz-adv-x="429" 
d="M72 480h46v-176q40 4 71 4q87 0 145.5 -36.5t58.5 -119.5q0 -63 -43 -103q-57 -54 -177 -54q-23 0 -59 2.5t-42 2.5v480zM118 265v-228q24 -4 64 -4q65 0 114 28.5t49 89.5q0 44 -27 72t-62 37.5t-77 9.5q-36 0 -61 -5z" />
    <glyph glyph-name="afii10095" unicode="&#x44d;" horiz-adv-x="403" 
d="M85 227v38h232q-3 78 -45 131.5t-124 53.5q-50 0 -100 -25l-12 33q53 32 120 32q99 0 158 -73q50 -66 50 -180q0 -101 -57 -173.5t-162 -72.5q-66 0 -118 29l14 36q53 -25 107 -25q75 0 121.5 54t48.5 142h-233z" />
    <glyph glyph-name="afii10096" unicode="&#x44e;" horiz-adv-x="606" 
d="M71 480h45v-215h88q7 104 57.5 164.5t125.5 60.5q79 0 129 -65.5t50 -181.5t-51.5 -184.5t-132.5 -68.5q-76 0 -126 63t-53 173h-87v-226h-45v480zM384 28h1q35 0 62 20t42.5 52.5t23 69t7.5 72.5q0 50 -13.5 96t-45 79.5t-76.5 33.5q-65 0 -100.5 -64.5t-35.5 -149.5
q0 -81 35 -145t100 -64z" />
    <glyph glyph-name="afii10097" unicode="&#x44f;" horiz-adv-x="426" 
d="M354 476v-476h-46v216h-69q-59 0 -88 -26q-18 -14 -29.5 -36.5t-23.5 -62.5t-17 -52q-11 -27 -18 -39h-51q17 28 27 53q5 13 16 50.5t23.5 62t33.5 41.5q22 20 54 26v2q-52 6 -87 37.5t-35 81.5q0 60 50 97q48 35 140 35q62 0 120 -10zM308 254v190q-33 6 -72 6
q-58 0 -101 -22t-43 -75q0 -49 45 -74t96 -25h75z" />
    <glyph glyph-name="afii10071" unicode="&#x451;" horiz-adv-x="438" 
d="M399 249h-314q0 -116 46 -167t118 -51q70 0 116 25l11 -36q-48 -29 -133 -29q-95 0 -149.5 67t-54.5 175q0 117 54 187t140 70q49 0 84 -22t52 -57t24 -68t7 -65q0 -20 -1 -29zM87 286h265q2 69 -29.5 117t-96.5 48q-62 0 -97 -49.5t-42 -115.5zM155 576h-1q-15 0 -25 11
t-10 26t10.5 26t26.5 11q15 0 25 -11t10 -26t-10 -26t-26 -11zM317 576h-1q-15 0 -25 11t-10 26t10.5 26t26.5 11q15 0 25 -11t10 -26t-10 -26t-26 -11z" />
    <glyph glyph-name="afii10099" unicode="&#x452;" horiz-adv-x="492" 
d="M13 612h77v93h46v-93h219v-40h-219v-155h2q59 73 142 73q82 0 124 -75q47 -73 47 -209q0 -184 -76 -274q-49 -57 -120 -66l-10 36q61 13 96 55q63 78 63 245q0 120 -39 190q-33 60 -97 60q-62 0 -111 -64q-21 -30 -21 -74v-314h-46v572h-77v40z" />
    <glyph glyph-name="afii10100" unicode="&#x453;" horiz-adv-x="337" 
d="M72 480h248v-40h-202v-440h-46v480zM242 685h66l-118 -136h-35z" />
    <glyph glyph-name="afii10101" unicode="&#x454;" horiz-adv-x="408" 
d="M381 459l-17 -36q-52 27 -99 27q-83 0 -128 -54t-50 -131h241v-38h-242q2 -88 50 -142t123 -54q55 0 107 25l14 -36q-56 -29 -127 -29q-102 0 -157.5 72.5t-55.5 173.5q0 108 61 180.5t167 72.5q68 0 113 -31z" />
    <glyph glyph-name="afii10102" unicode="&#x455;" horiz-adv-x="341" 
d="M37 23l18 39q45 -31 97 -31q49 0 76 25t27 65q0 37 -20.5 61.5t-69.5 47.5q-115 53 -115 133q0 54 38.5 90.5t100.5 36.5q55 0 98 -29l-19 -38q-38 27 -85 27q-41 0 -64 -23.5t-23 -56.5t19.5 -53.5t68.5 -44.5q57 -26 87 -59t30 -84q0 -64 -42 -101t-110 -37
q-63 0 -112 32z" />
    <glyph glyph-name="afii10103" unicode="&#x456;" horiz-adv-x="195" 
d="M120 0h-46v480h46v-480zM97 573h-1q-15 0 -25 11.5t-10 28.5t10.5 28.5t26.5 11.5t26 -11.5t10 -28.5t-10 -28.5t-27 -11.5z" />
    <glyph glyph-name="afii10104" unicode="&#x457;" horiz-adv-x="195" 
d="M120 0h-46v480h46v-480zM17 576h-1q-15 0 -25 11t-10 26t10.5 26t26.5 11q15 0 25 -11t10 -26t-10 -26t-26 -11zM178 576h-1q-15 0 -25 11t-10 26t10.5 26t26.5 11q15 0 25 -11t10 -26t-10 -26t-26 -11z" />
    <glyph glyph-name="afii10105" unicode="&#x458;" horiz-adv-x="200" 
d="M-34 -206l-7 38q62 7 90 41q17 24 24.5 63t7.5 124v420h46v-448q0 -70 -10 -113t-37 -74q-22 -24 -55.5 -37t-58.5 -14zM104 573h-1q-15 0 -25 11.5t-10 28.5t11 28.5t27 11.5q15 0 25 -11.5t10 -28.5t-10 -28.5t-27 -11.5z" />
    <glyph glyph-name="afii10106" unicode="&#x459;" horiz-adv-x="683" 
d="M104 480h268v-176q42 4 71 4q88 0 146.5 -36.5t58.5 -118.5q0 -64 -43 -104q-57 -54 -178 -54q-23 0 -59 2.5t-42 2.5v441h-177v-156q0 -117 -17.5 -182t-65.5 -92q-30 -15 -59 -15l-5 38q25 4 43 15q35 23 47 78t12 153v200zM372 265v-228q36 -4 64 -4q66 0 115 28.5
t49 89.5q0 64 -47.5 91.5t-114.5 27.5q-33 0 -66 -5z" />
    <glyph glyph-name="afii10107" unicode="&#x45a;" horiz-adv-x="689" 
d="M72 480h46v-191h219v191h46v-182q35 5 73 5q36 0 69.5 -8t63 -25t47 -47.5t17.5 -70.5q0 -65 -44 -106q-54 -51 -171 -51q-47 0 -101 6v248h-219v-249h-46v480zM383 260v-223q36 -4 66 -4q63 0 109.5 28t46.5 88q0 62 -46 89t-113 27q-30 0 -63 -5z" />
    <glyph glyph-name="afii10108" unicode="&#x45b;" horiz-adv-x="503" 
d="M13 612h77v93h46v-93h197v-40h-197v-165h2q21 37 55 58q39 25 90 25q64 0 106 -47t42 -140v-303h-46v295q0 68 -27.5 111.5t-87.5 43.5q-47 0 -81 -30.5t-47 -74.5q-6 -19 -6 -50v-295h-46v572h-77v40z" />
    <glyph glyph-name="afii10109" unicode="&#x45c;" horiz-adv-x="415" 
d="M74 480h46v-219h19l198 219h61l-211 -223q63 -6 103.5 -42.5t68.5 -106.5q33 -85 45 -108h-49q-19 35 -43 98q-27 67 -67 97t-110 30h-15v-225h-46v480zM261 685h66l-118 -136h-35z" />
    <glyph glyph-name="afii10110" unicode="&#x45e;" horiz-adv-x="403" 
d="M14 480h49l109 -307q17 -50 32 -106h2q23 75 34 108l102 305h49l-121 -332q-43 -126 -75.5 -196t-75.5 -114q-43 -42 -80 -56l-17 39q45 22 80 59q43 49 69 113q6 18 6 23q0 9 -5 20zM86 670h42q3 -34 21.5 -55.5t51.5 -21.5q65 0 76 77h41q-9 -110 -118 -110
q-104 0 -114 110z" />
    <glyph glyph-name="afii10193" unicode="&#x45f;" horiz-adv-x="470" 
d="M72 480h46v-440h235v440h46v-480h-140l-5 -145h-36l-6 145h-140v480z" />
    <glyph glyph-name="afii10050" unicode="&#x490;" horiz-adv-x="386" 
d="M76 674h262l15 114h36l-11 -154h-256v-634h-46v674z" />
    <glyph glyph-name="afii10098" unicode="&#x491;" horiz-adv-x="337" 
d="M72 480h205l10 98h36l-6 -137h-199v-441h-46v480z" />
    <glyph glyph-name="afii10846" unicode="&#x4d9;" horiz-adv-x="438" 
d="M72 425l-11 36q48 29 133 29q94 0 148.5 -67t54.5 -175q0 -117 -54 -187t-140 -70q-49 0 -84 22t-51.5 57t-23.5 68t-7 65q0 13 2 29h312q0 116 -46 167t-118 51q-69 0 -115 -25zM349 195h-264q-2 -68 29.5 -116.5t95.5 -48.5q62 0 97 49.5t42 115.5z" />
    <glyph glyph-name="Wgrave" unicode="&#x1e80;" horiz-adv-x="766" 
d="M227 0h-43l-166 674h47l91 -374q37 -154 51 -236h3q10 70 55 237l99 373h44l92 -368q42 -172 51 -242h3q11 63 55 238l99 372h47l-183 -674h-43l-96 390q-37 156 -47 226h-2q-12 -78 -53 -227zM248 820h70l99 -110h-40z" />
    <glyph glyph-name="wgrave" unicode="&#x1e81;" horiz-adv-x="666" 
d="M21 480h47l75 -267q25 -91 38 -152h3q11 53 43 152l86 267h42l82 -263q26 -82 44 -156h3q10 51 40 153l77 266h47l-148 -480h-39l-84 269q-26 82 -43 157h-2q-15 -65 -45 -159l-87 -267h-40zM217 685h66l87 -136h-35z" />
    <glyph glyph-name="Wacute" unicode="&#x1e82;" horiz-adv-x="766" 
d="M227 0h-43l-166 674h47l91 -374q37 -154 51 -236h3q10 70 55 237l99 373h44l92 -368q42 -172 51 -242h3q11 63 55 238l99 372h47l-183 -674h-43l-96 390q-37 156 -47 226h-2q-12 -78 -53 -227zM453 820h71l-129 -110h-40z" />
    <glyph glyph-name="wacute" unicode="&#x1e83;" horiz-adv-x="666" 
d="M21 480h47l75 -267q25 -91 38 -152h3q11 53 43 152l86 267h42l82 -263q26 -82 44 -156h3q10 51 40 153l77 266h47l-148 -480h-39l-84 269q-26 82 -43 157h-2q-15 -65 -45 -159l-87 -267h-40zM391 685h66l-117 -136h-36z" />
    <glyph glyph-name="Wdieresis" unicode="&#x1e84;" horiz-adv-x="766" 
d="M226 0h-42l-166 674h47l90 -374q40 -169 51 -236h3q9 62 56 237l99 373h44l92 -368q42 -172 51 -242h3q11 63 55 238l99 372h47l-183 -674h-43l-96 390q-37 156 -47 226h-2q-13 -83 -54 -227zM301 727h-1q-16 0 -25.5 11t-9.5 28q0 15 10.5 26.5t25.5 11.5q16 0 26 -11
t10 -27q0 -17 -9.5 -28t-26.5 -11zM466 727h-1q-16 0 -25.5 11t-9.5 28q0 15 10.5 26.5t25.5 11.5q16 0 26 -11t10 -27q0 -17 -9.5 -28t-26.5 -11z" />
    <glyph glyph-name="wdieresis" unicode="&#x1e85;" horiz-adv-x="666" 
d="M21 480h47l75 -267q25 -91 38 -152h3q11 53 43 152l86 267h43l82 -263q27 -90 43 -156h3q10 51 40 153l77 266h47l-148 -480h-39l-83 269q-26 78 -44 157h-2q-16 -72 -46 -159l-86 -267h-40zM252 576h-1q-15 0 -25 11t-10 26t10.5 26t26.5 11q15 0 25 -11t10 -26t-10 -26
t-26 -11zM414 576h-1q-15 0 -25 11t-10 26t10.5 26t26.5 11q15 0 25 -11t10 -26t-10 -26t-26 -11z" />
    <glyph glyph-name="Ygrave" unicode="&#x1ef2;" horiz-adv-x="469" 
d="M259 0h-46v295l-195 379h52l98 -193q59 -122 70 -149h2q15 37 73 150l101 192h51l-206 -379v-295zM110 810h70l99 -110h-40z" />
    <glyph glyph-name="ygrave" unicode="&#x1ef3;" horiz-adv-x="403" 
d="M13 480h49l110 -307q17 -50 32 -106h2q18 58 33 108l103 305h49l-121 -332q-45 -129 -76.5 -198t-74.5 -112q-41 -40 -80 -56l-18 39q46 21 80 59q45 51 70 113q5 15 5 23t-4 20zM89 685h65l87 -136h-35z" />
    <glyph glyph-name="endash" unicode="&#x2013;" horiz-adv-x="500" 
d="M30 274h440v-37h-440v37z" />
    <glyph glyph-name="emdash" unicode="&#x2014;" horiz-adv-x="1000" 
d="M30 274h940v-37h-940v37z" />
    <glyph glyph-name="quoteleft" unicode="&#x2018;" horiz-adv-x="172" 
d="M95 477l-58 -10q13 53 38.5 123.5t38.5 93.5l33 5q-12 -32 -28.5 -99t-23.5 -113z" />
    <glyph glyph-name="quoteright" unicode="&#x2019;" horiz-adv-x="172" 
d="M89 679l58 10q-13 -53 -38.5 -123.5t-38.5 -93.5l-33 -5q12 32 28.5 99t23.5 113z" />
    <glyph glyph-name="quotesinglbase" unicode="&#x201a;" horiz-adv-x="172" 
d="M58 -121l-33 -5q12 32 28.5 99t23.5 113l58 10q-13 -53 -38.5 -123.5t-38.5 -93.5z" />
    <glyph glyph-name="quotedblleft" unicode="&#x201c;" horiz-adv-x="291" 
d="M95 477l-58 -10q13 53 38.5 123.5t38.5 93.5l33 5q-12 -32 -28.5 -99t-23.5 -113zM214 477l-58 -10q13 53 38.5 123.5t38.5 93.5l33 5q-12 -32 -28.5 -99t-23.5 -113z" />
    <glyph glyph-name="quotedblright" unicode="&#x201d;" horiz-adv-x="291" 
d="M89 679l58 10q-13 -53 -38.5 -123.5t-38.5 -93.5l-33 -5q12 32 28.5 99t23.5 113zM208 679l58 10q-13 -53 -38.5 -123.5t-38.5 -93.5l-33 -5q12 32 28.5 99t23.5 113z" />
    <glyph glyph-name="quotedblbase" unicode="&#x201e;" horiz-adv-x="291" 
d="M58 -121l-33 -5q12 32 28.5 99t23.5 113l58 10q-13 -53 -38.5 -123.5t-38.5 -93.5zM177 -121l-33 -5q12 32 28.5 99t23.5 113l58 10q-13 -53 -38.5 -123.5t-38.5 -93.5z" />
    <glyph glyph-name="dagger" unicode="&#x2020;" horiz-adv-x="446" 
d="M200 674h46l-5 -214l162 5v-44l-162 6l5 -477h-46l5 477l-162 -6v44l162 -5z" />
    <glyph glyph-name="daggerdbl" unicode="&#x2021;" horiz-adv-x="446" 
d="M199 674h47l-4 -209l160 5v-44l-160 6v-235l160 6v-44l-160 5l4 -214h-47l4 214l-160 -5v44l160 -6v235l-160 -6v44l160 -5z" />
    <glyph glyph-name="bullet" unicode="&#x2022;" horiz-adv-x="245" 
d="M122 170h-1q-36 0 -62 26t-26 63q-1 37 25.5 63t63.5 26t63.5 -26t26.5 -63t-26.5 -63t-63.5 -26z" />
    <glyph glyph-name="ellipsis" unicode="&#x2026;" horiz-adv-x="1000" 
d="M167 -10h-1q-16 0 -27 12.5t-11 30.5q0 19 11 31.5t28 12.5q18 0 28.5 -12.5t10.5 -31.5q0 -18 -10.5 -30.5t-28.5 -12.5zM500 -10h-1q-16 0 -27 12.5t-11 30.5q0 19 11 31.5t28 12.5q18 0 28.5 -12.5t10.5 -31.5q0 -18 -10.5 -30.5t-28.5 -12.5zM833 -10h-1
q-16 0 -27 12.5t-11 30.5q0 19 11 31.5t28 12.5q18 0 28.5 -12.5t10.5 -31.5q0 -18 -10.5 -30.5t-28.5 -12.5z" />
    <glyph glyph-name="perthousand" unicode="&#x2030;" horiz-adv-x="1030" 
d="M168 660h1q57 0 93 -49.5t36 -144.5q0 -98 -38 -149.5t-96 -51.5q-54 0 -91.5 49.5t-38.5 145.5q0 97 39.5 148.5t94.5 51.5zM166 626h-1q-42 0 -65.5 -49t-23.5 -115q-2 -66 22 -114.5t68 -48.5q46 0 68 47.5t22 117.5q0 67 -21.5 114.5t-68.5 47.5zM184 -14h-39
l374 677h40zM543 389h1q57 0 93 -49.5t36 -144.5q0 -98 -38 -149.5t-96 -51.5q-54 0 -91.5 49.5t-38.5 145.5q0 97 39.5 148.5t94.5 51.5zM541 355h-1q-42 0 -65.5 -49t-23.5 -115q-2 -66 22 -114.5t68 -48.5q46 0 68 47.5t22 117.5q0 67 -21.5 114.5t-68.5 47.5zM866 389h1
q57 0 93 -49.5t36 -144.5q0 -98 -38 -149.5t-96 -51.5q-54 0 -91.5 49.5t-38.5 145.5q0 97 39.5 148.5t94.5 51.5zM864 355h-1q-42 0 -65.5 -49t-23.5 -115q-2 -66 22 -114.5t68 -48.5q46 0 68 47.5t22 117.5q0 67 -21.5 114.5t-68.5 47.5z" />
    <glyph glyph-name="guilsinglleft" unicode="&#x2039;" horiz-adv-x="233" 
d="M207 429l-129 -176l130 -177h-48l-130 177l130 176h47z" />
    <glyph glyph-name="guilsinglright" unicode="&#x203a;" horiz-adv-x="233" 
d="M155 253l-130 176h47l131 -176l-130 -177h-47z" />
    <glyph glyph-name="fraction" unicode="&#x2044;" horiz-adv-x="159" 
d="M-86 -10h-39l371 670h39z" />
    <glyph glyph-name="zerosuperior" unicode="&#x2070;" horiz-adv-x="292" 
d="M143 430h-1q-53 0 -86.5 51t-33.5 147q0 97 35.5 149.5t91.5 52.5t88 -50.5t32 -145.5q0 -99 -33.5 -151.5t-92.5 -52.5zM145 464h1q39 0 59.5 45t20.5 123q0 164 -80 164q-37 0 -59 -44.5t-22 -119.5q0 -77 21 -122.5t59 -45.5z" />
    <glyph glyph-name="foursuperior" unicode="&#x2074;" horiz-adv-x="298" 
d="M228 435h-41v112h-175v25l173 253h43v-244h55v-34h-55v-112zM187 581v134q0 12 3 63h-2q-14 -28 -35 -61l-93 -134v-2h127z" />
    <glyph glyph-name="fivesuperior" unicode="&#x2075;" horiz-adv-x="267" 
d="M235 823v-37h-141l-16 -108q16 2 30 2q45 0 79 -20q53 -32 53 -100q0 -57 -38.5 -94t-96.5 -37q-52 0 -90 23l12 33q31 -21 78 -21q39 0 65.5 25t26.5 65q0 43 -27.5 67.5t-80.5 24.5q-25 0 -51 -4l25 181h172z" />
    <glyph glyph-name="sixsuperior" unicode="&#x2076;" horiz-adv-x="293" 
d="M236 830v-36q-24 0 -39 -3q-57 -11 -91 -52.5t-41 -96.5h2q33 48 92 48q50 0 81 -34.5t31 -90.5q0 -55 -33 -95t-88 -40q-57 0 -92.5 44.5t-35.5 118.5q0 110 62 175q42 47 115 58q30 4 37 4zM151 464h1q33 0 54.5 27t21.5 71q0 45 -22.5 69.5t-58.5 24.5
q-24 0 -45 -13.5t-32 -36.5q-6 -9 -6 -22q0 -55 23 -87.5t64 -32.5z" />
    <glyph glyph-name="sevensuperior" unicode="&#x2077;" horiz-adv-x="252" 
d="M15 823h229v-28l-164 -360h-43l162 351v1h-184v36z" />
    <glyph glyph-name="eightsuperior" unicode="&#x2078;" horiz-adv-x="289" 
d="M149 830h1q48 0 76 -28t28 -66q0 -61 -64 -92v-2q78 -33 78 -101q0 -49 -35.5 -80t-88.5 -31q-55 0 -88.5 30t-33.5 73q0 71 77 107v2q-62 29 -62 87q0 44 32 72.5t80 28.5zM144 462h1q36 0 57.5 20.5t21.5 53.5q0 35 -21.5 55.5t-64.5 33.5q-34 -10 -53.5 -33.5
t-19.5 -52.5q0 -33 21.5 -55t57.5 -22zM147 798h-1q-31 0 -49.5 -19t-18.5 -46q0 -55 74 -77q60 25 60 76q0 28 -16 47t-49 19z" />
    <glyph glyph-name="ninesuperior" unicode="&#x2079;" horiz-adv-x="289" 
d="M53 430v36q13 -1 41 2q44 6 78 40q41 41 51 112h-1q-35 -44 -91 -44q-50 0 -79.5 34t-29.5 84q0 56 35 96t90 40t87.5 -44t32.5 -118q0 -113 -65 -182q-41 -44 -102 -52q-24 -4 -47 -4zM142 797h-1q-33 0 -55 -28t-22 -73q0 -39 21 -62.5t56 -23.5q52 0 78 43q5 8 5 19
q0 58 -21 91.5t-61 33.5z" />
    <glyph glyph-name="parenleftsuperior" unicode="&#x207d;" horiz-adv-x="163" 
d="M117 861h35q-76 -102 -76 -245q0 -136 76 -242h-35q-78 103 -78 242q0 142 78 245z" />
    <glyph glyph-name="parenrightsuperior" unicode="&#x207e;" horiz-adv-x="163" 
d="M46 374h-35q76 104 76 244q0 137 -76 243h35q78 -103 78 -243q0 -139 -78 -244z" />
    <glyph glyph-name="zeroinferior" unicode="&#x2080;" horiz-adv-x="292" 
d="M143 -152h-1q-53 0 -86.5 51t-33.5 147q0 97 35.5 149.5t91.5 52.5t88 -50.5t32 -145.5q0 -99 -33.5 -151.5t-92.5 -52.5zM145 -118h1q39 0 59.5 45t20.5 123q0 164 -80 164q-37 0 -59 -44.5t-22 -119.5q0 -77 21 -122.5t59 -45.5z" />
    <glyph glyph-name="oneinferior" unicode="&#x2081;" horiz-adv-x="205" 
d="M140 -147h-40v350h-2l-70 -37l-8 34l85 43h35v-390z" />
    <glyph glyph-name="twoinferior" unicode="&#x2082;" horiz-adv-x="268" 
d="M7 -147v22l56 56q129 127 129 203q0 35 -20.5 57t-59.5 22q-41 0 -78 -32l-15 28q41 39 103 39q57 0 85 -32t28 -74q0 -52 -33.5 -102t-97.5 -112l-36 -37v-2h174v-36h-235z" />
    <glyph glyph-name="threeinferior" unicode="&#x2083;" horiz-adv-x="261" 
d="M39 187l-14 31q44 30 95 30t77 -26t26 -65q0 -28 -18.5 -52.5t-51.5 -37.5v-2q37 -6 61.5 -33.5t24.5 -66.5q0 -48 -36.5 -82.5t-101.5 -34.5q-59 0 -96 26l14 33q32 -25 85 -25q46 0 69.5 24t22.5 57q0 42 -31.5 63t-79.5 21h-20v32h21q33 0 64 19.5t31 56.5
q0 25 -17 42t-49 17q-42 0 -76 -27z" />
    <glyph glyph-name="fourinferior" unicode="&#x2084;" horiz-adv-x="298" 
d="M228 -147h-41v112h-175v25l173 253h43v-244h55v-34h-55v-112zM187 -1v134q0 12 3 63h-2q-14 -28 -35 -61l-93 -134v-2h127z" />
    <glyph glyph-name="fiveinferior" unicode="&#x2085;" horiz-adv-x="267" 
d="M235 241v-37h-141l-16 -107q16 2 30 2q45 0 79 -20q53 -32 53 -100q0 -58 -38.5 -95t-96.5 -37q-52 0 -90 23l12 33q31 -21 78 -21q39 0 65.5 25t26.5 66q0 43 -27.5 67.5t-80.5 24.5q-25 0 -51 -4l25 180h172z" />
    <glyph glyph-name="sixinferior" unicode="&#x2086;" horiz-adv-x="293" 
d="M236 248v-36q-24 0 -39 -3q-57 -11 -91 -52.5t-41 -96.5h2q33 48 92 48q50 0 81 -34.5t31 -90.5q0 -55 -33 -95t-88 -40q-57 0 -92.5 44.5t-35.5 118.5q0 110 62 175q42 47 115 58q30 4 37 4zM151 -118h1q33 0 54.5 27t21.5 71q0 45 -22.5 69.5t-58.5 24.5q-53 0 -77 -50
q-6 -9 -6 -22q0 -55 23 -87.5t64 -32.5z" />
    <glyph glyph-name="seveninferior" unicode="&#x2087;" horiz-adv-x="252" 
d="M15 241h229v-28l-164 -360h-43l162 351v1h-184v36z" />
    <glyph glyph-name="eightinferior" unicode="&#x2088;" horiz-adv-x="289" 
d="M149 248h1q48 0 76 -28t28 -66q0 -61 -64 -92v-2q78 -33 78 -102q0 -48 -35.5 -79t-88.5 -31q-55 0 -88.5 30t-33.5 73q0 71 77 107v2q-62 29 -62 87q0 44 32 72.5t80 28.5zM144 -120h1q36 0 57.5 20.5t21.5 53.5q0 35 -21.5 55.5t-64.5 34.5q-34 -11 -53.5 -34.5
t-19.5 -52.5q0 -33 21.5 -55t57.5 -22zM147 216h-1q-31 0 -49.5 -18.5t-18.5 -46.5q0 -54 74 -76q60 23 60 75q0 28 -16 47t-49 19z" />
    <glyph glyph-name="nineinferior" unicode="&#x2089;" horiz-adv-x="289" 
d="M53 -152v36q13 -1 41 2q44 6 78 40q41 41 51 112h-1q-35 -44 -91 -44q-50 0 -79.5 34t-29.5 84q0 56 35 96t90 40t87.5 -44t32.5 -118q0 -113 -65 -182q-41 -44 -102 -52q-24 -4 -47 -4zM142 215h-1q-33 0 -55 -28t-22 -73q0 -39 21 -62.5t56 -23.5q52 0 78 43q5 8 5 19
q0 58 -21 91.5t-61 33.5z" />
    <glyph glyph-name="parenleftinferior" unicode="&#x208d;" horiz-adv-x="163" 
d="M117 279h35q-76 -102 -76 -245q0 -137 76 -243h-35q-78 103 -78 243t78 245z" />
    <glyph glyph-name="parenrightinferior" unicode="&#x208e;" horiz-adv-x="163" 
d="M46 -209h-35q76 104 76 244q0 138 -76 244h35q78 -105 78 -244t-78 -244z" />
    <glyph glyph-name="Euro" unicode="&#x20ac;" horiz-adv-x="449" 
d="M426 64l14 -34q-54 -40 -131 -40q-98 0 -163 70q-64 71 -76 201h-56v36h53v14q0 20 2 52h-56v36h61q16 126 87 196q67 65 158 65q62 0 111 -31l-15 -37q-41 28 -100 28q-72 0 -122 -48q-58 -58 -73 -173h262v-36h-267q-2 -14 -2 -46v-20h269v-36h-266q11 -112 62 -170
q51 -60 136 -60q59 0 112 33z" />
    <glyph glyph-name="afii61289" unicode="&#x2113;" horiz-adv-x="439" 
d="M149 524v-250q143 151 143 302q0 99 -68 99q-32 0 -53.5 -38.5t-21.5 -112.5zM385 113l26 -23q-55 -99 -163 -99q-72 0 -107 49.5t-37 133.5v11q-20 -17 -54 -40l-18 28q44 33 72 59v277q0 205 129 205q46 0 75 -37t29 -100q0 -175 -188 -355v-20q1 -94 29 -132t79 -38
q72 0 128 81z" />
    <glyph glyph-name="afii61352" unicode="&#x2116;" horiz-adv-x="821" 
d="M654 648h1q62 0 97.5 -44t35.5 -125q0 -85 -40 -128.5t-96 -43.5q-59 0 -98 44.5t-39 124.5q0 81 40.5 126.5t98.5 45.5zM652 615h-1q-45 0 -68.5 -41.5t-23.5 -97.5q0 -55 26.5 -95.5t66.5 -40.5q44 0 68.5 39.5t24.5 97.5q0 55 -22.5 96.5t-70.5 41.5zM766 225h-228v37
h228v-37zM118 0h-44v661h50l188 -368q74 -149 106 -229l2 1q-8 121 -8 283v313h44v-661h-47l-190 372q-77 154 -104 227h-3q6 -110 6 -290v-309z" />
    <glyph glyph-name="trademark" unicode="&#x2122;" horiz-adv-x="567" 
d="M30 674h206v-31h-86v-241h-34v241h-86v31zM549 402h-36l-12 185q-1 21 -3 58h-2q-3 -9 -11 -33.5t-10 -31.5l-57 -174h-40l-59 179q-3 8 -9.5 29.5t-9.5 30.5h-2q0 -16 -2 -58l-12 -185h-34l20 272h52l59 -172q6 -16 17 -57h2q3 9 16 55l59 174h52z" />
    <glyph glyph-name="Omega" unicode="&#x2126;" horiz-adv-x="607" 
d="M437 44v-3h139v-41h-205v34q65 48 106 136t40 185q0 67 -21 130.5t-71 111t-120 47.5q-69 0 -120 -45.5t-73 -109.5t-22 -133q0 -93 42 -185t103 -137v-34h-204v41h138v3q-55 53 -91 135t-36 178q0 150 76 238.5t190 88.5q113 0 185 -88t72 -234q0 -101 -36 -183.5
t-92 -134.5z" />
    <glyph glyph-name="estimated" unicode="&#x212e;" horiz-adv-x="817" 
d="M782 316h-605q-5 0 -5 -4v-183q0 -10 9 -21q93 -99 229 -99q145 0 240 111h55q-52 -61 -130 -96t-166 -35q-155 0 -264.5 98.5t-109.5 237.5t109.5 237.5t264.5 98.5t264 -98.5t109 -237.5v-9zM646 340v184q0 12 -10 22q-95 95 -226 95q-133 0 -228 -98q-10 -10 -10 -23
v-180q0 -5 5 -5h464q5 0 5 5z" />
    <glyph glyph-name="partialdiff" unicode="&#x2202;" horiz-adv-x="465" 
d="M77 644l-17 31q67 49 145 49q91 0 157.5 -89.5t66.5 -258.5q0 -187 -68.5 -286.5t-162.5 -99.5q-79 0 -123 55t-44 147q0 101 60.5 171.5t141.5 70.5q53 0 93 -24.5t58 -59.5h1q1 11 1 37q0 144 -55.5 220t-126.5 76q-77 0 -127 -39zM201 30h1q69 0 118 76t59 186
q-18 45 -57 73.5t-87 28.5q-64 0 -110.5 -57t-46.5 -141q0 -81 33.5 -123.5t89.5 -42.5z" />
    <glyph glyph-name="Delta" unicode="&#x2206;" horiz-adv-x="488" 
d="M471 0h-454v32l205 626h43l206 -626v-32zM423 40l-132 408q-31 92 -47 156h-3q-14 -58 -42 -145l-136 -419h360z" />
    <glyph glyph-name="product" unicode="&#x220f;" horiz-adv-x="536" 
d="M527 610h-82v-700h-46v700h-262v-700h-46v700h-82v40h518v-40z" />
    <glyph glyph-name="summation" unicode="&#x2211;" horiz-adv-x="448" 
d="M459 -90h-453v32l251 336l-237 339v33h406v-39h-346v-3l229 -328l-243 -326v-4h393v-40z" />
    <glyph glyph-name="minus" unicode="&#x2212;" horiz-adv-x="596" 
d="M40 287h516v-39h-516v39z" />
    <glyph glyph-name="uni2215" unicode="&#x2215;" horiz-adv-x="401" 
d="M35 -10h-39l371 670h39z" />
    <glyph glyph-name="uni2219" unicode="&#x2219;" horiz-adv-x="173" 
d="M86 219h-1q-16 0 -27 12.5t-11 29.5q0 19 11 31t28 12q18 0 28.5 -12t10.5 -31q0 -18 -10.5 -30t-28.5 -12z" />
    <glyph glyph-name="radical" unicode="&#x221a;" horiz-adv-x="539" 
d="M544 819l-223 -923h-38l-152 437l-71 -29l-15 34l113 46l125 -370q10 -29 16 -58h1q3 18 11 56l190 807h43z" />
    <glyph glyph-name="infinity" unicode="&#x221e;" horiz-adv-x="713" 
d="M534 129h-1q-15 0 -29.5 3t-29.5 11t-25 13.5t-25.5 19.5t-22 19.5t-23 22.5t-20.5 20q-27 -27 -40.5 -40t-39 -32.5t-51.5 -28t-54 -8.5q-57 0 -94.5 37.5t-37.5 97.5q0 56 40.5 96t99.5 40q18 0 36.5 -6t30.5 -11t32 -21t26 -21t28 -26.5t24 -23.5q34 35 53.5 53
t56.5 37t74 19q57 0 94.5 -38t37.5 -98q0 -55 -40.5 -95t-99.5 -40zM536 168h1q41 0 68.5 28.5t27.5 67.5q0 42 -26.5 69.5t-67.5 27.5q-30 0 -62 -18t-48.5 -33.5t-44.5 -45.5q4 -4 31.5 -30t38.5 -34.5t35 -20t47 -11.5zM176 168h1q29 0 60.5 17.5t48.5 33.5t45 45
q-5 5 -31.5 30.5t-38.5 35t-35.5 20.5t-46.5 11q-41 0 -69 -28.5t-28 -68.5q0 -41 26.5 -68.5t67.5 -27.5z" />
    <glyph glyph-name="integral" unicode="&#x222b;" horiz-adv-x="290" 
d="M276 780l-10 -35q-16 4 -26 4q-28 0 -44 -19q-33 -37 -33 -163q0 -71 4.5 -244t4.5 -242q0 -139 -47 -191q-29 -31 -72 -31q-26 0 -40 8l9 35q20 -5 31 -5q27 0 44 20q34 43 34 166q0 70 -4.5 244t-4.5 243q0 138 46 185q29 32 73 32q21 0 35 -7z" />
    <glyph glyph-name="approxequal" unicode="&#x2248;" horiz-adv-x="596" 
d="M541 405l25 -29q-25 -27 -65 -46.5t-81 -19.5q-21 0 -42.5 4.5t-32.5 8t-31 12.5t-24 11q-6 2 -23 10t-28 12t-29.5 8t-36.5 4q-31 0 -64.5 -16.5t-56.5 -39.5l-25 30q25 26 65.5 45.5t80.5 19.5q21 0 42.5 -4.5t32.5 -8t31 -12.5t24 -11q6 -2 23 -10t28 -12t29.5 -8
t36.5 -4q31 0 64.5 16.5t56.5 39.5zM547 215l25 -29q-25 -27 -65 -46.5t-81 -19.5q-21 0 -42.5 4.5t-32.5 8t-31 12.5t-24 11q-6 2 -23 10t-28 12t-29.5 8t-36.5 4q-31 0 -64.5 -16.5t-56.5 -39.5l-25 30q25 26 65.5 45.5t80.5 19.5q21 0 42.5 -4.5t32.5 -8t31 -12.5t24 -11
q6 -2 23 -10t28 -12t29.5 -8t36.5 -4q31 0 64.5 16.5t56.5 39.5z" />
    <glyph glyph-name="notequal" unicode="&#x2260;" horiz-adv-x="596" 
d="M556 156h-310l-85 -134h-44l86 134h-163v39h188l97 151h-285v39h310l85 134h44l-86 -134h163v-39h-188l-97 -151h285v-39z" />
    <glyph glyph-name="lessequal" unicode="&#x2264;" horiz-adv-x="596" 
d="M525 88l-454 203v38l454 203v-45l-402 -176v-2l402 -177v-44zM525 0h-452v39h452v-39z" />
    <glyph glyph-name="greaterequal" unicode="&#x2265;" horiz-adv-x="596" 
d="M525 291l-454 -203v44l402 177v2l-402 176v45l454 -203v-38zM523 0h-452v39h452v-39z" />
    <glyph glyph-name="lozenge" unicode="&#x25ca;" horiz-adv-x="480" 
d="M430 325l-169 -346h-41l-169 346l169 346h41zM384 324l-135 284q-5 9 -8 20h-2q-3 -11 -8 -20l-134 -282l136 -284q5 -9 8 -20h2q4 13 8 20z" />
    <glyph glyph-name="uniEFED" unicode="&#xefed;" 
d="M151 729h-1q-14 0 -24.5 11.5t-10.5 25.5q0 15 11 26t26 11t25 -11t10 -26t-10.5 -26t-25.5 -11z" />
    <glyph glyph-name="uniEFEE" unicode="&#xefee;" 
d="M41 814h33q12 -48 76 -48q66 0 76 48h33q-1 -40 -29.5 -65.5t-80.5 -25.5q-51 0 -79 25t-29 66z" />
    <glyph glyph-name="uniEFF1" unicode="&#xeff1;" 
d="M146 5h40q-65 -76 -65 -116q0 -23 13.5 -35.5t33.5 -12.5q23 0 46 10l8 -28q-23 -19 -65 -19q-36 0 -58 19t-22 54q0 59 69 128z" />
    <glyph glyph-name="uniEFF2" unicode="&#xeff2;" 
d="M147 2h37l-34 -56q28 -4 47.5 -23.5t19.5 -46.5q0 -36 -26 -55t-63 -19q-32 0 -62 17l13 34q23 -14 52 -14q44 0 44 34q0 38 -75 46z" />
    <glyph glyph-name="uniEFF3" unicode="&#xeff3;" horiz-adv-x="400" 
d="M202 866h1q38 0 63 -25t25 -61q0 -35 -26 -59t-63 -24q-38 0 -63.5 24t-25.5 59q0 36 25.5 61t63.5 25zM202 838h-1q-22 0 -35.5 -17t-13.5 -41q0 -21 14.5 -37.5t35.5 -16.5q22 0 36 16t14 40t-14 40t-36 16z" />
    <glyph glyph-name="uniEFF5" unicode="&#xeff5;" 
d="M72 717h-32q0 36 16 60t44 24q20 0 53 -20q34 -17 48 -17q25 0 27 37h32q0 -79 -60 -79q-19 0 -55 19q-34 19 -46 19q-22 0 -27 -43z" />
    <glyph glyph-name="uniEFF7" unicode="&#xeff7;" 
d="M130 813h39l102 -103h-52l-69 68h-2l-68 -68h-50z" />
    <glyph glyph-name="uniF629" unicode="&#xf629;" horiz-adv-x="282" 
d="M178 -8h-32v61q-50 6 -81 38q-33 38 -33 104q0 58 31 98t83 47v60h32v-59q35 0 63 -15l-11 -33q-26 15 -62 15q-43 0 -68.5 -33t-25.5 -79q0 -51 26 -80.5t67 -29.5q33 0 66 14l9 -30q-24 -15 -64 -18v-60z" />
    <glyph glyph-name="uniF62A" unicode="&#xf62a;" horiz-adv-x="277" 
d="M152 -50h-32v60q-50 0 -86 25l14 33q34 -25 79 -25q32 0 52 18t20 46q0 47 -66 76q-47 20 -70.5 43.5t-23.5 58.5q0 37 23.5 62t61.5 31v61h32v-59q41 -1 71 -21l-12 -32q-27 20 -70 20q-32 0 -48 -16.5t-16 -39.5q0 -24 16 -38.5t56 -33.5q45 -20 66 -45t21 -63
q0 -37 -23.5 -64.5t-64.5 -34.5v-62z" />
    <glyph glyph-name="uniF62B" unicode="&#xf62b;" horiz-adv-x="179" 
d="M18 200h143v-33h-143v33z" />
    <glyph glyph-name="uniF62C" unicode="&#xf62c;" horiz-adv-x="163" 
d="M117 426h35q-76 -102 -76 -245q0 -136 76 -242h-35q-78 103 -78 242q0 142 78 245z" />
    <glyph glyph-name="uniF62D" unicode="&#xf62d;" horiz-adv-x="163" 
d="M46 -61h-35q76 104 76 244q0 137 -76 243h35q78 -103 78 -243q0 -139 -78 -244z" />
    <glyph glyph-name="uniF62E" unicode="&#xf62e;" horiz-adv-x="282" 
d="M178 257h-32v61q-50 6 -81 38q-33 38 -33 104q0 58 31 98t83 47v60h32v-59q35 0 63 -15l-11 -33q-26 15 -62 15q-43 0 -68.5 -33t-25.5 -79q0 -51 26 -80.5t67 -29.5q33 0 66 14l9 -30q-24 -15 -64 -18v-60z" />
    <glyph glyph-name="uniF62F" unicode="&#xf62f;" horiz-adv-x="277" 
d="M152 215h-32v60q-50 0 -86 25l14 33q34 -25 79 -25q32 0 52 18t20 46q0 47 -66 76q-47 20 -70.5 43.5t-23.5 58.5q0 37 23.5 62t61.5 31v61h32v-59q41 -1 71 -21l-12 -32q-27 20 -70 20q-32 0 -48 -16.5t-16 -39.5q0 -24 16 -38.5t56 -33.5q45 -20 66 -45t21 -63
q0 -37 -23.5 -64.5t-64.5 -34.5v-62z" />
    <glyph glyph-name="uniF630" unicode="&#xf630;" horiz-adv-x="179" 
d="M18 465h143v-33h-143v33z" />
    <glyph glyph-name="uniF631" unicode="&#xf631;" horiz-adv-x="163" 
d="M117 691h35q-76 -102 -76 -245q0 -136 76 -242h-35q-78 103 -78 242q0 142 78 245z" />
    <glyph glyph-name="uniF632" unicode="&#xf632;" horiz-adv-x="163" 
d="M46 204h-35q76 104 76 244q0 137 -76 243h35q78 -103 78 -243q0 -139 -78 -244z" />
    <glyph glyph-name="uniF633" unicode="&#xf633;" horiz-adv-x="673" 
d="M420 343l28 134q-22 8 -52 8q-73 0 -125 -64.5t-52 -146.5q0 -38 17.5 -59.5t48.5 -21.5q45 0 84.5 48.5t50.5 101.5zM466 61l14 -32q-69 -41 -165 -41q-120 0 -199 81t-79 221q0 108 43 198t123 144t180 54q116 0 186 -75.5t70 -195.5q0 -119 -48.5 -188.5t-115.5 -69.5
q-29 0 -48 22.5t-15 67.5h-3q-53 -90 -137 -90q-40 0 -68.5 31.5t-28.5 86.5q0 94 66 170t166 76q47 0 88 -16l-39 -189q-25 -122 28 -122q43 -1 77.5 59.5t34.5 148.5q0 115 -57.5 181t-162.5 66q-124 0 -209.5 -99.5t-85.5 -257.5q0 -122 66.5 -194t174.5 -72q82 0 144 35
z" />
    <glyph glyph-name="uniF634" unicode="&#xf634;" 
d="M105 -209l-14 26q77 14 77 68q0 36 -37 61l41 12q38 -24 38 -70q0 -44 -32 -67.5t-73 -29.5z" />
    <glyph glyph-name="uniF638" unicode="&#xf638;" horiz-adv-x="449" 
d="M113 125l205 441q-35 55 -94 55q-65 0 -102.5 -82t-38.5 -211q-1 -121 30 -203zM339 523l-204 -441q36 -53 88 -53q71 0 107 81.5t36 217.5q0 123 -27 195zM407 656l-43 -79q50 -87 50 -246q0 -171 -52.5 -256t-143.5 -85q-58 0 -104 47l-30 -60l-35 20l40 75
q-53 86 -54 251q-1 168 55.5 252.5t141.5 84.5q65 0 107 -48l33 64z" />
    <glyph glyph-name="uniF639" unicode="&#xf639;" horiz-adv-x="449" 
d="M218 -10h-1q-76 0 -128.5 83.5t-53.5 249.5q0 168 56 252.5t141 84.5q81 0 131.5 -82.5t50.5 -246.5q0 -171 -52.5 -256t-143.5 -85zM223 29h1q71 0 106.5 81.5t35.5 217.5q0 133 -35 213t-107 80q-65 0 -103 -82t-38 -211q-2 -133 36 -216t104 -83z" />
    <glyph glyph-name="uniF63A" unicode="&#xf63a;" horiz-adv-x="386" 
d="M358 0h-356v29l56 64q125 131 180.5 215t55.5 168q0 64 -30.5 103.5t-97.5 39.5q-65 0 -124 -51l-19 33q65 59 152 59q83 0 124.5 -52.5t41.5 -124.5q0 -87 -55 -173.5t-173 -213.5l-46 -54v-2h291v-40z" />
    <glyph glyph-name="uniF63B" unicode="&#xf63b;" horiz-adv-x="389" 
d="M7 30l18 37q54 -37 126 -37q79 0 115.5 45t35.5 106q-1 74 -50.5 113.5t-123.5 39.5h-35v38h35q55 0 103 35t48 97q0 52 -29 84t-86 32q-61 0 -113 -42l-18 35q57 47 137 47q77 0 117 -43t40 -106q0 -51 -29.5 -92t-85.5 -63v-2q59 -12 98.5 -56.5t39.5 -115.5
q0 -81 -53.5 -136.5t-150.5 -55.5q-85 0 -139 40z" />
    <glyph glyph-name="uniF63C" unicode="&#xf63c;" horiz-adv-x="439" 
d="M334 0h-45v192h-280v31l284 427h41v-419h92v-39h-92v-192zM64 231h225v249q0 58 4 105h-4q-19 -38 -53 -98l-172 -254v-2z" />
    <glyph glyph-name="uniF63D" unicode="&#xf63d;" horiz-adv-x="404" 
d="M357 650v-41h-223l-33 -209q26 4 50 4q69 0 122 -34q38 -23 62 -65t24 -98q0 -96 -59.5 -156.5t-146.5 -60.5q-84 0 -137 38l18 37q54 -35 121 -35t113 47t45 123q0 76 -45 120t-132 44q-43 0 -81 -6l43 292h259z" />
    <glyph glyph-name="uniF63E" unicode="&#xf63e;" horiz-adv-x="451" 
d="M364 660l1 -43q-33 0 -62 -6q-96 -21 -151.5 -99t-66.5 -177h2q53 84 153 84q80 0 128.5 -57t48.5 -149q0 -93 -49.5 -158t-135.5 -65q-87 0 -141 73t-54 197q0 181 96 292q66 79 174 101q27 5 57 7zM234 30h1q58 0 96 46.5t38 131.5q0 84 -38.5 127.5t-102.5 43.5
q-41 0 -78 -24.5t-58 -66.5q-9 -22 -9 -35q0 -105 40 -164t111 -59z" />
    <glyph glyph-name="uniF63F" unicode="&#xf63f;" horiz-adv-x="353" 
d="M1 650h351v-31l-268 -619h-46l266 608v2h-303v40z" />
    <glyph glyph-name="uniF640" unicode="&#xf640;" horiz-adv-x="449" 
d="M231 660h1q74 0 116 -45.5t42 -107.5q0 -102 -107 -158v-3q128 -61 128 -175q0 -77 -54 -129t-133 -52q-83 0 -134.5 50t-51.5 119q0 121 129 186v3q-51 25 -77.5 64.5t-26.5 84.5q0 72 48.5 117.5t119.5 45.5zM223 29h1q63 0 101.5 36t38.5 99q0 64 -37 101t-112 64
q-61 -22 -95 -65t-34 -95q-2 -60 35.5 -100t101.5 -40zM228 622h-1q-54 0 -86 -33.5t-32 -84.5q-1 -55 32.5 -88t94.5 -53q107 48 107 139q0 51 -29 85.5t-86 34.5z" />
    <glyph glyph-name="uniF641" unicode="&#xf641;" horiz-adv-x="453" 
d="M89 -10v42q25 -2 63 6q77 14 129 71q71 79 87 209l-2 -1q-61 -77 -153 -77q-79 0 -124.5 56t-45.5 139q0 93 53 159t137 66q83 0 132.5 -72t49.5 -195q0 -189 -100 -303q-63 -74 -150 -92q-41 -8 -76 -8zM226 620h-1q-58 0 -97 -49t-39 -133q0 -75 37 -116.5t97 -41.5
q45 0 81.5 22t56.5 59q8 16 8 27q0 110 -37 171t-106 61z" />
    <glyph glyph-name="uniF642" unicode="&#xf642;" horiz-adv-x="741" 
d="M168 596h1q57 0 93 -49.5t36 -144.5q0 -98 -38 -149.5t-96 -51.5q-54 0 -91.5 49.5t-38.5 144.5q0 98 39.5 149.5t94.5 51.5zM166 562h-1q-42 0 -65.5 -49t-23.5 -115q-1 -66 22.5 -114.5t67.5 -48.5q46 0 68 47.5t22 116.5q0 68 -21.5 115.5t-68.5 47.5zM219 -14h-39
l341 617h39zM577 389h1q57 0 93 -49.5t36 -144.5q0 -98 -38 -149.5t-96 -51.5q-54 0 -91.5 49.5t-38.5 145.5q0 97 39.5 148.5t94.5 51.5zM575 355h-1q-42 0 -65.5 -48.5t-23.5 -114.5q-1 -66 23 -115t67 -49q46 0 68 48t22 117q0 67 -21.5 114.5t-68.5 47.5z" />
    <glyph glyph-name="uniF643" unicode="&#xf643;" horiz-adv-x="466" 
d="M233 -10h-1q-77 0 -133.5 64.5t-56.5 187.5q0 122 56.5 187t134.5 65t134.5 -64.5t56.5 -187.5q0 -122 -56.5 -187t-134.5 -65zM233 29h1q68 0 106 62.5t38 150.5q0 89 -38 151t-107 62t-107 -62t-38 -151q0 -88 38.5 -150.5t106.5 -62.5z" />
    <glyph glyph-name="uniF644" unicode="&#xf644;" horiz-adv-x="466" 
d="M308 0h-45v441h-2l-180 -82l-11 36l198 88h40v-483z" />
    <glyph glyph-name="uniF645" unicode="&#xf645;" horiz-adv-x="466" 
d="M403 0h-342v27l42 36q113 84 168.5 150t55.5 134q0 53 -30.5 81t-79.5 28q-68 0 -130 -50l-17 32q77 58 156 58q64 0 105.5 -39t41.5 -108q0 -66 -43.5 -124.5t-135.5 -134.5l-56 -49v-2q7 0 29 0.5t37 0.5h199v-40z" />
    <glyph glyph-name="uniF646" unicode="&#xf646;" horiz-adv-x="466" 
d="M57 -89l6 36q45 -13 90 -13q80 0 131 40.5t51 103.5q0 55 -43 87.5t-114 32.5q-28 0 -50 -2l-2 38l12 1q73 6 119.5 40t46.5 87q0 46 -28.5 69.5t-78.5 23.5q-52 0 -109 -30l-12 32q53 37 129 37q66 0 106 -34.5t40 -89.5q0 -50 -30.5 -86t-80.5 -53v-3
q61 -8 101.5 -46.5t40.5 -99.5q0 -82 -66.5 -134t-161.5 -52q-58 0 -97 15z" />
    <glyph glyph-name="uniF647" unicode="&#xf647;" horiz-adv-x="466" 
d="M436 63h-92v-175h-44v175h-270v31l274 397h40v-389h92v-39zM300 102v230q0 63 3 98l-4 1q-16 -36 -51 -95l-165 -232l1 -2h216z" />
    <glyph glyph-name="uniF648" unicode="&#xf648;" horiz-adv-x="466" 
d="M74 -91l7 36q35 -11 83 -11q71 0 123 41t52 111q0 54 -38 89q-29 29 -87.5 40t-123.5 5l48 263h240l-7 -40h-199l-35 -183q141 4 205 -59q44 -44 44 -109q0 -90 -65.5 -143t-162.5 -53q-53 0 -84 13z" />
    <glyph glyph-name="uniF649" unicode="&#xf649;" horiz-adv-x="466" 
d="M386 600l6 -38q-123 -14 -195 -85t-92 -179l4 1q21 36 59.5 59.5t86.5 23.5q69 0 118 -51.5t49 -136.5q0 -95 -52.5 -149.5t-122.5 -54.5q-86 0 -138.5 65t-52.5 170q0 153 88.5 254.5t241.5 120.5zM246 28h1q52 0 90.5 43t38.5 120q0 71 -35.5 111.5t-92.5 40.5
q-59 0 -101 -42q-43 -43 -43 -105q0 -71 40.5 -119.5t101.5 -48.5z" />
    <glyph glyph-name="uniF64A" unicode="&#xf64a;" horiz-adv-x="466" 
d="M396 483v-30q-41 -122 -115.5 -276.5t-150.5 -280.5l-42 13q59 92 143 262.5t117 268.5v3h-280v40h328z" />
    <glyph glyph-name="uniF64B" unicode="&#xf64b;" horiz-adv-x="466" 
d="M288 315v-2q56 -21 91 -62t35 -94q0 -75 -53 -121t-130 -46q-81 0 -131.5 46.5t-50.5 112.5q0 101 126 164v2q-103 45 -103 133q0 66 49 109t117 43q65 0 110 -40.5t45 -104.5q0 -86 -105 -140zM237 562h-1q-49 0 -83.5 -29.5t-34.5 -79.5q0 -45 31.5 -74t93.5 -49
q104 38 104 125q0 52 -33 79.5t-77 27.5zM231 29h1q57 0 96 33t39 89q0 54 -37.5 89t-110.5 58q-55 -22 -88.5 -59.5t-33.5 -82.5q0 -58 36 -92.5t98 -34.5z" />
    <glyph glyph-name="uniF64C" unicode="&#xf64c;" horiz-adv-x="466" 
d="M79 -108l-5 38q118 9 193 74.5t94 168.5h-2q-15 -30 -52.5 -51.5t-84.5 -21.5q-70 0 -119.5 50.5t-49.5 139.5t52 146.5t129 57.5q78 0 130 -60.5t52 -165.5q0 -157 -89.5 -260.5t-247.5 -115.5zM228 138h1q37 0 68 17.5t47 44.5q26 31 26 82q0 76 -40.5 125t-98.5 49
q-52 0 -92 -41t-40 -119q0 -79 37 -118.5t92 -39.5z" />
    <glyph glyph-name="uniF64E" unicode="&#xf64e;" horiz-adv-x="466" 
d="M408 56l11 -35q-42 -31 -118 -31q-92 0 -153 61q-49 47 -61 129h-54v36h50q0 6 -0.5 14t-0.5 11q0 21 3 41h-52v36h56q15 80 63 126q64 67 161 67q56 0 104 -27l-13 -36q-46 23 -98 23q-70 0 -119 -48q-43 -41 -52 -105h247v-36h-252q-2 -20 -2 -33q0 -21 1 -33h253v-36
h-248q10 -62 48 -100q52 -49 124 -49q54 0 102 25z" />
    <glyph glyph-name="uniF64F" unicode="&#xf64f;" horiz-adv-x="466" 
d="M114 302v37h99l8 56q12 92 50 149t113 56q35 0 58 -14l-11 -35q-28 10 -53 10q-93 0 -111 -161l-8 -61h120v-37h-124l-26 -204q-13 -105 -47.5 -157.5t-104.5 -52.5q-39 0 -65 17l12 34q25 -13 58 -13q46 0 69.5 43t33.5 129l24 204h-95z" />
    <glyph glyph-name="uniF650" unicode="&#xf650;" horiz-adv-x="466" 
d="M171 216h102l21 167h-103zM143 0h-40l22 177h-76v39h81l22 167h-81v38h86l22 172h39l-22 -172h103l23 172h39l-22 -172h76v-38h-81l-21 -167h82v-38h-87l-22 -178h-41l23 178h-102z" />
    <glyph glyph-name="uniF651" unicode="&#xf651;" horiz-adv-x="466" 
d="M420 0h-366v30q49 22 76.5 56.5t27.5 72.5q0 29 -6 57h-93v38h86q-11 57 -11 78q0 83 46 131t114 48q56 0 96 -24l-16 -36q-33 20 -84 20q-53 0 -81.5 -36t-28.5 -102q0 -31 11 -79h140v-38h-133q5 -28 5 -47q0 -84 -66 -126v-2h283v-41z" />
    <glyph glyph-name="uniF652" unicode="&#xf652;" horiz-adv-x="466" 
d="M253 0h-45v122h-144v35h144v62h-144v35h126l-143 247h53l95 -169q23 -42 37 -71h3q5 13 40 73l101 167h51l-155 -247h127v-35h-146v-62h146v-35h-146v-122z" />
    <glyph glyph-name="uniF653" unicode="&#xf653;" horiz-adv-x="466" 
d="M251 -73h-36v74q-81 0 -132 36l20 35q41 -34 118 -34q49 0 83.5 25.5t34.5 66.5q0 34 -26 57.5t-79 43.5q-72 27 -107 55.5t-35 74.5q0 47 36 80.5t92 39.5v78h37v-77q64 -1 110 -30l-19 -35q-42 28 -103 28q-45 0 -76 -22t-31 -56q0 -32 25.5 -53.5t88.5 -44.5
q133 -48 133 -135q0 -50 -37 -87t-97 -45v-75z" />
    <glyph glyph-name="uniF654" unicode="&#xf654;" horiz-adv-x="466" 
d="M353 113l12 -35q-40 -21 -93 -24v-70h-36v70q-75 8 -118 58.5t-43 132.5q0 79 44.5 132.5t116.5 64.5v65h36v-64q57 -1 92 -20l-14 -36q-31 18 -88 18q-63 0 -102 -45t-39 -113q0 -73 38 -114t98 -41q54 0 96 21z" />
    <glyph glyph-name="uniF655" unicode="&#xf655;" horiz-adv-x="292" 
d="M143 -5h-1q-53 0 -86.5 51t-33.5 147q0 97 35.5 149.5t91.5 52.5t88 -50.5t32 -145.5q0 -99 -33.5 -151.5t-92.5 -52.5zM145 29h1q39 0 59.5 45t20.5 123q0 164 -80 164q-37 0 -59 -44.5t-22 -119.5q0 -77 21 -122.5t59 -45.5z" />
    <glyph glyph-name="uniF656" unicode="&#xf656;" horiz-adv-x="205" 
d="M140 0h-40v350h-2l-70 -37l-8 34l85 43h35v-390z" />
    <glyph glyph-name="uniF657" unicode="&#xf657;" horiz-adv-x="268" 
d="M7 0v22l56 56q129 127 129 203q0 35 -20.5 57t-59.5 22q-41 0 -78 -32l-15 28q41 39 103 39q57 0 85 -32t28 -74q0 -52 -33.5 -102t-97.5 -112l-36 -37v-2h174v-36h-235z" />
    <glyph glyph-name="uniF658" unicode="&#xf658;" horiz-adv-x="261" 
d="M39 334l-14 31q44 30 95 30t77 -26t26 -65q0 -28 -18.5 -52.5t-51.5 -37.5v-2q37 -6 61.5 -33.5t24.5 -66.5q0 -48 -36.5 -82.5t-101.5 -34.5q-59 0 -96 26l14 33q32 -25 85 -25q46 0 69.5 24t22.5 57q0 42 -31.5 63t-79.5 21h-20v32h21q33 0 64 19.5t31 56.5
q0 25 -17 42t-49 17q-42 0 -76 -27z" />
    <glyph glyph-name="uniF659" unicode="&#xf659;" horiz-adv-x="298" 
d="M228 0h-41v112h-175v25l173 253h43v-244h55v-34h-55v-112zM187 146v134q0 12 3 63h-2q-14 -28 -35 -61l-93 -134v-2h127z" />
    <glyph glyph-name="uniF65A" unicode="&#xf65a;" horiz-adv-x="267" 
d="M235 388v-37h-141l-16 -107q16 2 30 2q45 0 79 -20q53 -32 53 -100q0 -58 -38.5 -95t-96.5 -37q-52 0 -90 23l12 33q31 -21 78 -21q39 0 65.5 25t26.5 66q0 43 -27.5 67.5t-80.5 24.5q-25 0 -51 -4l25 180h172z" />
    <glyph glyph-name="uniF65B" unicode="&#xf65b;" horiz-adv-x="293" 
d="M236 395v-36q-24 0 -39 -3q-57 -11 -91 -52.5t-41 -96.5h2q33 48 92 48q50 0 81 -34.5t31 -90.5q0 -55 -33 -95t-88 -40q-57 0 -92.5 44.5t-35.5 118.5q0 110 62 175q42 47 115 58q30 4 37 4zM151 29h1q33 0 54.5 27t21.5 71q0 45 -22.5 69.5t-58.5 24.5q-53 0 -77 -50
q-6 -9 -6 -22q0 -55 23 -87.5t64 -32.5z" />
    <glyph glyph-name="uniF65C" unicode="&#xf65c;" horiz-adv-x="252" 
d="M15 388h229v-28l-164 -360h-43l162 351v1h-184v36z" />
    <glyph glyph-name="uniF65D" unicode="&#xf65d;" horiz-adv-x="289" 
d="M149 395h1q48 0 76 -27.5t28 -66.5q0 -61 -64 -92v-2q78 -33 78 -102q0 -48 -35.5 -79t-88.5 -31q-55 0 -88.5 30t-33.5 73q0 71 77 107v2q-62 29 -62 87q0 44 32 72.5t80 28.5zM144 27h1q36 0 57.5 20.5t21.5 53.5q0 35 -21.5 55.5t-64.5 34.5q-34 -11 -53.5 -34.5
t-19.5 -52.5q0 -33 21.5 -55t57.5 -22zM147 363h-1q-31 0 -49.5 -18.5t-18.5 -46.5q0 -54 74 -76q60 23 60 75q0 28 -16 47t-49 19z" />
    <glyph glyph-name="uniF65E" unicode="&#xf65e;" horiz-adv-x="289" 
d="M53 -5v36q13 -1 41 2q44 6 78 40q41 41 51 112h-1q-35 -44 -91 -44q-50 0 -79.5 34t-29.5 84q0 56 35 96t90 40t87.5 -44t32.5 -118q0 -113 -65 -182q-41 -44 -102 -52q-24 -4 -47 -4zM142 362h-1q-33 0 -55 -28t-22 -73q0 -39 21 -62.5t56 -23.5q52 0 78 43q5 8 5 19
q0 58 -21 91.5t-61 33.5z" />
    <glyph glyph-name="uniF65F" unicode="&#xf65f;" horiz-adv-x="108" 
d="M37 -71l-31 -4q23 61 34 137l50 6q-23 -88 -53 -139z" />
    <glyph glyph-name="uniF660" unicode="&#xf660;" horiz-adv-x="108" 
d="M53 -6h-1q-12 0 -20.5 9.5t-8.5 23.5t9 23.5t22 9.5t21.5 -9.5t8.5 -23.5t-8.5 -23.5t-22.5 -9.5z" />
    <glyph glyph-name="uniF661" unicode="&#xf661;" horiz-adv-x="292" 
d="M143 260h-1q-53 0 -86.5 51t-33.5 147q0 97 35.5 149.5t91.5 52.5t88 -50.5t32 -145.5q0 -99 -33.5 -151.5t-92.5 -52.5zM145 294h1q39 0 59.5 45t20.5 123q0 164 -80 164q-37 0 -59 -44.5t-22 -119.5q0 -77 21 -122.5t59 -45.5z" />
    <glyph glyph-name="uniF662" unicode="&#xf662;" horiz-adv-x="205" 
d="M140 265h-40v350h-2l-70 -37l-8 34l85 43h35v-390z" />
    <glyph glyph-name="uniF663" unicode="&#xf663;" horiz-adv-x="268" 
d="M7 265v22l56 56q129 127 129 203q0 35 -20.5 57t-59.5 22q-41 0 -78 -32l-15 28q41 39 103 39q57 0 85 -32t28 -74q0 -52 -33.5 -102t-97.5 -112l-36 -37v-2h174v-36h-235z" />
    <glyph glyph-name="uniF664" unicode="&#xf664;" horiz-adv-x="261" 
d="M39 599l-14 31q44 30 95 30t77 -26t26 -65q0 -28 -18.5 -52.5t-51.5 -37.5v-2q37 -6 61.5 -33.5t24.5 -66.5q0 -48 -36.5 -82.5t-101.5 -34.5q-59 0 -96 26l14 33q33 -25 85 -25q46 0 69.5 24t22.5 57q0 42 -31.5 63t-79.5 21h-20v32h21q33 0 64 19.5t31 56.5
q0 25 -17 42t-49 17q-42 0 -76 -27z" />
    <glyph glyph-name="uniF665" unicode="&#xf665;" horiz-adv-x="298" 
d="M228 265h-41v112h-175v25l173 253h43v-244h55v-34h-55v-112zM187 411v134q0 12 3 63h-2q-14 -28 -35 -61l-93 -134v-2h127z" />
    <glyph glyph-name="uniF666" unicode="&#xf666;" horiz-adv-x="267" 
d="M235 653v-37h-141l-16 -107q16 2 30 2q45 0 79 -20q53 -32 53 -100q0 -58 -38.5 -95t-96.5 -37q-52 0 -90 23l12 33q31 -21 78 -21q39 0 65.5 25t26.5 66q0 43 -27.5 67.5t-80.5 24.5q-25 0 -51 -4l25 180h172z" />
    <glyph glyph-name="uniF667" unicode="&#xf667;" horiz-adv-x="293" 
d="M236 660v-36q-24 0 -39 -3q-57 -11 -91 -52.5t-41 -96.5h2q33 48 92 48q50 0 81 -34.5t31 -90.5q0 -55 -33 -95t-88 -40q-57 0 -92.5 44.5t-35.5 118.5q0 110 62 175q42 47 115 58q30 4 37 4zM151 294h1q33 0 54.5 27t21.5 71q0 45 -22.5 69.5t-58.5 24.5q-53 0 -77 -50
q-6 -9 -6 -22q0 -55 23 -87.5t64 -32.5z" />
    <glyph glyph-name="uniF668" unicode="&#xf668;" horiz-adv-x="252" 
d="M15 653h229v-28l-164 -360h-43l162 351v1h-184v36z" />
    <glyph glyph-name="uniF669" unicode="&#xf669;" horiz-adv-x="289" 
d="M149 660h1q48 0 76 -28t28 -66q0 -61 -64 -92v-2q78 -32 78 -101q0 -49 -35.5 -80t-88.5 -31q-55 0 -88.5 30t-33.5 73q0 71 77 107v2q-62 29 -62 87q0 44 32 72.5t80 28.5zM144 292h1q36 0 57.5 20.5t21.5 53.5q0 35 -21.5 55.5t-64.5 34.5q-34 -11 -53.5 -34t-19.5 -52
q0 -33 21.5 -55.5t57.5 -22.5zM147 628h-1q-31 0 -49.5 -18.5t-18.5 -46.5q0 -54 74 -76q60 23 60 75q0 28 -16 47t-49 19z" />
    <glyph glyph-name="uniF66A" unicode="&#xf66a;" horiz-adv-x="289" 
d="M53 260v36q13 -1 41 2q44 6 78 40q41 41 51 112h-1q-35 -44 -91 -44q-50 0 -79.5 34t-29.5 84q0 56 35 96t90 40t87.5 -44t32.5 -118q0 -113 -65 -182q-41 -44 -102 -52q-24 -4 -47 -4zM142 627h-1q-33 0 -55 -28t-22 -73q0 -39 21 -62.5t56 -23.5q52 0 78 43q5 8 5 19
q0 58 -21 91.5t-61 33.5z" />
    <glyph glyph-name="uniF66B" unicode="&#xf66b;" horiz-adv-x="108" 
d="M37 194l-31 -4q23 61 34 137l50 6q-23 -88 -53 -139z" />
    <glyph glyph-name="uniF66C" unicode="&#xf66c;" horiz-adv-x="108" 
d="M53 259h-1q-12 0 -20.5 9.5t-8.5 23.5t9 23.5t22 9.5t21.5 -9.5t8.5 -23.5t-8.5 -23.5t-22.5 -9.5z" />
    <glyph glyph-name="uniF6AE" unicode="&#xf6ae;" horiz-adv-x="260" 
d="M201 736h43q-129 -169 -129 -411q0 -229 129 -406h-43q-131 170 -131 407q0 238 131 410z" />
    <glyph glyph-name="uniF6AF" unicode="&#xf6af;" horiz-adv-x="260" 
d="M60 -81h-43q129 173 129 409q0 234 -129 408h43q131 -168 131 -408q0 -237 -131 -409z" />
    <glyph glyph-name="uniF6B0" unicode="&#xf6b0;" horiz-adv-x="260" 
d="M247 -71h-157v798h157v-36h-115v-726h115v-36z" />
    <glyph glyph-name="uniF6B1" unicode="&#xf6b1;" horiz-adv-x="260" 
d="M15 727h157v-798h-157v36h114v726h-114v36z" />
    <glyph glyph-name="uniF6B2" unicode="&#xf6b2;" horiz-adv-x="260" 
d="M30 311v34q80 -1 80 79q0 20 -7 88q-9 54 -9 89q0 64 36.5 95t94.5 31h11v-36h-17q-44 -2 -63 -24t-19 -67q0 -30 8 -82q8 -54 8 -81q1 -90 -64 -107v-2q65 -19 64 -108q0 -27 -8 -81t-8 -83q0 -87 82 -91h17v-36h-11q-58 0 -94.5 31.5t-36.5 99.5q0 31 8 87t8 85
q0 80 -80 79z" />
    <glyph glyph-name="uniF6B3" unicode="&#xf6b3;" horiz-adv-x="260" 
d="M230 345v-34q-80 1 -80 -79q0 -35 9 -85q8 -56 8 -87q0 -68 -36.5 -99.5t-94.5 -31.5h-11v36h17q82 4 82 91q0 34 -9 83q-8 54 -8 81q-1 89 64 108v2q-65 17 -64 107q0 32 9 81q8 52 8 82q0 45 -19 67t-63 24h-17v36h11q58 0 94.5 -31t36.5 -95q0 -35 -9 -89
q-8 -58 -8 -88q0 -80 80 -79z" />
    <glyph glyph-name="uniF6B4" unicode="&#xf6b4;" horiz-adv-x="200" 
d="M128 0h-55l8 497h39zM100 683h1q17 0 27 -12t10 -31q0 -18 -10.5 -30t-27.5 -12t-27.5 12t-10.5 30q0 19 10.5 31t27.5 12z" />
    <glyph glyph-name="uniF6B5" unicode="&#xf6b5;" horiz-adv-x="355" 
d="M211 683h1q17 0 27.5 -12.5t10.5 -31.5q0 -18 -11 -30.5t-28 -12.5t-28 12.5t-11 30.5q0 20 10.5 32t28.5 12zM187 499h43l3 -22q15 -94 -55 -189q-40 -53 -57 -88t-17 -74q0 -48 26.5 -73.5t74.5 -25.5q54 0 92 28l16 -35q-20 -15 -53 -25t-64 -10q-68 0 -105 40t-37 98
q0 45 20 84.5t63 96.5q33 45 45 83.5t7 85.5z" />
    <glyph glyph-name="uniF6B6" unicode="&#xf6b6;" horiz-adv-x="375" 
d="M208 504l-130 -176l130 -177h-48l-130 177l131 176h47zM349 504l-130 -176l131 -177h-48l-130 177l130 176h47z" />
    <glyph glyph-name="uniF6B7" unicode="&#xf6b7;" horiz-adv-x="375" 
d="M156 328l-131 176h47l131 -176l-130 -177h-47zM297 328l-130 176h47l131 -176l-130 -177h-48z" />
    <glyph glyph-name="uniF6B8" unicode="&#xf6b8;" horiz-adv-x="233" 
d="M207 504l-129 -176l130 -177h-48l-130 177l130 176h47z" />
    <glyph glyph-name="uniF6B9" unicode="&#xf6b9;" horiz-adv-x="233" 
d="M155 328l-130 176h47l131 -176l-130 -177h-47z" />
    <glyph glyph-name="uniF6BA" unicode="&#xf6ba;" horiz-adv-x="296" 
d="M30 364h236v-41h-236v41z" />
    <glyph glyph-name="uniF6BB" unicode="&#xf6bb;" horiz-adv-x="500" 
d="M30 349h440v-37h-440v37z" />
    <glyph glyph-name="uniF6BC" unicode="&#xf6bc;" horiz-adv-x="1000" 
d="M30 349h940v-37h-940v37z" />
    <glyph glyph-name="uniF6BD" unicode="&#xf6bd;" horiz-adv-x="173" 
d="M86 294h-1q-16 0 -27 12.5t-11 29.5q0 19 11 31t28 12q18 0 28.5 -12t10.5 -31q0 -18 -10.5 -30t-28.5 -12z" />
    <glyph glyph-name="uniF6C1" unicode="&#xf6c1;" horiz-adv-x="427" 
d="M39 32l17 38q58 -39 129 -39q70 0 111 38t41 101q0 54 -29.5 91t-93.5 67q-159 66 -159 186q0 74 52 121.5t132 47.5q77 0 120 -30l-18 -39q-41 29 -107 29q-67 0 -100 -36.5t-33 -83.5q0 -55 30 -88t98 -65q79 -39 116.5 -83.5t37.5 -112.5q0 -67 -39.5 -115.5
t-111.5 -62.5l-30 -50q28 -4 47.5 -23t19.5 -47q0 -36 -26 -55t-63 -19q-33 0 -61 17l12 34q23 -14 53 -14q43 0 43 34q0 37 -74 47l40 71h-10q-39 0 -80 12t-64 29z" />
    <glyph glyph-name="uniF6C2" unicode="&#xf6c2;" horiz-adv-x="341" 
d="M37 23l18 39q45 -31 97 -31q49 0 76 25t27 65q0 37 -20.5 61.5t-69.5 47.5q-115 53 -115 133q0 54 38.5 90.5t100.5 36.5q55 0 98 -29l-19 -38q-38 27 -85 27q-41 0 -64 -23.5t-23 -56.5t19.5 -53.5t68.5 -44.5q57 -26 87 -59t30 -84q0 -52 -29 -87t-79 -46l-31 -50
q28 -3 48 -22t20 -46q0 -38 -25.5 -57t-64.5 -19q-34 0 -61 17l13 34q21 -14 52 -14q20 0 33 8t12 26q0 39 -75 47l40 71h-5q-63 0 -112 32z" />
    <glyph glyph-name="commaaccent" unicode="&#xf6c3;" 
d="M105 -209l-14 26q77 14 77 68q0 36 -37 61l41 12q38 -24 38 -70q0 -44 -32 -67.5t-73 -29.5z" />
    <glyph glyph-name="Acute" unicode="&#xf6c9;" 
d="M220 820h71l-129 -110h-41z" />
    <glyph glyph-name="Caron" unicode="&#xf6ca;" 
d="M170 710h-39l-102 103h52l69 -70h2l68 70h50z" />
    <glyph glyph-name="Dieresis" unicode="&#xf6cb;" 
d="M68 727h-1q-16 0 -25.5 11t-9.5 28q0 15 10.5 26.5t25.5 11.5q16 0 26 -11t10 -27q0 -17 -9.5 -28t-26.5 -11zM233 727h-1q-16 0 -25.5 11t-9.5 28q0 15 10.5 26.5t25.5 11.5q16 0 26 -11t10 -27q0 -17 -9.5 -28t-26.5 -11z" />
    <glyph glyph-name="DieresisAcute" unicode="&#xf6cc;" 
d="M42 727h-1q-15 0 -24.5 11t-9.5 28q0 15 10.5 26.5t25.5 11.5q16 0 26 -11t10 -27q0 -18 -10 -28.5t-27 -10.5zM261 727h-1q-15 0 -24.5 11t-9.5 28q0 15 10.5 26.5t25.5 11.5q16 0 26 -11t10 -27q0 -18 -10 -28.5t-27 -10.5zM159 820h71l-112 -110h-41z" />
    <glyph glyph-name="DieresisGrave" unicode="&#xf6cd;" 
d="M42 727h-1q-15 0 -24.5 11t-9.5 28q0 15 10.5 26.5t25.5 11.5q16 0 26 -11t10 -27q0 -18 -10 -28.5t-27 -10.5zM261 727h-1q-15 0 -24.5 11t-9.5 28q0 15 10.5 26.5t25.5 11.5q16 0 26 -11t10 -27q0 -18 -10 -28.5t-27 -10.5zM73 820h71l81 -110h-40z" />
    <glyph glyph-name="Grave" unicode="&#xf6ce;" 
d="M9 820h71l99 -110h-41z" />
    <glyph glyph-name="Hungarumlaut" unicode="&#xf6cf;" 
d="M132 820h66l-113 -104h-40zM254 820h67l-113 -104h-40z" />
    <glyph glyph-name="Macron" unicode="&#xf6d0;" 
d="M41 772h219v-38h-219v38z" />
    <glyph glyph-name="cyrBreve" unicode="&#xf6d1;" 
d="M38 818h43q3 -12 6.5 -20.5t10.5 -18.5t20.5 -15.5t32.5 -5.5q58 0 67 60h44q-9 -94 -113 -94q-102 0 -111 94z" />
    <glyph glyph-name="cyrFlex" unicode="&#xf6d2;" 
d="M262 723h-43q-3 11 -6.5 19t-10.5 18t-20.5 15.5t-32.5 5.5q-58 0 -67 -58h-44q9 92 113 92q102 0 111 -92z" />
    <glyph glyph-name="dblGrave" unicode="&#xf6d3;" 
d="M-13 820h71l98 -110h-40zM127 820h70l99 -110h-40z" />
    <glyph glyph-name="cyrbreve" unicode="&#xf6d4;" horiz-adv-x="301" 
d="M34 670h42q3 -34 21.5 -55.5t51.5 -21.5q65 0 76 77h41q-9 -110 -118 -110q-104 0 -114 110z" />
    <glyph glyph-name="cyrflex" unicode="&#xf6d5;" 
d="M75 564h-41q4 55 35 82.5t83 27.5q104 0 114 -110h-42q-9 77 -73 77q-67 0 -76 -77z" />
    <glyph glyph-name="dblgrave" unicode="&#xf6d6;" 
d="M4 672h72l91 -134h-38zM137 672h72l91 -134h-38z" />
    <glyph glyph-name="dieresisacute" unicode="&#xf6d7;" horiz-adv-x="301" 
d="M46 578h-1q-15 0 -24.5 11t-9.5 26t10.5 26t26.5 11q15 0 25 -11t10 -26q0 -16 -10.5 -26.5t-26.5 -10.5zM249 578h-1q-15 0 -24.5 11t-9.5 26t10.5 26t26.5 11q15 0 25 -11t10 -26q0 -16 -10.5 -26.5t-26.5 -10.5zM171 691h66l-118 -136h-35z" />
    <glyph glyph-name="dieresisgrave" unicode="&#xf6d8;" horiz-adv-x="301" 
d="M50 578h-1q-15 0 -24.5 11t-9.5 26t10.5 26t26.5 11q15 0 25 -11t10 -26q0 -16 -10.5 -26.5t-26.5 -10.5zM247 578h-1q-15 0 -24.5 11t-9.5 26t10.5 26t26.5 11q15 0 25 -11t10 -26q0 -16 -10.5 -26.5t-26.5 -10.5zM64 691h66l87 -136h-35z" />
    <glyph glyph-name="uniF6DC" unicode="&#xf6dc;" horiz-adv-x="276" 
d="M140 0v601h-2l-106 -63l-12 36l125 76h40v-650h-45z" />
    <glyph glyph-name="centinferior" unicode="&#xf6df;" horiz-adv-x="282" 
d="M178 -155h-32v61q-50 6 -81 38q-33 38 -33 104q0 58 31 98t83 47v60h32v-59q35 0 63 -15l-11 -33q-26 15 -62 15q-43 0 -68.5 -33t-25.5 -79q0 -51 26 -80.5t67 -29.5q33 0 66 14l9 -30q-24 -15 -64 -18v-60z" />
    <glyph glyph-name="centsuperior" unicode="&#xf6e0;" horiz-adv-x="282" 
d="M178 427h-32v61q-50 6 -81 38q-33 38 -33 104q0 58 31 98t83 47v60h32v-59q35 0 63 -15l-11 -33q-26 15 -62 15q-43 0 -68.5 -33t-25.5 -79q0 -51 26 -80.5t67 -29.5q33 0 66 14l9 -30q-24 -15 -64 -18v-60z" />
    <glyph glyph-name="commainferior" unicode="&#xf6e1;" horiz-adv-x="108" 
d="M37 -218l-31 -4q23 61 34 137l50 6q-23 -88 -53 -139z" />
    <glyph glyph-name="commasuperior" unicode="&#xf6e2;" horiz-adv-x="108" 
d="M37 364l-31 -4q23 61 34 137l50 6q-23 -88 -53 -139z" />
    <glyph glyph-name="dollarinferior" unicode="&#xf6e3;" horiz-adv-x="277" 
d="M152 -197h-32v60q-50 0 -86 25l14 33q34 -25 79 -25q32 0 52 18t20 46q0 47 -66 76q-47 20 -70.5 43.5t-23.5 58.5q0 37 23.5 62t61.5 31v61h32v-59q41 -1 71 -21l-12 -32q-27 20 -70 20q-32 0 -48 -16.5t-16 -39.5q0 -24 16 -38.5t56 -33.5q45 -20 66 -45t21 -63
q0 -37 -23.5 -64.5t-64.5 -34.5v-62z" />
    <glyph glyph-name="dollarsuperior" unicode="&#xf6e4;" horiz-adv-x="277" 
d="M152 384l-32 1v60q-50 0 -86 25l14 33q34 -25 79 -25q32 0 52 18t20 46q0 47 -66 76q-47 20 -70.5 43.5t-23.5 58.5q0 37 23.5 62t61.5 31v61h32v-59q41 -1 71 -21l-12 -32q-27 20 -70 20q-32 0 -48 -16.5t-16 -39.5q0 -24 16 -38.5t56 -33.5q45 -20 66 -45t21 -63
q0 -37 -23.5 -65t-64.5 -35v-62z" />
    <glyph glyph-name="hypheninferior" unicode="&#xf6e5;" horiz-adv-x="179" 
d="M18 53h143v-33h-143v33z" />
    <glyph glyph-name="hyphensuperior" unicode="&#xf6e6;" horiz-adv-x="179" 
d="M18 635h143v-33h-143v33z" />
    <glyph glyph-name="periodinferior" unicode="&#xf6e7;" horiz-adv-x="108" 
d="M53 -153h-1q-12 0 -20.5 9.5t-8.5 23.5t9 23.5t22 9.5t21.5 -9.5t8.5 -23.5t-8.5 -23.5t-22.5 -9.5z" />
    <glyph glyph-name="periodsuperior" unicode="&#xf6e8;" horiz-adv-x="108" 
d="M53 428h-1q-12 0 -20.5 9.5t-8.5 23.5t9 23.5t22 9.5t21.5 -9.5t8.5 -23.5t-8.5 -23.5t-22.5 -9.5z" />
    <glyph glyph-name="zerooldstyle" unicode="&#xf730;" horiz-adv-x="466" 
d="M233 -10h-1q-77 0 -133.5 64.5t-56.5 187.5q0 122 56.5 187t134.5 65t134.5 -64.5t56.5 -187.5q0 -122 -56.5 -187t-134.5 -65zM233 29h1q68 0 106 62.5t38 150.5q0 89 -38 151t-107 62t-107 -62t-38 -151q0 -88 38.5 -150.5t106.5 -62.5z" />
    <glyph glyph-name="oneoldstyle" unicode="&#xf731;" horiz-adv-x="301" 
d="M206 0h-45v440h-2l-127 -60l-11 35l145 68h40v-483z" />
    <glyph glyph-name="twooldstyle" unicode="&#xf732;" horiz-adv-x="396" 
d="M364 0h-342v27l42 36q113 84 168.5 150t55.5 134q0 53 -30.5 81t-79.5 28q-68 0 -130 -50l-17 32q77 58 156 58q64 0 105.5 -39t41.5 -108q0 -66 -43.5 -124.5t-135.5 -134.5l-56 -49v-2q7 0 29 0.5t37 0.5h199v-40z" />
    <glyph glyph-name="threeoldstyle" unicode="&#xf733;" horiz-adv-x="380" 
d="M16 -89l6 36q46 -13 90 -13q80 0 131 40.5t51 103.5q0 55 -43 87.5t-114 32.5q-28 0 -50 -2l-2 38l12 1q73 6 119.5 40t46.5 87q0 46 -28.5 69.5t-78.5 23.5q-52 0 -109 -30l-12 32q53 37 129 37q66 0 106 -34.5t40 -89.5q0 -50 -30.5 -86t-80.5 -53v-3
q61 -8 101.5 -46.5t40.5 -99.5q0 -82 -66.5 -134t-161.5 -52q-58 0 -97 15z" />
    <glyph glyph-name="fouroldstyle" unicode="&#xf734;" horiz-adv-x="435" 
d="M419 63h-92v-175h-44v175h-269v31l273 397h40v-389h92v-39zM283 102v230q0 63 3 98l-4 1q-16 -36 -51 -95l-164 -232l1 -2h215z" />
    <glyph glyph-name="fiveoldstyle" unicode="&#xf735;" horiz-adv-x="392" 
d="M39 -91l7 36q35 -11 83 -11q71 0 123 41t52 111q0 54 -38 89q-29 29 -87.5 40t-123.5 5l48 263h240l-7 -40h-199l-35 -183q141 4 205 -59q44 -44 44 -109q0 -90 -65.5 -143t-162.5 -53q-53 0 -84 13z" />
    <glyph glyph-name="sixoldstyle" unicode="&#xf736;" horiz-adv-x="458" 
d="M377 600l6 -38q-123 -14 -194.5 -85t-91.5 -179l4 1q21 36 59.5 59.5t86.5 23.5q68 0 117 -51.5t49 -136.5q0 -95 -52.5 -149.5t-122.5 -54.5q-85 0 -137.5 65t-52.5 170q0 153 88.5 254.5t240.5 120.5zM237 28h1q52 0 90.5 42.5t38.5 120.5q0 71 -35 111.5t-92 40.5
q-59 0 -101 -42q-43 -43 -43 -105q0 -72 40 -120t101 -48z" />
    <glyph glyph-name="sevenoldstyle" unicode="&#xf737;" horiz-adv-x="372" 
d="M350 483v-30q-41 -122 -115.5 -276.5t-150.5 -280.5l-42 13q59 92 143 262.5t117 268.5v3h-280v40h328z" />
    <glyph glyph-name="eightoldstyle" unicode="&#xf738;" horiz-adv-x="451" 
d="M282 315v-2q56 -21 91 -62t35 -94q0 -75 -53 -121t-130 -46q-81 0 -131.5 46.5t-50.5 112.5q0 101 126 164v2q-103 45 -103 133q0 66 49 109t117 43q65 0 110 -40.5t45 -104.5q0 -86 -105 -140zM231 562h-1q-49 0 -83.5 -29.5t-34.5 -79.5q0 -45 31.5 -74t93.5 -49
q104 38 104 125q0 52 -33 79.5t-77 27.5zM225 29h1q57 0 96 33t39 89q0 54 -37.5 89t-110.5 58q-55 -22 -88.5 -59.5t-33.5 -82.5q0 -58 36 -92.5t98 -34.5z" />
    <glyph glyph-name="nineoldstyle" unicode="&#xf739;" horiz-adv-x="458" 
d="M70 -108l-5 38q118 9 193 74.5t94 168.5h-2q-15 -30 -52.5 -51.5t-84.5 -21.5q-70 0 -119.5 50.5t-49.5 139.5t52 146.5t129 57.5q78 0 130 -60.5t52 -165.5q0 -157 -89.5 -260.5t-247.5 -115.5zM219 138h1q37 0 68 17.5t47 44.5q26 31 26 82q0 76 -40.5 125t-98.5 49
q-52 0 -92 -41t-40 -119q0 -79 37 -118.5t92 -39.5z" />
    </font>
</defs>
</svg>
